{
.appVersion = "1354";
DisplayStrings = (
"!\"#$%&'()*+,-.//\0120123456789:;<=>?\012@ABCDEFGHIJKLMNO\012PQRSTUVWXYZ[/backslash ]^_\012`abcdefghijklmno\012pqrstuvwxyz{|}~\012\012",
"/a-hira/_cross/a-hira/o-hira/a-hira/o-hira/a-hira \012/_cross/a-hira/_cross \012/a-hira/_cross/wa-hira/ba-hira/ba-hira/ba-hira \012\012/a-hira/e-hira/o-hira/ki-hira/sa-hira/so-hira/te-hira/hu-hira/yu-hira/ri-hira \012/ru-hira/ro-hira/ne-hira/re-hira/wa-hira/wi-hira/we-hira/wo-hira/n-hira \012/asmall-hira/esmall-hira/osmall-hira/gi-hira/za-hira/zo-hira/de-hira/bu-hira/pu-hira/wasmall-hira \012\012",
"1234567890\012l6l6l6l/space/six.001 \012bdgpqJ369"
);
copyright = "Copyright © 2019 by Coji Morishita. All rights reserved.";
customParameters = (
{
name = vendorID;
value = UFDN;
},
{
name = ROS;
value = "Adobe-Identity-0";
},
{
name = "Enforce Compatibility Check";
value = 1;
},
{
name = Axes;
value = (
{
Name = Weight;
Tag = wght;
}
);
},
{
name = "Use Typo Metrics";
value = 1;
},
{
name = note;
value = "%:    60% (Black +20, Thin 20, Medium +20)\012ord*: 80% (Black +10, Thin 20, Medium +10)\012*sup: 60% (Black +20, Thin 20, Medium +20)\012©®:   60% (Black +20, Thin 20, Medium +20)\012TM:   50% (Black +0~10, Thin 20, Medium +20)\012\012*sml: X100、Y-8、W80%、H80% (Black +20, Thin 20, Medium +6)\012\012full-width bracket pairs: X1000, Y720 Rotate180";
}
);
date = "2019-12-03 09:19:53 +0000";
designer = "Coji Morishita";
designerURL = "http://www.underforest.com";
familyName = "Mplus 1p";
featurePrefixes = (
{
automatic = 1;
code = "languagesystem DFLT dflt;\012\012languagesystem latn dflt;\012languagesystem latn AZE;\012languagesystem latn CRT;\012languagesystem latn KAZ;\012languagesystem latn TAT;\012languagesystem latn TRK;\012languagesystem latn ROM;\012languagesystem latn MOL;\012languagesystem latn CAT;\012";
name = Languagesystems;
}
);
features = (
{
automatic = 1;

glyphs = (
{
color = 10;
glyphname = A;
lastChange = "2021-01-27 09:34:15 +0000";
layers = (
{
anchors = (
{
name = bottom;
position = "{343, 0}";
},
{
name = ogonek;
position = "{663, 0}";
},
{
name = top;
position = "{343, 730}";
},
{
name = top_ring;
position = "{343, 715}";
}
);
layerId = "D65C9A1E-0FCA-4B2D-8EDF-9F36CA9182A1";
leftMetricsKey = "=H*.2";
paths = (
{
closed = 1;
nodes = (
"45 0 LINE",
"342 711 LINE",
"344 711 LINE",
"641 0 LINE",
"663 0 LINE",
"357 730 LINE",
"329 730 LINE",
"23 0 LINE"
);
},
{
closed = 1;
nodes = (
"553 237 LINE",
"553 257 LINE",
"133 257 LINE",
"133 237 LINE"
);
}
);
width = 686;
},
{
anchors = (
{
name = bottom;
position = "{354, 0}";
},
{
name = ogonek;
position = "{694, 0}";
},
{
name = top;
position = "{354, 730}";
},
{
name = top_ring;
position = "{355, 690}";
}
);
layerId = "9527F797-22C1-480E-A1FE-2CDBEBE1FD4C";
paths = (
{
closed = 1;
nodes = (
"135 0 LINE",
"353 636 LINE",
"355 636 LINE",
"573 0 LINE",
"694 0 LINE",
"429 730 LINE",
"280 730 LINE",
"14 0 LINE"
);
},
{
closed = 1;
nodes = (
"557 183 LINE",
"557 283 LINE",
"152 283 LINE",
"152 183 LINE"
);
}
);
width = 708;
},
{
anchors = (
{
name = bottom;
position = "{367, 0}";
},
{
name = ogonek;
position = "{727, 0}";
},
{
name = top;
position = "{367, 730}";
},
{
name = top_ring;
position = "{368, 665}";
}
);
layerId = "9E6B41AB-2970-4C41-8B35-4DBE0D296A43";
leftMetricsKey = "=H*.1";
paths = (
{
closed = 1;
nodes = (
"227 0 LINE",
"366 560 LINE",
"368 560 LINE",
"507 0 LINE",
"727 0 LINE",
"502 730 LINE",
"232 730 LINE",
"7 0 LINE"
);
},
{
closed = 1;
nodes = (
"562 135 LINE",
"562 300 LINE",
"172 300 LINE",
"172 135 LINE"
);
}
);
width = 734;
}
);
leftKerningGroup = A;
leftMetricsKey = "=H*.15";
rightKerningGroup = A;
rightMetricsKey = "=|";
unicode = 0041;
},
{
color = 11;
glyphname = AE;
lastChange = "2021-01-27 09:34:16 +0000";
layers = (
{
anchors = (
{
name = bottom;
position = "{492, 0}";
},
{
name = top;
position = "{492, 730}";
}
);
layerId = "D65C9A1E-0FCA-4B2D-8EDF-9F36CA9182A1";
paths = (
{
closed = 1;
nodes = (
"46 0 LINE",
"461 710 LINE",
"473 710 LINE",
"473 0 LINE",
"833 0 LINE",
"833 20 LINE",
"493 20 LINE",
"493 380 LINE",
"810 380 LINE",
"810 400 LINE",
"493 400 LINE",
"493 710 LINE",
"833 710 LINE",
"833 730 LINE",
"450 730 LINE",
"23 0 LINE"
);
},
{
closed = 1;
nodes = (
"483 237 LINE",
"483 257 LINE",
"179 257 LINE",
"179 237 LINE"
);
}
);
width = 919;
},
{
anchors = (
{
name = bottom;
position = "{485, 0}";
},
{
name = top;
position = "{485, 730}";
}
);
layerId = "9527F797-22C1-480E-A1FE-2CDBEBE1FD4C";
paths = (
{
closed = 1;
nodes = (
"136 0 LINE",
"418 640 LINE",
"439 640 LINE",
"439 0 LINE",
"844 0 LINE",
"844 98 LINE",
"549 98 LINE",
"549 334 LINE",
"823 334 LINE",
"823 430 LINE",
"549 430 LINE",
"549 632 LINE",
"844 632 LINE",
"844 730 LINE",
"348 730 LINE",
"14 0 LINE"
);
},
{
closed = 1;
nodes = (
"499 183 LINE",
"499 283 LINE",
"170 283 LINE",
"170 183 LINE"
);
}
);
width = 920;
},
{
anchors = (
{
name = bottom;
position = "{480, 0}";
},
{
name = top;
position = "{480, 730}";
}
);
layerId = "9E6B41AB-2970-4C41-8B35-4DBE0D296A43";
paths = (
{
closed = 1;
nodes = (
"227 0 LINE",
"377 570 LINE",
"407 570 LINE",
"407 0 LINE",
"857 0 LINE",
"857 160 LINE",
"607 160 LINE",
"607 298 LINE",
"837 298 LINE",
"837 452 LINE",
"607 452 LINE",
"607 570 LINE",
"857 570 LINE",
"857 730 LINE",
"247 730 LINE",
"7 0 LINE"
);
},
{
closed = 1;
nodes = (
"517 135 LINE",
"517 300 LINE",
"162 300 LINE",
"162 135 LINE"
);
}
);
width = 921;
}
);
leftKerningGroup = A;
leftMetricsKey = "=A";
rightKerningGroup = E;
rightMetricsKey = "=E";
unicode = 00C6;
},
{
color = 10;
glyphname = B;
lastChange = "2021-01-27 09:34:15 +0000";
layers = (
{
layerId = "9527F797-22C1-480E-A1FE-2CDBEBE1FD4C";
rightMetricsKey = "=|*.45";
paths = (
{
closed = 1;
nodes = (
"335 0 LINE SMOOTH",
"543 0 OFFCURVE",
"645 67 OFFCURVE",
"645 205 CURVE SMOOTH",
"645 308 OFFCURVE",
"588 370 OFFCURVE",
"478 387 CURVE",
"478 389 LINE",
"565 407 OFFCURVE",
"615 466 OFFCURVE",
"615 553 CURVE SMOOTH",
"615 672 OFFCURVE",
"522 730 OFFCURVE",
"330 730 CURVE SMOOTH",
"95 730 LINE",
"95 0 LINE"
);
},
{
closed = 1;
nodes = (
"205 632 LINE",
"335 632 LINE SMOOTH",
"455 632 OFFCURVE",
"505 603 OFFCURVE",
"505 534 CURVE SMOOTH",
"505 463 OFFCURVE",
"452 430 OFFCURVE",
"335 430 CURVE SMOOTH",
"150 430 LINE",
"150 335 LINE",
"335 335 LINE SMOOTH",
"471 335 OFFCURVE",
"533 298 OFFCURVE",
"533 216 CURVE SMOOTH",
"533 134 OFFCURVE",
"472 98 OFFCURVE",
"335 98 CURVE SMOOTH",
"205 98 LINE"
);
}
);
width = 688;
},
{
layerId = "9E6B41AB-2970-4C41-8B35-4DBE0D296A43";
rightMetricsKey = "=|*.5";
paths = (
{
closed = 1;
nodes = (
"345 0 LINE SMOOTH",
"553 0 OFFCURVE",
"665 73 OFFCURVE",
"665 210 CURVE SMOOTH",
"665 310 OFFCURVE",
"606 370 OFFCURVE",
"495 384 CURVE",
"495 386 LINE",
"589 400 OFFCURVE",
"645 461 OFFCURVE",
"645 550 CURVE SMOOTH",
"645 668 OFFCURVE",
"538 730 OFFCURVE",
"335 730 CURVE SMOOTH",
"75 730 LINE",
"75 0 LINE"
);
},
{
closed = 1;
nodes = (
"275 575 LINE",
"345 575 LINE SMOOTH",
"418 575 OFFCURVE",
"445 558 OFFCURVE",
"445 512 CURVE SMOOTH",
"445 466 OFFCURVE",
"419 450 OFFCURVE",
"345 450 CURVE SMOOTH",
"175 450 LINE",
"175 300 LINE",
"345 300 LINE SMOOTH",
"425 300 OFFCURVE",
"460 278 OFFCURVE",
"460 228 CURVE SMOOTH",
"460 178 OFFCURVE",
"424 155 OFFCURVE",
"345 155 CURVE SMOOTH",
"275 155 LINE"
);
}
);
width = 703;
},
{
layerId = "D65C9A1E-0FCA-4B2D-8EDF-9F36CA9182A1";
rightMetricsKey = "=|*.4";
paths = (
{
closed = 1;
nodes = (
"325 0 LINE SMOOTH",
"529 0 OFFCURVE",
"625 63 OFFCURVE",
"625 200 CURVE SMOOTH",
"625 308 OFFCURVE",
"566 369 OFFCURVE",
"441 390 CURVE",
"441 392 LINE",
"537 414 OFFCURVE",
"585 467 OFFCURVE",
"585 555 CURVE SMOOTH",
"585 673 OFFCURVE",
"498 730 OFFCURVE",
"325 730 CURVE SMOOTH",
"115 730 LINE",
"115 0 LINE"
);
},
{
closed = 1;
nodes = (
"135 710 LINE",
"325 710 LINE SMOOTH",
"488 710 OFFCURVE",
"565 660 OFFCURVE",
"565 555 CURVE SMOOTH",
"565 450 OFFCURVE",
"488 400 OFFCURVE",
"325 400 CURVE SMOOTH",
"125 400 LINE",
"125 380 LINE",
"325 380 LINE SMOOTH",
"518 380 OFFCURVE",
"605 324 OFFCURVE",
"605 200 CURVE SMOOTH",
"605 76 OFFCURVE",
"518 20 OFFCURVE",
"325 20 CURVE SMOOTH",
"135 20 LINE"
);
}
);
width = 671;
}
);
leftKerningGroup = H;
leftMetricsKey = "=H";
rightKerningGroup = B;
rightMetricsKey = "=|*.5";
unicode = 0042;
},
{
color = 10;
glyphname = C;
lastChange = "2021-01-27 09:34:16 +0000";
layers = (
{
anchors = (
{
name = bottom;
position = "{415, 0}";
},
{
name = cedi;
position = "{331, 0}";
},
{
name = top;
position = "{415, 730}";
}
);
layerId = "D65C9A1E-0FCA-4B2D-8EDF-9F36CA9182A1";
paths = (
{
closed = 1;
nodes = (
"512 -10 OFFCURVE",
"590 12 OFFCURVE",
"657 55 CURVE",
"646 72 LINE",
"582 31 OFFCURVE",
"508 10 OFFCURVE",
"426 10 CURVE SMOOTH",
"214 10 OFFCURVE",
"77 150 OFFCURVE",
"77 365 CURVE SMOOTH",
"77 580 OFFCURVE",
"214 720 OFFCURVE",
"426 720 CURVE SMOOTH",
"508 720 OFFCURVE",
"582 699 OFFCURVE",
"646 658 CURVE",
"657 675 LINE",
"590 718 OFFCURVE",
"512 740 OFFCURVE",
"426 740 CURVE SMOOTH",
"203 740 OFFCURVE",
"57 591 OFFCURVE",
"57 365 CURVE SMOOTH",
"57 139 OFFCURVE",
"203 -10 OFFCURVE",
"426 -10 CURVE SMOOTH"
);
}
);
width = 726;
},
{
anchors = (
{
name = bottom;
position = "{409, 0}";
},
{
name = cedi;
position = "{324, 0}";
},
{
name = top;
position = "{409, 730}";
}
);
layerId = "9527F797-22C1-480E-A1FE-2CDBEBE1FD4C";
paths = (
{
closed = 1;
nodes = (
"516 -10 OFFCURVE",
"597 10 OFFCURVE",
"667 50 CURVE",
"640 148 LINE",
"570 109 OFFCURVE",
"502 90 OFFCURVE",
"431 90 CURVE SMOOTH",
"264 90 OFFCURVE",
"161 194 OFFCURVE",
"161 365 CURVE SMOOTH",
"161 536 OFFCURVE",
"264 640 OFFCURVE",
"431 640 CURVE SMOOTH",
"503 640 OFFCURVE",
"572 621 OFFCURVE",
"640 582 CURVE",
"667 680 LINE",
"597 720 OFFCURVE",
"516 740 OFFCURVE",
"427 740 CURVE SMOOTH",
"190 740 OFFCURVE",
"47 599 OFFCURVE",
"47 365 CURVE SMOOTH",
"47 131 OFFCURVE",
"190 -10 OFFCURVE",
"427 -10 CURVE SMOOTH"
);
}
);
width = 724;
},
{
anchors = (
{
name = bottom;
position = "{404, 0}";
},
{
name = cedi;
position = "{319, 0}";
},
{
name = top;
position = "{404, 730}";
}
);
layerId = "9E6B41AB-2970-4C41-8B35-4DBE0D296A43";
paths = (
{
closed = 1;
nodes = (
"522 -10 OFFCURVE",
"605 8 OFFCURVE",
"678 46 CURVE",
"635 216 LINE",
"563 178 OFFCURVE",
"497 160 OFFCURVE",
"437 160 CURVE SMOOTH",
"315 160 OFFCURVE",
"246 234 OFFCURVE",
"246 365 CURVE SMOOTH",
"246 496 OFFCURVE",
"315 570 OFFCURVE",
"437 570 CURVE SMOOTH",
"497 570 OFFCURVE",
"563 552 OFFCURVE",
"635 514 CURVE",
"678 684 LINE",
"605 722 OFFCURVE",
"522 740 OFFCURVE",
"429 740 CURVE SMOOTH",
"178 740 OFFCURVE",
"38 606 OFFCURVE",
"38 365 CURVE SMOOTH",
"38 124 OFFCURVE",
"178 -10 OFFCURVE",
"429 -10 CURVE SMOOTH"
);
}
);
width = 723;
}
);
leftKerningGroup = O;
leftMetricsKey = "=O";
rightKerningGroup = C;
rightMetricsKey = "=H*.6";
unicode = 0043;
},
{
color = 10;
glyphname = D;
lastChange = "2021-01-27 09:34:16 +0000";
layers = (
{
anchors = (
{
name = bottom;
position = "{371, 0}";
},
{
name = center;
position = "{371, 365}";
},
{
name = top;
position = "{371, 730}";
}
);
layerId = "D65C9A1E-0FCA-4B2D-8EDF-9F36CA9182A1";
paths = (
{
closed = 1;
nodes = (
"285 0 LINE SMOOTH",
"540 0 OFFCURVE",
"675 126 OFFCURVE",
"675 365 CURVE SMOOTH",
"675 604 OFFCURVE",
"540 730 OFFCURVE",
"285 730 CURVE SMOOTH",
"115 730 LINE",
"115 0 LINE"
);
},
{
closed = 1;
nodes = (
"135 710 LINE",
"285 710 LINE SMOOTH",
"530 710 OFFCURVE",
"655 592 OFFCURVE",
"655 365 CURVE SMOOTH",
"655 138 OFFCURVE",
"530 20 OFFCURVE",
"285 20 CURVE SMOOTH",
"135 20 LINE"
);
}
);
width = 732;
},
{
anchors = (
{
name = bottom;
position = "{370, 0}";
},
{
name = center;
position = "{370, 365}";
},
{
name = top;
position = "{370, 730}";
}
);
background = {
anchors = (
{
name = bottom;
position = "{358, 0}";
},
{
name = center;
position = "{358, 365}";
},
{
name = top;
position = "{358, 730}";
}
);
paths = (
{
closed = 1;
nodes = (
"290 0 LINE SMOOTH",
"541 0 OFFCURVE",
"660 117 OFFCURVE",
"660 365 CURVE SMOOTH",
"660 613 OFFCURVE",
"541 730 OFFCURVE",
"290 730 CURVE SMOOTH",
"95 730 LINE",
"95 0 LINE"
);
},
{
closed = 1;
nodes = (
"205 630 LINE",
"297 630 LINE SMOOTH",
"474 630 OFFCURVE",
"548 552 OFFCURVE",
"548 365 CURVE SMOOTH",
"548 178 OFFCURVE",
"474 100 OFFCURVE",
"297 100 CURVE SMOOTH",
"205 100 LINE"
);
}
);
};
layerId = "9527F797-22C1-480E-A1FE-2CDBEBE1FD4C";
paths = (
{
closed = 1;
nodes = (
"305 0 LINE SMOOTH",
"562 0 OFFCURVE",
"685 118 OFFCURVE",
"685 365 CURVE SMOOTH",
"685 612 OFFCURVE",
"562 730 OFFCURVE",
"305 730 CURVE SMOOTH",
"95 730 LINE",
"95 0 LINE"
);
},
{
closed = 1;
nodes = (
"205 630 LINE",
"312 630 LINE SMOOTH",
"494 630 OFFCURVE",
"573 550 OFFCURVE",
"573 365 CURVE SMOOTH",
"573 180 OFFCURVE",
"494 100 OFFCURVE",
"312 100 CURVE SMOOTH",
"205 100 LINE"
);
}
);
width = 732;
},
{
anchors = (
{
name = bottom;
position = "{369, 0}";
},
{
name = center;
position = "{369, 365}";
},
{
name = top;
position = "{369, 730}";
}
);
layerId = "9E6B41AB-2970-4C41-8B35-4DBE0D296A43";
paths = (
{
closed = 1;
nodes = (
"325 0 LINE SMOOTH",
"584 0 OFFCURVE",
"695 109 OFFCURVE",
"695 365 CURVE SMOOTH",
"695 621 OFFCURVE",
"584 730 OFFCURVE",
"325 730 CURVE",
"75 730 LINE",
"75 0 LINE"
);
},
{
closed = 1;
nodes = (
"275 570 LINE",
"338 570 LINE SMOOTH",
"456 570 OFFCURVE",
"490 524 OFFCURVE",
"490 365 CURVE SMOOTH",
"490 206 OFFCURVE",
"456 160 OFFCURVE",
"338 160 CURVE SMOOTH",
"275 160 LINE"
);
}
);
width = 733;
}
);
leftKerningGroup = H;
leftMetricsKey = "=H";
rightKerningGroup = O;
rightMetricsKey = "=O";
unicode = 0044;
},
{
color = 11;
glyphname = Eth;
lastChange = "2021-01-27 09:34:16 +0000";
layers = (
{
anchors = (
{
name = bottom;
position = "{388, 0}";
},
{
name = center;
position = "{388, 365}";
},
{
name = top;
position = "{388, 730}";
}
);
components = (
{
name = D;
transform = "{1, 0, 0, 1, 52, 0}";
}
);
layerId = "D65C9A1E-0FCA-4B2D-8EDF-9F36CA9182A1";
paths = (
{
closed = 1;
nodes = (
"447 355 LINE",
"447 375 LINE",
"37 375 LINE",
"37 355 LINE"
);
}
);
width = 784;
},
{
anchors = (
{
name = bottom;
position = "{402, 0}";
},
{
name = center;
position = "{402, 365}";
},
{
name = top;
position = "{402, 730}";
}
);
components = (
{
alignment = -1;
name = D;
transform = "{1, 0, 0, 1, 59, 0}";
}
);
layerId = "9527F797-22C1-480E-A1FE-2CDBEBE1FD4C";
paths = (
{
closed = 1;
nodes = (
"449 320 LINE",
"449 410 LINE",
"31 410 LINE",
"31 320 LINE"
);
}
);
width = 791;
},
{
anchors = (
{
name = bottom;
position = "{413, 0}";
},
{
name = center;
position = "{413, 365}";
},
{
name = top;
position = "{413, 730}";
}
);
components = (
{
name = D;
transform = "{1, 0, 0, 1, 64, 0}";
}
);
layerId = "9E6B41AB-2970-4C41-8B35-4DBE0D296A43";
paths = (
{
closed = 1;
nodes = (
"450 295 LINE",
"450 435 LINE",
"24 435 LINE",
"24 295 LINE"
);
}
);
width = 797;
}
);
leftKerningGroup = f;
leftMetricsKey = "=f*1.2";
rightKerningGroup = O;
rightMetricsKey = "=O";
unicode = 00D0;
},
{
color = 10;
glyphname = E;
lastChange = "2021-01-27 09:34:15 +0000";
layers = (
{
anchors = (
{
name = bottom;
position = "{340, 0}";
},
{
name = ogonek;
position = "{565, 0}";
},
{
name = top;
position = "{340, 730}";
},
{
name = topleft;
position = "{3, 730}";
}
);
layerId = "D65C9A1E-0FCA-4B2D-8EDF-9F36CA9182A1";
rightMetricsKey = "=H*.75";
paths = (
{
closed = 1;
nodes = (
"565 0 LINE",
"565 20 LINE",
"135 20 LINE",
"135 380 LINE",
"545 380 LINE",
"545 400 LINE",
"135 400 LINE",
"135 710 LINE",
"565 710 LINE",
"565 730 LINE",
"115 730 LINE",
"115 0 LINE"
);
}
);
width = 651;
},
{
anchors = (
{
name = bottom;
position = "{335, 0}";
},
{
name = ogonek;
position = "{575, 0}";
},
{
name = top;
position = "{335, 730}";
},
{
name = topleft;
position = "{9, 730}";
}
);
layerId = "9527F797-22C1-480E-A1FE-2CDBEBE1FD4C";
rightMetricsKey = "=H*.8";
paths = (
{
closed = 1;
nodes = (
"575 0 LINE",
"575 98 LINE",
"205 98 LINE",
"205 334 LINE",
"555 334 LINE",
"555 430 LINE",
"205 430 LINE",
"205 632 LINE",
"575 632 LINE",
"575 730 LINE",
"95 730 LINE",
"95 0 LINE"
);
}
);
width = 651;
},
{
anchors = (
{
name = bottom;
position = "{330, 0}";
},
{
name = ogonek;
position = "{585, 0}";
},
{
name = top;
position = "{330, 730}";
},
{
name = topleft;
position = "{15, 730}";
}
);
layerId = "9E6B41AB-2970-4C41-8B35-4DBE0D296A43";
rightMetricsKey = "=H*.85";
paths = (
{
closed = 1;
nodes = (
"585 0 LINE",
"585 160 LINE",
"275 160 LINE",
"275 298 LINE",
"565 298 LINE",
"565 452 LINE",
"275 452 LINE",
"275 570 LINE",
"585 570 LINE",
"585 730 LINE",
"75 730 LINE",
"75 0 LINE"
);
}
);
width = 649;
}
);
leftKerningGroup = H;
leftMetricsKey = "=H";
rightKerningGroup = E;
rightMetricsKey = "=H*.85";
unicode = 0045;
},
{
color = 10;
glyphname = F;
lastChange = "2021-01-27 09:34:15 +0000";
layers = (
{
layerId = "D65C9A1E-0FCA-4B2D-8EDF-9F36CA9182A1";
rightMetricsKey = "=H*.55";
paths = (
{
closed = 1;
nodes = (
"135 0 LINE",
"135 355 LINE",
"555 355 LINE",
"555 375 LINE",
"135 375 LINE",
"135 710 LINE",
"575 710 LINE",
"575 730 LINE",
"115 730 LINE",
"115 0 LINE"
);
}
);
width = 638;
},
{
layerId = "9527F797-22C1-480E-A1FE-2CDBEBE1FD4C";
rightMetricsKey = "=H*.65";
paths = (
{
closed = 1;
nodes = (
"205 0 LINE",
"205 309 LINE",
"565 309 LINE",
"565 407 LINE",
"205 407 LINE",
"205 630 LINE",
"585 630 LINE",
"585 730 LINE",
"95 730 LINE",
"95 0 LINE"
);
}
);
width = 647;
},
{
layerId = "9E6B41AB-2970-4C41-8B35-4DBE0D296A43";
rightMetricsKey = "=H*.75";
paths = (
{
closed = 1;
nodes = (
"275 0 LINE",
"275 270 LINE",
"575 270 LINE",
"575 430 LINE",
"275 430 LINE",
"275 565 LINE",
"595 565 LINE",
"595 730 LINE",
"75 730 LINE",
"75 0 LINE"
);
}
);
width = 651;
}
);
leftKerningGroup = H;
leftMetricsKey = "=H";
rightKerningGroup = F;
rightMetricsKey = "=H*.75";
unicode = 0046;
},
{
color = 10;
glyphname = G;
lastChange = "2021-01-27 09:34:16 +0000";
layers = (
{
anchors = (
{
name = bottom;
position = "{435, 0}";
},
{
name = top;
position = "{435, 730}";
}
);
layerId = "D65C9A1E-0FCA-4B2D-8EDF-9F36CA9182A1";
paths = (
{
closed = 1;
nodes = (
"556 -10 OFFCURVE",
"664 11 OFFCURVE",
"737 44 CURVE",
"737 400 LINE",
"357 400 LINE",
"357 380 LINE",
"717 380 LINE",
"717 45 LINE",
"729 62 LINE",
"658 30 OFFCURVE",
"553 10 OFFCURVE",
"459 10 CURVE SMOOTH",
"219 10 OFFCURVE",
"77 142 OFFCURVE",
"77 365 CURVE SMOOTH",
"77 582 OFFCURVE",
"225 720 OFFCURVE",
"459 720 CURVE SMOOTH",
"548 720 OFFCURVE",
"634 700 OFFCURVE",
"699 663 CURVE",
"709 680 LINE",
"642 718 OFFCURVE",
"553 740 OFFCURVE",
"459 740 CURVE SMOOTH",
"220 740 OFFCURVE",
"57 599 OFFCURVE",
"57 365 CURVE SMOOTH",
"57 131 OFFCURVE",
"208 -10 OFFCURVE",
"459 -10 CURVE SMOOTH"
);
}
);
width = 835;
},
{
anchors = (
{
name = bottom;
position = "{430, 0}";
},
{
name = top;
position = "{430, 730}";
}
);
layerId = "9527F797-22C1-480E-A1FE-2CDBEBE1FD4C";
paths = (
{
closed = 1;
nodes = (
"563 -10 OFFCURVE",
"671 11 OFFCURVE",
"747 47 CURVE",
"747 426 LINE",
"362 426 LINE",
"362 332 LINE",
"637 332 LINE",
"637 88 LINE",
"654 127 LINE",
"601 103 OFFCURVE",
"532 90 OFFCURVE",
"462 90 CURVE SMOOTH",
"270 90 OFFCURVE",
"160 190 OFFCURVE",
"160 365 CURVE SMOOTH",
"160 538 OFFCURVE",
"270 640 OFFCURVE",
"456 640 CURVE SMOOTH",
"537 640 OFFCURVE",
"620 621 OFFCURVE",
"683 587 CURVE",
"709 682 LINE",
"641 720 OFFCURVE",
"552 740 OFFCURVE",
"456 740 CURVE SMOOTH",
"202 740 OFFCURVE",
"47 598 OFFCURVE",
"47 365 CURVE SMOOTH",
"47 131 OFFCURVE",
"203 -10 OFFCURVE",
"462 -10 CURVE SMOOTH"
);
}
);
width = 828;
},
{
anchors = (
{
name = bottom;
position = "{427, 0}";
},
{
name = top;
position = "{427, 730}";
}
);
layerId = "9E6B41AB-2970-4C41-8B35-4DBE0D296A43";
paths = (
{
closed = 1;
nodes = (
"574 -10 OFFCURVE",
"681 12 OFFCURVE",
"758 50 CURVE",
"758 452 LINE",
"368 452 LINE",
"368 287 LINE",
"558 287 LINE",
"558 131 LINE",
"581 177 LINE",
"543 161 OFFCURVE",
"510 155 OFFCURVE",
"466 155 CURVE SMOOTH",
"318 155 OFFCURVE",
"243 225 OFFCURVE",
"243 365 CURVE SMOOTH",
"243 503 OFFCURVE",
"316 575 OFFCURVE",
"455 575 CURVE SMOOTH",
"528 575 OFFCURVE",
"609 556 OFFCURVE",
"669 524 CURVE",
"711 684 LINE",
"644 720 OFFCURVE",
"553 740 OFFCURVE",
"455 740 CURVE SMOOTH",
"193 740 OFFCURVE",
"38 601 OFFCURVE",
"38 365 CURVE SMOOTH",
"38 129 OFFCURVE",
"196 -10 OFFCURVE",
"466 -10 CURVE SMOOTH"
);
}
);
width = 822;
}
);
leftKerningGroup = O;
leftMetricsKey = "=O";
rightKerningGroup = G;
rightMetricsKey = "=H*.85";
unicode = 0047;
},
{
color = 10;
glyphname = H;
lastChange = "2021-01-27 09:33:38 +0000";
layers = (
{
anchors = (
{
name = bottom;
position = "{380, 0}";
},
{
name = center;
position = "{380, 365}";
},
{
name = top;
position = "{380, 730}";
},
{
name = topleft;
position = "{30, 730}";
}
);
layerId = "D65C9A1E-0FCA-4B2D-8EDF-9F36CA9182A1";
paths = (
{
closed = 1;
nodes = (
"645 0 LINE",
"645 730 LINE",
"625 730 LINE",
"625 0 LINE"
);
},
{
closed = 1;
nodes = (
"135 0 LINE",
"135 730 LINE",
"115 730 LINE",
"115 0 LINE"
);
},
{
closed = 1;
nodes = (
"635 380 LINE",
"635 400 LINE",
"125 400 LINE",
"125 380 LINE"
);
}
);
width = 760;
},
{
anchors = (
{
name = bottom;
position = "{380, 0}";
},
{
name = center;
position = "{380, 365}";
},
{
name = top;
position = "{380, 730}";
},
{
name = topleft;
position = "{25, 730}";
}
);
layerId = "9527F797-22C1-480E-A1FE-2CDBEBE1FD4C";
paths = (
{
closed = 1;
nodes = (
"665 0 LINE",
"665 730 LINE",
"555 730 LINE",
"555 0 LINE"
);
},
{
closed = 1;
nodes = (
"205 0 LINE",
"205 730 LINE",
"95 730 LINE",
"95 0 LINE"
);
},
{
closed = 1;
nodes = (
"610 332 LINE",
"610 432 LINE",
"150 432 LINE",
"150 332 LINE"
);
}
);
width = 760;
},
{
anchors = (
{
name = bottom;
position = "{380, 0}";
},
{
name = center;
position = "{380, 365}";
},
{
name = top;
position = "{380, 730}";
},
{
name = topleft;
position = "{20, 730}";
}
);
layerId = "9E6B41AB-2970-4C41-8B35-4DBE0D296A43";
paths = (
{
closed = 1;
nodes = (
"685 0 LINE",
"685 730 LINE",
"485 730 LINE",
"485 0 LINE"
);
},
{
closed = 1;
nodes = (
"275 0 LINE",
"275 730 LINE",
"75 730 LINE",
"75 0 LINE"
);
},
{
closed = 1;
nodes = (
"585 290 LINE",
"585 460 LINE",
"175 460 LINE",
"175 290 LINE"
);
}
);
width = 760;
}
);
leftKerningGroup = H;
rightKerningGroup = H;
rightMetricsKey = "=|";
unicode = 0048;
},
{
color = 11;
glyphname = Hbar;
lastChange = "2021-01-27 09:34:16 +0000";
layers = (
{
components = (
{
name = H;
transform = "{1, 0, 0, 1, 37, 0}";
}
);
layerId = "D65C9A1E-0FCA-4B2D-8EDF-9F36CA9182A1";
paths = (
{
closed = 1;
nodes = (
"777 586 LINE",
"777 606 LINE",
"37 606 LINE",
"37 586 LINE"
);
}
);
width = 814;
},
{
components = (
{
alignment = -1;
name = H;
transform = "{1, 0, 0, 1, 44, 0}";
}
);
layerId = "9527F797-22C1-480E-A1FE-2CDBEBE1FD4C";
paths = (
{
closed = 1;
nodes = (
"806 551 LINE",
"806 641 LINE",
"32 641 LINE",
"32 551 LINE"
);
}
);
width = 838;
},
{
components = (
{
name = H;
transform = "{1, 0, 0, 1, 53, 0}";
}
);
layerId = "9E6B41AB-2970-4C41-8B35-4DBE0D296A43";
paths = (
{
closed = 1;
nodes = (
"838 526 LINE",
"838 666 LINE",
"28 666 LINE",
"28 526 LINE"
);
}
);
width = 866;
}
);
leftKerningGroup = W;
leftMetricsKey = "=W";
rightKerningGroup = W;
rightMetricsKey = "=|";
unicode = 0126;
},
{
color = 10;
glyphname = I;
lastChange = "2021-01-27 09:34:16 +0000";
layers = (
{
anchors = (
{
name = bottom;
position = "{137, 0}";
},
{
name = ogonek;
position = "{147, 0}";
},
{
name = top;
position = "{137, 730}";
},
{
name = topleft;
position = "{42, 730}";
}
);
layerId = "D65C9A1E-0FCA-4B2D-8EDF-9F36CA9182A1";
paths = (
{
closed = 1;
nodes = (
"147 0 LINE",
"147 730 LINE",
"127 730 LINE",
"127 0 LINE"
);
}
);
width = 274;
},
{
anchors = (
{
name = bottom;
position = "{162, 0}";
},
{
name = ogonek;
position = "{219, 0}";
},
{
name = top;
position = "{162, 730}";
},
{
name = topleft;
position = "{37, 730}";
}
);
layerId = "9527F797-22C1-480E-A1FE-2CDBEBE1FD4C";
paths = (
{
closed = 1;
nodes = (
"219 0 LINE",
"219 730 LINE",
"105 730 LINE",
"105 0 LINE"
);
}
);
width = 324;
},
{
anchors = (
{
name = bottom;
position = "{188, 0}";
},
{
name = ogonek;
position = "{293, 0}";
},
{
name = top;
position = "{188, 730}";
},
{
name = topleft;
position = "{31, 730}";
}
);
layerId = "9E6B41AB-2970-4C41-8B35-4DBE0D296A43";
paths = (
{
closed = 1;
nodes = (
"293 0 LINE",
"293 730 LINE",
"83 730 LINE",
"83 0 LINE"
);
}
);
width = 376;
}
);
leftKerningGroup = I;
leftMetricsKey = "=H*1.1";
rightKerningGroup = I;
rightMetricsKey = "=|";
unicode = 0049;
},
{
color = 10;
glyphname = J;
lastChange = "2021-02-11 09:43:44 +0000";
layers = (
{
anchors = (
{
name = bottom;
position = "{292, 0}";
},
{
name = top;
position = "{292, 730}";
}
);
layerId = "9527F797-22C1-480E-A1FE-2CDBEBE1FD4C";
leftMetricsKey = "=H*.1";
paths = (
{
closed = 1;
nodes = (
"405 -10 OFFCURVE",
"500 81 OFFCURVE",
"500 250 CURVE SMOOTH",
"500 730 LINE",
"387 730 LINE",
"387 275 LINE SMOOTH",
"387 151 OFFCURVE",
"333 90 OFFCURVE",
"223 90 CURVE SMOOTH",
"157 90 OFFCURVE",
"92 112 OFFCURVE",
"30 155 CURVE",
"10 50 LINE",
"80 9 OFFCURVE",
"151 -10 OFFCURVE",
"231 -10 CURVE SMOOTH"
);
}
);
width = 586;
},
{
anchors = (
{
name = bottom;
position = "{290, 0}";
},
{
name = top;
position = "{290, 730}";
}
);
layerId = "D65C9A1E-0FCA-4B2D-8EDF-9F36CA9182A1";
leftMetricsKey = "=H*.15";
paths = (
{
closed = 1;
nodes = (
"392 -10 OFFCURVE",
"477 76 OFFCURVE",
"477 240 CURVE SMOOTH",
"477 730 LINE",
"457 730 LINE",
"457 240 LINE SMOOTH",
"457 87 OFFCURVE",
"381 10 OFFCURVE",
"231 10 CURVE SMOOTH",
"152 10 OFFCURVE",
"87 31 OFFCURVE",
"29 76 CURVE",
"17 60 LINE",
"78 13 OFFCURVE",
"148 -10 OFFCURVE",
"231 -10 CURVE SMOOTH"
);
}
);
width = 580;
},
{
anchors = (
{
name = bottom;
position = "{296, 0}";
},
{
name = top;
position = "{296, 730}";
}
);
layerId = "9E6B41AB-2970-4C41-8B35-4DBE0D296A43";
leftMetricsKey = "=H*.05";
paths = (
{
closed = 1;
nodes = (
"421 -10 OFFCURVE",
"524 85 OFFCURVE",
"524 260 CURVE SMOOTH",
"524 730 LINE",
"319 730 LINE",
"319 310 LINE SMOOTH",
"319 207 OFFCURVE",
"289 165 OFFCURVE",
"216 165 CURVE SMOOTH",
"165 165 OFFCURVE",
"93 186 OFFCURVE",
"29 219 CURVE",
"4 39 LINE",
"82 6 OFFCURVE",
"155 -10 OFFCURVE",
"232 -10 CURVE SMOOTH"
);
}
);
width = 592;
}
);
leftKerningGroup = J;
leftMetricsKey = "=H*.05";
rightKerningGroup = U;
rightMetricsKey = "=U";
unicode = 004A;
},
{
color = 10;
glyphname = K;
lastChange = "2021-01-27 09:34:15 +0000";
layers = (
{
anchors = (
{
name = bottom;
position = "{330, 0}";
},
{
name = top;
position = "{330, 730}";
}
);
layerId = "D65C9A1E-0FCA-4B2D-8EDF-9F36CA9182A1";
rightMetricsKey = "=H*.3";
paths = (
{
closed = 1;
nodes = (
"135 0 LINE",
"135 376 LINE",
"137 376 LINE",
"623 0 LINE",
"655 0 LINE",
"151 390 LINE",
"645 730 LINE",
"611 730 LINE",
"137 404 LINE",
"135 404 LINE",
"135 730 LINE",
"115 730 LINE",
"115 0 LINE"
);
}
);
width = 690;
},
{
anchors = (
{
name = bottom;
position = "{348, 0}";
},
{
name = top;
position = "{348, 730}";
}
);
layerId = "9527F797-22C1-480E-A1FE-2CDBEBE1FD4C";
rightMetricsKey = "=H*.25";
paths = (
{
closed = 1;
nodes = (
"205 0 LINE",
"205 351 LINE",
"207 351 LINE",
"555 0 LINE",
"695 0 LINE",
"316 382 LINE",
"685 730 LINE",
"545 730 LINE",
"207 413 LINE",
"205 413 LINE",
"205 730 LINE",
"95 730 LINE",
"95 0 LINE"
);
}
);
width = 719;
},
{
anchors = (
{
name = bottom;
position = "{365, 0}";
},
{
name = top;
position = "{365, 730}";
}
);
layerId = "9E6B41AB-2970-4C41-8B35-4DBE0D296A43";
rightMetricsKey = "=H*.2";
paths = (
{
closed = 1;
nodes = (
"275 0 LINE",
"275 335 LINE",
"277 335 LINE",
"505 0 LINE",
"735 0 LINE",
"480 375 LINE",
"725 730 LINE",
"495 730 LINE",
"277 415 LINE",
"275 415 LINE",
"275 730 LINE",
"75 730 LINE",
"75 0 LINE"
);
}
);
width = 750;
}
);
leftKerningGroup = H;
leftMetricsKey = "=H";
rightKerningGroup = K;
rightMetricsKey = "=H*.2";
unicode = 004B;
},
{
color = 10;
glyphname = L;
lastChange = "2021-01-27 09:34:15 +0000";
layers = (
{
anchors = (
{
name = bottom;
position = "{322, 0}";
},
{
name = center;
position = "{322, 375}";
},
{
name = pdcenter;
position = "{525, 375}";
},
{
name = top;
position = "{322, 730}";
},
{
name = topright;
position = "{593, 730}";
}
);
layerId = "D65C9A1E-0FCA-4B2D-8EDF-9F36CA9182A1";
rightMetricsKey = "=H*.5";
paths = (
{
closed = 1;
nodes = (
"575 0 LINE",
"575 20 LINE",
"135 20 LINE",
"135 730 LINE",
"115 730 LINE",
"115 0 LINE"
);
}
);
width = 633;
},
{
anchors = (
{
name = bottom;
position = "{318, 0}";
},
{
name = center;
position = "{318, 375}";
},
{
name = pdcenter;
position = "{565, 375}";
},
{
name = top;
position = "{318, 730}";
},
{
name = topright;
position = "{611, 730}";
}
);
layerId = "9527F797-22C1-480E-A1FE-2CDBEBE1FD4C";
rightMetricsKey = "=H*.45";
paths = (
{
closed = 1;
nodes = (
"585 0 LINE",
"585 100 LINE",
"208 100 LINE",
"208 730 LINE",
"95 730 LINE",
"95 0 LINE"
);
}
);
width = 628;
},
{
anchors = (
{
name = bottom;
position = "{316, 0}";
},
{
name = center;
position = "{316, 375}";
},
{
name = pdcenter;
position = "{605, 375}";
},
{
name = top;
position = "{316, 730}";
},
{
name = topright;
position = "{611, 730}";
}
);
layerId = "9E6B41AB-2970-4C41-8B35-4DBE0D296A43";
rightMetricsKey = "=H*.4";
paths = (
{
closed = 1;
nodes = (
"595 0 LINE",
"595 170 LINE",
"280 170 LINE",
"280 730 LINE",
"75 730 LINE",
"75 0 LINE"
);
}
);
width = 625;
}
);
leftKerningGroup = H;
leftMetricsKey = "=H";
rightKerningGroup = L;
rightMetricsKey = "=H*.4";
unicode = 004C;
},
{
color = 11;
glyphname = Lslash;
lastChange = "2021-01-27 09:34:16 +0000";
layers = (
{
components = (
{
name = L;
transform = "{1, 0, 0, 1, 86, 0}";
}
);
layerId = "D65C9A1E-0FCA-4B2D-8EDF-9F36CA9182A1";
paths = (
{
closed = 1;
nodes = (
"360 431 LINE",
"352 449 LINE",
"22 299 LINE",
"30 281 LINE"
);
}
);
width = 719;
},
{
components = (
{
name = L;
transform = "{1, 0, 0, 1, 91, 0}";
}
);
layerId = "9527F797-22C1-480E-A1FE-2CDBEBE1FD4C";
paths = (
{
closed = 1;
nodes = (
"447 407 LINE",
"411 491 LINE",
"11 323 LINE",
"47 239 LINE"
);
}
);
width = 719;
},
{
components = (
{
name = L;
transform = "{1, 0, 0, 1, 100, 0}";
}
);
layerId = "9E6B41AB-2970-4C41-8B35-4DBE0D296A43";
paths = (
{
closed = 1;
nodes = (
"532 393 LINE",
"477 523 LINE",
"8 337 LINE",
"63 207 LINE"
);
}
);
width = 725;
}
);
leftKerningGroup = t;
leftMetricsKey = "=t*.5";
rightKerningGroup = L;
rightMetricsKey = "=L";
unicode = 0141;
},
{
color = 10;
glyphname = M;
lastChange = "2021-01-27 09:34:15 +0000";
layers = (
{
layerId = "D65C9A1E-0FCA-4B2D-8EDF-9F36CA9182A1";
paths = (
{
closed = 1;
nodes = (
"135 0 LINE",
"135 709 LINE",
"137 709 LINE",
"433 155 LINE",
"457 155 LINE",
"753 709 LINE",
"755 709 LINE",
"755 0 LINE",
"775 0 LINE",
"775 730 LINE",
"744 730 LINE",
"446 174 LINE",
"444 174 LINE",
"146 730 LINE",
"115 730 LINE",
"115 0 LINE"
);
}
);
width = 890;
},
{
layerId = "9527F797-22C1-480E-A1FE-2CDBEBE1FD4C";
paths = (
{
closed = 1;
nodes = (
"205 0 LINE",
"205 555 LINE",
"207 555 LINE",
"398 155 LINE",
"502 155 LINE",
"693 555 LINE",
"695 555 LINE",
"695 0 LINE",
"805 0 LINE",
"805 730 LINE",
"665 730 LINE",
"451 283 LINE",
"449 283 LINE",
"235 730 LINE",
"95 730 LINE",
"95 0 LINE"
);
}
);
width = 900;
},
{
layerId = "9E6B41AB-2970-4C41-8B35-4DBE0D296A43";
paths = (
{
closed = 1;
nodes = (
"275 0 LINE",
"275 420 LINE",
"277 420 LINE",
"365 155 LINE",
"545 155 LINE",
"633 420 LINE",
"635 420 LINE",
"635 0 LINE",
"835 0 LINE",
"835 730 LINE",
"587 730 LINE",
"456 340 LINE",
"454 340 LINE",
"323 730 LINE",
"75 730 LINE",
"75 0 LINE"
);
}
);
width = 910;
}
);
leftKerningGroup = H;
leftMetricsKey = "=H";
rightKerningGroup = H;
rightMetricsKey = "=|";
unicode = 004D;
},
{
color = 10;
glyphname = N;
lastChange = "2021-01-27 09:34:15 +0000";
layers = (
{
anchors = (
{
name = bottom;
position = "{385, 0}";
},
{
name = top;
position = "{385, 730}";
}
);
layerId = "D65C9A1E-0FCA-4B2D-8EDF-9F36CA9182A1";
paths = (
{
closed = 1;
nodes = (
"135 0 LINE",
"135 709 LINE",
"137 709 LINE",
"624 0 LINE",
"655 0 LINE",
"655 730 LINE",
"635 730 LINE",
"635 21 LINE",
"633 21 LINE",
"146 730 LINE",
"115 730 LINE",
"115 0 LINE"
);
}
);
width = 770;
},
{
anchors = (
{
name = bottom;
position = "{385, 0}";
},
{
name = top;
position = "{385, 730}";
}
);
layerId = "9527F797-22C1-480E-A1FE-2CDBEBE1FD4C";
paths = (
{
closed = 1;
nodes = (
"205 0 LINE",
"205 550 LINE",
"207 550 LINE",
"555 0 LINE",
"675 0 LINE",
"675 730 LINE",
"565 730 LINE",
"565 180 LINE",
"563 180 LINE",
"215 730 LINE",
"95 730 LINE",
"95 0 LINE"
);
}
);
width = 770;
},
{
anchors = (
{
name = bottom;
position = "{385, 0}";
},
{
name = top;
position = "{385, 730}";
}
);
layerId = "9E6B41AB-2970-4C41-8B35-4DBE0D296A43";
paths = (
{
closed = 1;
nodes = (
"275 0 LINE",
"275 390 LINE",
"277 390 LINE",
"495 0 LINE",
"695 0 LINE",
"695 730 LINE",
"495 730 LINE",
"495 340 LINE",
"493 340 LINE",
"275 730 LINE",
"75 730 LINE",
"75 0 LINE"
);
}
);
width = 770;
}
);
leftKerningGroup = H;
leftMetricsKey = "=H";
rightKerningGroup = H;
rightMetricsKey = "=|";
unicode = 004E;
},
{
color = 11;
glyphname = Eng;
lastChange = "2021-01-27 09:34:15 +0000";
layers = (
{
anchors = (
{
name = bottom;
position = "{385, 0}";
},
{
name = top;
position = "{385, 730}";
}
);
background = {
components = (
{
name = N;
transform = "{1, 0, 0, 1, 20, 0}";
}
);
};
layerId = "D65C9A1E-0FCA-4B2D-8EDF-9F36CA9182A1";
paths = (
{
closed = 1;
nodes = (
"612 -211 OFFCURVE",
"655 -164 OFFCURVE",
"655 -61 CURVE SMOOTH",
"655 730 LINE",
"635 730 LINE",
"635 21 LINE",
"633 21 LINE",
"146 730 LINE",
"115 730 LINE",
"115 0 LINE",
"135 0 LINE",
"135 709 LINE",
"137 709 LINE",
"646 -32 LINE",
"635 0 LINE",
"635 -61 LINE SMOOTH",
"635 -153 OFFCURVE",
"600 -191 OFFCURVE",
"515 -191 CURVE SMOOTH",
"490 -191 OFFCURVE",
"464 -186 OFFCURVE",
"442 -177 CURVE",
"435 -196 LINE",
"459 -205 OFFCURVE",
"488 -211 OFFCURVE",
"515 -211 CURVE SMOOTH"
);
}
);
width = 770;
},
{
anchors = (
{
name = bottom;
position = "{378, 0}";
},
{
name = top;
position = "{378, 730}";
}
);
background = {
components = (
{
name = N;
transform = "{1, 0, 0, 1, 15, 0}";
}
);
};
layerId = "9527F797-22C1-480E-A1FE-2CDBEBE1FD4C";
paths = (
{
closed = 1;
nodes = (
"623 -221 OFFCURVE",
"675 -163 OFFCURVE",
"675 -26 CURVE SMOOTH",
"675 730 LINE",
"565 730 LINE",
"565 180 LINE",
"563 180 LINE",
"215 730 LINE",
"95 730 LINE",
"95 0 LINE",
"205 0 LINE",
"205 550 LINE",
"207 550 LINE",
"581 -41 LINE",
"567 9 LINE",
"567 -26 LINE SMOOTH",
"567 -97 OFFCURVE",
"541 -126 OFFCURVE",
"477 -126 CURVE SMOOTH",
"452 -126 OFFCURVE",
"426 -122 OFFCURVE",
"402 -114 CURVE",
"385 -205 LINE",
"423 -216 OFFCURVE",
"461 -221 OFFCURVE",
"499 -221 CURVE SMOOTH"
);
}
);
width = 770;
},
{
anchors = (
{
name = bottom;
position = "{385, 0}";
},
{
name = top;
position = "{385, 730}";
}
);
background = {
components = (
{
name = N;
transform = "{1, 0, 0, 1, 10, 0}";
}
);
};
layerId = "9E6B41AB-2970-4C41-8B35-4DBE0D296A43";
paths = (
{
closed = 1;
nodes = (
"640 -229 OFFCURVE",
"695 -169 OFFCURVE",
"695 0 CURVE SMOOTH",
"695 730 LINE",
"495 730 LINE",
"495 340 LINE",
"493 340 LINE",
"275 730 LINE",
"75 730 LINE",
"75 0 LINE",
"275 0 LINE",
"275 390 LINE",
"277 390 LINE",
"539 -79 LINE",
"495 90 LINE",
"495 0 LINE",
"495 -55 OFFCURVE",
"483 -70 OFFCURVE",
"440 -70 CURVE SMOOTH",
"419 -70 OFFCURVE",
"385 -66 OFFCURVE",
"357 -59 CURVE",
"337 -214 LINE",
"385 -223 OFFCURVE",
"435 -229 OFFCURVE",
"483 -229 CURVE SMOOTH"
);
}
);
width = 770;
}
);
leftKerningGroup = H;
leftMetricsKey = "=N";
rightKerningGroup = H;
rightMetricsKey = "=N";
unicode = 014A;
},
{
color = 10;
glyphname = O;
lastChange = "2021-01-27 09:34:15 +0000";
layers = (
{
anchors = (
{
name = bottom;
position = "{427, 0}";
},
{
name = center;
position = "{426, 365}";
},
{
name = ogonek;
position = "{477, 0}";
},
{
name = top;
position = "{427, 730}";
},
{
name = topleft;
position = "{49, 730}";
},
{
name = topright;
position = "{624, 690}";
}
);
layerId = "D65C9A1E-0FCA-4B2D-8EDF-9F36CA9182A1";
paths = (
{
closed = 1;
nodes = (
"647 -10 OFFCURVE",
"797 142 OFFCURVE",
"797 365 CURVE SMOOTH",
"797 588 OFFCURVE",
"647 740 OFFCURVE",
"427 740 CURVE SMOOTH",
"207 740 OFFCURVE",
"57 588 OFFCURVE",
"57 365 CURVE SMOOTH",
"57 142 OFFCURVE",
"207 -10 OFFCURVE",
"427 -10 CURVE SMOOTH"
);
},
{
closed = 1;
nodes = (
"218 10 OFFCURVE",
"77 153 OFFCURVE",
"77 365 CURVE SMOOTH",
"77 577 OFFCURVE",
"218 720 OFFCURVE",
"427 720 CURVE SMOOTH",
"636 720 OFFCURVE",
"777 577 OFFCURVE",
"777 365 CURVE SMOOTH",
"777 153 OFFCURVE",
"636 10 OFFCURVE",
"427 10 CURVE SMOOTH"
);
}
);
width = 854;
},
{
anchors = (
{
name = bottom;
position = "{422, 0}";
},
{
name = center;
position = "{422, 365}";
},
{
name = ogonek;
position = "{489, 0}";
},
{
name = top;
position = "{422, 730}";
},
{
name = topleft;
position = "{40, 730}";
},
{
name = topright;
position = "{627, 690}";
}
);
layerId = "9527F797-22C1-480E-A1FE-2CDBEBE1FD4C";
paths = (
{
closed = 1;
nodes = (
"651 -10 OFFCURVE",
"797 136 OFFCURVE",
"797 365 CURVE SMOOTH",
"797 594 OFFCURVE",
"651 740 OFFCURVE",
"422 740 CURVE SMOOTH",
"193 740 OFFCURVE",
"47 594 OFFCURVE",
"47 365 CURVE SMOOTH",
"47 136 OFFCURVE",
"193 -10 OFFCURVE",
"422 -10 CURVE SMOOTH"
);
},
{
closed = 1;
nodes = (
"259 90 OFFCURVE",
"160 195 OFFCURVE",
"160 365 CURVE SMOOTH",
"160 535 OFFCURVE",
"259 640 OFFCURVE",
"422 640 CURVE SMOOTH",
"584 640 OFFCURVE",
"684 535 OFFCURVE",
"684 365 CURVE SMOOTH",
"684 195 OFFCURVE",
"584 90 OFFCURVE",
"422 90 CURVE SMOOTH"
);
}
);
width = 844;
},
{
anchors = (
{
name = bottom;
position = "{418, 0}";
},
{
name = center;
position = "{418, 365}";
},
{
name = ogonek;
position = "{501, 0}";
},
{
name = top;
position = "{418, 730}";
},
{
name = topleft;
position = "{31, 730}";
},
{
name = topright;
position = "{630, 690}";
}
);
layerId = "9E6B41AB-2970-4C41-8B35-4DBE0D296A43";
paths = (
{
closed = 1;
nodes = (
"657 -10 OFFCURVE",
"798 129 OFFCURVE",
"798 365 CURVE SMOOTH",
"798 601 OFFCURVE",
"657 740 OFFCURVE",
"418 740 CURVE SMOOTH",
"179 740 OFFCURVE",
"38 601 OFFCURVE",
"38 365 CURVE SMOOTH",
"38 129 OFFCURVE",
"179 -10 OFFCURVE",
"418 -10 CURVE SMOOTH"
);
},
{
closed = 1;
nodes = (
"302 160 OFFCURVE",
"243 229 OFFCURVE",
"243 365 CURVE SMOOTH",
"243 501 OFFCURVE",
"302 570 OFFCURVE",
"418 570 CURVE SMOOTH",
"534 570 OFFCURVE",
"593 501 OFFCURVE",
"593 365 CURVE SMOOTH",
"593 229 OFFCURVE",
"534 160 OFFCURVE",
"418 160 CURVE SMOOTH"
);
}
);
width = 836;
}
);
leftKerningGroup = O;
leftMetricsKey = "=H*.5";
rightKerningGroup = O;
rightMetricsKey = "=|";
unicode = 004F;
},
{
color = 11;
glyphname = Oslash;
lastChange = "2020-12-14 03:36:41 +0000";
layers = (
{
anchors = (
{
name = bottom;
position = "{418, 0}";
},
{
name = top;
position = "{418, 730}";
}
);
components = (
{
name = O;
}
);
layerId = "D65C9A1E-0FCA-4B2D-8EDF-9F36CA9182A1";
paths = (
{
closed = 1;
nodes = (
"205 63 LINE",
"205 63 LINE",
"647 655 LINE",
"647 655 LINE",
"706 734 LINE",
"690 746 LINE",
"631 667 LINE",
"631 667 LINE",
"189 75 LINE",
"189 75 LINE",
"130 -4 LINE",
"146 -16 LINE"
);
}
);
width = 794;
},
{
anchors = (
{
name = bottom;
position = "{415, 0}";
},
{
name = top;
position = "{415, 730}";
}
);
components = (
{
alignment = -1;
name = O;
}
);
layerId = "9527F797-22C1-480E-A1FE-2CDBEBE1FD4C";
paths = (
{
closed = 1;
nodes = (
"230 41 LINE",
"230 41 LINE",
"670 629 LINE",
"670 629 LINE",
"732 713 LINE",
"659 768 LINE",
"601 689 LINE",
"601 689 LINE",
"161 101 LINE",
"161 101 LINE",
"98 18 LINE",
"171 -38 LINE"
);
}
);
width = 804;
},
{
anchors = (
{
name = bottom;
position = "{413, 0}";
},
{
name = top;
position = "{413, 730}";
}
);
components = (
{
name = O;
}
);
layerId = "9E6B41AB-2970-4C41-8B35-4DBE0D296A43";
paths = (
{
closed = 1;
nodes = (
"255 28 LINE",
"243 37 LINE",
"679 621 LINE",
"691 612 LINE",
"753 695 LINE",
"633 785 LINE",
"571 702 LINE",
"583 693 LINE",
"147 109 LINE",
"135 118 LINE",
"73 35 LINE",
"193 -55 LINE"
);
}
);
width = 814;
}
);
leftKerningGroup = O;
rightKerningGroup = O;
unicode = 00D8;
},
{
color = 11;
glyphname = OE;
lastChange = "2021-01-27 09:34:15 +0000";
layers = (
{
components = (
{
name = E;
transform = "{1, 0, 0, 1, 457, 0}";
}
);
layerId = "D65C9A1E-0FCA-4B2D-8EDF-9F36CA9182A1";
paths = (
{
closed = 1;
nodes = (
"461 -10 OFFCURVE",
"531 -4 OFFCURVE",
"577 4 CURVE",
"563 33 LINE",
"579 25 LINE",
"534 16 OFFCURVE",
"462 10 OFFCURVE",
"415 10 CURVE SMOOTH",
"204 10 OFFCURVE",
"77 144 OFFCURVE",
"77 365 CURVE SMOOTH",
"77 586 OFFCURVE",
"204 720 OFFCURVE",
"415 720 CURVE SMOOTH",
"462 720 OFFCURVE",
"534 714 OFFCURVE",
"579 705 CURVE",
"563 697 LINE",
"577 726 LINE",
"531 734 OFFCURVE",
"461 740 OFFCURVE",
"415 740 CURVE SMOOTH",
"193 740 OFFCURVE",
"57 597 OFFCURVE",
"57 365 CURVE SMOOTH",
"57 133 OFFCURVE",
"193 -10 OFFCURVE",
"415 -10 CURVE SMOOTH"
);
}
);
width = 1108;
},
{
components = (
{
alignment = -1;
name = E;
transform = "{1, 0, 0, 1, 431, 0}";
}
);
layerId = "9527F797-22C1-480E-A1FE-2CDBEBE1FD4C";
paths = (
{
closed = 1;
nodes = (
"497 -10 OFFCURVE",
"581 12 OFFCURVE",
"636 50 CURVE",
"527 166 LINE",
"577 165 LINE",
"546 116 OFFCURVE",
"483 90 OFFCURVE",
"413 90 CURVE SMOOTH",
"252 90 OFFCURVE",
"160 190 OFFCURVE",
"160 365 CURVE SMOOTH",
"160 541 OFFCURVE",
"252 640 OFFCURVE",
"413 640 CURVE SMOOTH",
"483 640 OFFCURVE",
"546 614 OFFCURVE",
"577 565 CURVE",
"527 565 LINE",
"636 680 LINE",
"581 719 OFFCURVE",
"497 740 OFFCURVE",
"413 740 CURVE SMOOTH",
"184 740 OFFCURVE",
"47 599 OFFCURVE",
"47 365 CURVE SMOOTH",
"47 131 OFFCURVE",
"184 -10 OFFCURVE",
"413 -10 CURVE SMOOTH"
);
}
);
width = 1082;
},
{
components = (
{
name = E;
transform = "{1, 0, 0, 1, 451, 0}";
}
);
layerId = "9E6B41AB-2970-4C41-8B35-4DBE0D296A43";
paths = (
{
closed = 1;
nodes = (
"535 -10 OFFCURVE",
"632 27 OFFCURVE",
"696 96 CURVE",
"492 298 LINE",
"577 297 LINE",
"560 206 OFFCURVE",
"505 160 OFFCURVE",
"413 160 CURVE SMOOTH",
"300 160 OFFCURVE",
"243 229 OFFCURVE",
"243 365 CURVE SMOOTH",
"243 501 OFFCURVE",
"300 570 OFFCURVE",
"413 570 CURVE SMOOTH",
"505 570 OFFCURVE",
"560 524 OFFCURVE",
"577 433 CURVE",
"492 432 LINE",
"696 634 LINE",
"632 703 OFFCURVE",
"535 740 OFFCURVE",
"413 740 CURVE SMOOTH",
"177 740 OFFCURVE",
"38 601 OFFCURVE",
"38 365 CURVE SMOOTH",
"38 129 OFFCURVE",
"177 -10 OFFCURVE",
"413 -10 CURVE SMOOTH"
);
}
);
width = 1100;
},
{
associatedMasterId = "9527F797-22C1-480E-A1FE-2CDBEBE1FD4C";
components = (
{
name = E;
transform = "{1, 0, 0, 1, 419, 0}";
}
);
layerId = "98E51C1D-8AF7-4854-9D9A-43A5CE2B2063";
name = "Dec 30 20, 15:23";
paths = (
{
closed = 1;
nodes = (
"473 -10 OFFCURVE",
"534 4 OFFCURVE",
"586 31 CURVE",
"534 121 LINE",
"497 101 OFFCURVE",
"453 90 OFFCURVE",
"403 90 CURVE SMOOTH",
"247 90 OFFCURVE",
"153 193 OFFCURVE",
"153 365 CURVE SMOOTH",
"153 537 OFFCURVE",
"247 640 OFFCURVE",
"403 640 CURVE SMOOTH",
"453 640 OFFCURVE",
"497 629 OFFCURVE",
"534 609 CURVE",
"586 699 LINE",
"534 726 OFFCURVE",
"473 740 OFFCURVE",
"403 740 CURVE SMOOTH",
"180 740 OFFCURVE",
"40 595 OFFCURVE",
"40 365 CURVE SMOOTH",
"40 135 OFFCURVE",
"180 -10 OFFCURVE",
"403 -10 CURVE SMOOTH"
);
}
);
width = 1073;
}
);
leftKerningGroup = O;
leftMetricsKey = "=O";
rightKerningGroup = E;
rightMetricsKey = "=E";
unicode = 0152;
},
{
color = 10;
glyphname = P;
lastChange = "2021-01-27 09:34:15 +0000";
layers = (
{
layerId = "D65C9A1E-0FCA-4B2D-8EDF-9F36CA9182A1";
rightMetricsKey = "=H*.3";
paths = (
{
closed = 1;
nodes = (
"135 0 LINE",
"135 710 LINE",
"292 710 LINE SMOOTH",
"492 710 OFFCURVE",
"575 651 OFFCURVE",
"575 510 CURVE SMOOTH",
"575 369 OFFCURVE",
"492 310 OFFCURVE",
"292 310 CURVE SMOOTH",
"125 310 LINE",
"125 290 LINE",
"292 290 LINE SMOOTH",
"503 290 OFFCURVE",
"595 357 OFFCURVE",
"595 510 CURVE SMOOTH",
"595 663 OFFCURVE",
"503 730 OFFCURVE",
"292 730 CURVE SMOOTH",
"115 730 LINE",
"115 0 LINE"
);
}
);
width = 630;
},
{
layerId = "9527F797-22C1-480E-A1FE-2CDBEBE1FD4C";
rightMetricsKey = "=H*.35";
paths = (
{
closed = 1;
nodes = (
"205 0 LINE",
"205 630 LINE",
"307 630 LINE SMOOTH",
"451 630 OFFCURVE",
"513 587 OFFCURVE",
"513 487 CURVE SMOOTH",
"513 387 OFFCURVE",
"451 344 OFFCURVE",
"307 344 CURVE SMOOTH",
"150 344 LINE",
"150 244 LINE",
"320 244 LINE SMOOTH",
"525 244 OFFCURVE",
"625 324 OFFCURVE",
"625 487 CURVE SMOOTH",
"625 652 OFFCURVE",
"522 730 OFFCURVE",
"305 730 CURVE SMOOTH",
"95 730 LINE",
"95 0 LINE"
);
}
);
width = 658;
},
{
layerId = "9E6B41AB-2970-4C41-8B35-4DBE0D296A43";
rightMetricsKey = "=H*.4";
paths = (
{
closed = 1;
nodes = (
"275 0 LINE",
"275 570 LINE",
"322 570 LINE SMOOTH",
"410 570 OFFCURVE",
"450 537 OFFCURVE",
"450 465 CURVE SMOOTH",
"450 393 OFFCURVE",
"410 360 OFFCURVE",
"322 360 CURVE SMOOTH",
"175 360 LINE",
"175 200 LINE",
"348 200 LINE SMOOTH",
"547 200 OFFCURVE",
"655 293 OFFCURVE",
"655 465 CURVE SMOOTH",
"655 641 OFFCURVE",
"542 730 OFFCURVE",
"317 730 CURVE SMOOTH",
"75 730 LINE",
"75 0 LINE"
);
}
);
width = 685;
}
);
leftKerningGroup = H;
leftMetricsKey = "=H";
rightKerningGroup = P;
rightMetricsKey = "=H*.4";
unicode = 0050;
},
{
color = 11;
glyphname = Thorn;
lastChange = "2021-01-27 09:34:15 +0000";
layers = (
{
background = {
components = (
{
name = P;
transform = "{1, 0, 0, 1, 20, 0}";
}
);
};
layerId = "D65C9A1E-0FCA-4B2D-8EDF-9F36CA9182A1";
paths = (
{
closed = 1;
nodes = (
"292 155 LINE SMOOTH",
"531 155 OFFCURVE",
"635 222 OFFCURVE",
"635 375 CURVE SMOOTH",
"635 528 OFFCURVE",
"531 595 OFFCURVE",
"292 595 CURVE SMOOTH",
"125 595 LINE",
"125 575 LINE",
"292 575 LINE SMOOTH",
"520 575 OFFCURVE",
"615 515 OFFCURVE",
"615 375 CURVE SMOOTH",
"615 235 OFFCURVE",
"520 175 OFFCURVE",
"292 175 CURVE SMOOTH",
"125 175 LINE",
"125 155 LINE"
);
},
{
closed = 1;
nodes = (
"135 0 LINE",
"135 730 LINE",
"115 730 LINE",
"115 0 LINE"
);
}
);
width = 670;
},
{
background = {
components = (
{
name = P;
transform = "{1, 0, 0, 1, 15, 0}";
}
);
};
layerId = "9527F797-22C1-480E-A1FE-2CDBEBE1FD4C";
paths = (
{
closed = 1;
nodes = (
"320 132 LINE SMOOTH",
"546 132 OFFCURVE",
"655 211 OFFCURVE",
"655 375 CURVE SMOOTH",
"655 541 OFFCURVE",
"543 618 OFFCURVE",
"305 618 CURVE SMOOTH",
"150 618 LINE",
"150 518 LINE",
"307 518 LINE SMOOTH",
"472 518 OFFCURVE",
"543 475 OFFCURVE",
"543 375 CURVE SMOOTH",
"543 275 OFFCURVE",
"472 232 OFFCURVE",
"307 232 CURVE SMOOTH",
"150 232 LINE",
"150 132 LINE"
);
},
{
closed = 1;
nodes = (
"205 0 LINE",
"205 730 LINE",
"95 730 LINE",
"95 0 LINE"
);
}
);
width = 688;
},
{
background = {
components = (
{
name = P;
transform = "{1, 0, 0, 1, 10, 0}";
}
);
};
layerId = "9E6B41AB-2970-4C41-8B35-4DBE0D296A43";
paths = (
{
closed = 1;
nodes = (
"348 110 LINE SMOOTH",
"560 110 OFFCURVE",
"675 203 OFFCURVE",
"675 375 CURVE SMOOTH",
"675 551 OFFCURVE",
"555 640 OFFCURVE",
"317 640 CURVE SMOOTH",
"175 640 LINE",
"175 480 LINE",
"322 480 LINE SMOOTH",
"424 480 OFFCURVE",
"470 447 OFFCURVE",
"470 375 CURVE SMOOTH",
"470 303 OFFCURVE",
"424 270 OFFCURVE",
"322 270 CURVE SMOOTH",
"175 270 LINE",
"175 110 LINE"
);
},
{
closed = 1;
nodes = (
"275 0 LINE",
"275 730 LINE",
"75 730 LINE",
"75 0 LINE"
);
}
);
width = 705;
}
);
leftKerningGroup = H;
leftMetricsKey = "=P";
rightKerningGroup = O;
rightMetricsKey = "=P";
unicode = 00DE;
},
{
color = 10;
glyphname = Q;
lastChange = "2021-01-27 09:34:15 +0000";
layers = (
{
background = {
paths = (
{
closed = 1;
nodes = (
"800 -71 LINE",
"752 -19 OFFCURVE",
"686 17 OFFCURVE",
"605 36 CURVE",
"605 38 LINE",
"725 90 OFFCURVE",
"797 209 OFFCURVE",
"797 365 CURVE SMOOTH",
"797 595 OFFCURVE",
"652 740 OFFCURVE",
"422 740 CURVE SMOOTH",
"193 740 OFFCURVE",
"48 595 OFFCURVE",
"48 365 CURVE SMOOTH",
"48 136 OFFCURVE",
"193 -10 OFFCURVE",
"422 -10 CURVE SMOOTH",
"557 -10 OFFCURVE",
"642 -44 OFFCURVE",
"712 -133 CURVE"
);
},
{
closed = 1;
nodes = (
"260 85 OFFCURVE",
"160 191 OFFCURVE",
"160 365 CURVE SMOOTH",
"160 539 OFFCURVE",
"260 645 OFFCURVE",
"423 645 CURVE SMOOTH",
"585 645 OFFCURVE",
"685 539 OFFCURVE",
"685 365 CURVE SMOOTH",
"685 191 OFFCURVE",
"585 85 OFFCURVE",
"423 85 CURVE SMOOTH"
);
}
);
};
layerId = "9527F797-22C1-480E-A1FE-2CDBEBE1FD4C";
rightMetricsKey = "=O-11";
paths = (
{
closed = 1;
nodes = (
"799 -71 LINE",
"755 -24 OFFCURVE",
"696 13 OFFCURVE",
"625 37 CURVE",
"625 39 LINE",
"736 100 OFFCURVE",
"797 216 OFFCURVE",
"797 365 CURVE SMOOTH",
"797 594 OFFCURVE",
"651 740 OFFCURVE",
"422 740 CURVE SMOOTH",
"193 740 OFFCURVE",
"47 594 OFFCURVE",
"47 365 CURVE SMOOTH",
"47 136 OFFCURVE",
"193 -10 OFFCURVE",
"422 -10 CURVE SMOOTH",
"546 -10 OFFCURVE",
"650 -54 OFFCURVE",
"712 -133 CURVE"
);
},
{
closed = 1;
nodes = (
"259 90 OFFCURVE",
"160 195 OFFCURVE",
"160 365 CURVE SMOOTH",
"160 535 OFFCURVE",
"259 640 OFFCURVE",
"422 640 CURVE SMOOTH",
"584 640 OFFCURVE",
"684 535 OFFCURVE",
"684 365 CURVE SMOOTH",
"684 195 OFFCURVE",
"584 90 OFFCURVE",
"422 90 CURVE SMOOTH"
);
}
);
width = 835;
},
{
layerId = "D65C9A1E-0FCA-4B2D-8EDF-9F36CA9182A1";
rightMetricsKey = "=O";
paths = (
{
closed = 1;
nodes = (
"792 -102 LINE",
"732 -46 OFFCURVE",
"644 -11 OFFCURVE",
"532 2 CURVE",
"532 4 LINE",
"693 44 OFFCURVE",
"796 180 OFFCURVE",
"796 365 CURVE SMOOTH",
"796 588 OFFCURVE",
"647 740 OFFCURVE",
"426 740 CURVE SMOOTH",
"207 740 OFFCURVE",
"57 588 OFFCURVE",
"57 365 CURVE SMOOTH",
"57 142 OFFCURVE",
"207 -10 OFFCURVE",
"426 -10 CURVE SMOOTH",
"584 -10 OFFCURVE",
"703 -46 OFFCURVE",
"776 -116 CURVE"
);
},
{
closed = 1;
nodes = (
"217 10 OFFCURVE",
"77 153 OFFCURVE",
"77 365 CURVE SMOOTH",
"77 577 OFFCURVE",
"217 720 OFFCURVE",
"427 720 CURVE SMOOTH",
"636 720 OFFCURVE",
"777 577 OFFCURVE",
"777 365 CURVE SMOOTH",
"777 153 OFFCURVE",
"636 10 OFFCURVE",
"427 10 CURVE SMOOTH"
);
}
);
width = 853;
},
{
layerId = "9E6B41AB-2970-4C41-8B35-4DBE0D296A43";
rightMetricsKey = "=O-12";
paths = (
{
closed = 1;
nodes = (
"808 -40 LINE",
"771 8 OFFCURVE",
"728 44 OFFCURVE",
"677 69 CURVE",
"677 71 LINE",
"756 135 OFFCURVE",
"798 237 OFFCURVE",
"798 365 CURVE SMOOTH",
"798 601 OFFCURVE",
"657 740 OFFCURVE",
"418 740 CURVE SMOOTH",
"179 740 OFFCURVE",
"38 601 OFFCURVE",
"38 365 CURVE SMOOTH",
"38 129 OFFCURVE",
"179 -10 OFFCURVE",
"418 -10 CURVE SMOOTH",
"529 -10 OFFCURVE",
"580 -41 OFFCURVE",
"648 -150 CURVE"
);
},
{
closed = 1;
nodes = (
"302 160 OFFCURVE",
"243 229 OFFCURVE",
"243 365 CURVE SMOOTH",
"243 501 OFFCURVE",
"302 570 OFFCURVE",
"418 570 CURVE SMOOTH",
"534 570 OFFCURVE",
"593 501 OFFCURVE",
"593 365 CURVE SMOOTH",
"593 229 OFFCURVE",
"534 160 OFFCURVE",
"418 160 CURVE SMOOTH"
);
}
);
width = 834;
}
);
leftKerningGroup = O;
leftMetricsKey = "=O";
rightKerningGroup = O;
rightMetricsKey = "=O-12";
unicode = 0051;
},
{
color = 10;
glyphname = R;
lastChange = "2021-01-27 09:34:15 +0000";
layers = (
{
anchors = (
{
name = bottom;
position = "{340, 0}";
},
{
name = top;
position = "{340, 730}";
}
);
layerId = "9E6B41AB-2970-4C41-8B35-4DBE0D296A43";
paths = (
{
closed = 1;
nodes = (
"275 0 LINE",
"275 570 LINE",
"344 570 LINE SMOOTH",
"417 570 OFFCURVE",
"450 544 OFFCURVE",
"450 485 CURVE SMOOTH",
"450 426 OFFCURVE",
"417 400 OFFCURVE",
"344 400 CURVE SMOOTH",
"175 400 LINE",
"175 254 LINE",
"375 254 LINE SMOOTH",
"557 254 OFFCURVE",
"655 339 OFFCURVE",
"655 495 CURVE SMOOTH",
"655 654 OFFCURVE",
"551 730 OFFCURVE",
"334 730 CURVE SMOOTH",
"75 730 LINE",
"75 0 LINE"
);
},
{
closed = 1;
nodes = (
"675 0 LINE",
"438 327 LINE",
"226 327 LINE",
"455 0 LINE"
);
}
);
width = 705;
},
{
anchors = (
{
name = bottom;
position = "{335, 0}";
},
{
name = top;
position = "{335, 730}";
}
);
layerId = "9527F797-22C1-480E-A1FE-2CDBEBE1FD4C";
paths = (
{
closed = 1;
nodes = (
"205 0 LINE",
"205 630 LINE",
"326 630 LINE SMOOTH",
"458 630 OFFCURVE",
"513 594 OFFCURVE",
"513 509 CURVE SMOOTH",
"513 424 OFFCURVE",
"458 388 OFFCURVE",
"326 388 CURVE SMOOTH",
"150 388 LINE",
"150 292 LINE",
"342 292 LINE SMOOTH",
"532 292 OFFCURVE",
"625 364 OFFCURVE",
"625 513 CURVE SMOOTH",
"625 662 OFFCURVE",
"530 730 OFFCURVE",
"321 730 CURVE SMOOTH",
"95 730 LINE",
"95 0 LINE"
);
},
{
closed = 1;
nodes = (
"645 0 LINE",
"320 328 LINE",
"180 328 LINE",
"503 0 LINE"
);
}
);
width = 683;
},
{
anchors = (
{
name = bottom;
position = "{330, 0}";
},
{
name = top;
position = "{330, 730}";
}
);
layerId = "D65C9A1E-0FCA-4B2D-8EDF-9F36CA9182A1";
paths = (
{
closed = 1;
nodes = (
"135 0 LINE",
"135 710 LINE",
"308 710 LINE SMOOTH",
"498 710 OFFCURVE",
"575 657 OFFCURVE",
"575 530 CURVE SMOOTH",
"575 403 OFFCURVE",
"498 350 OFFCURVE",
"308 350 CURVE SMOOTH",
"125 350 LINE",
"125 330 LINE",
"308 330 LINE SMOOTH",
"509 330 OFFCURVE",
"595 390 OFFCURVE",
"595 530 CURVE SMOOTH",
"595 670 OFFCURVE",
"509 730 OFFCURVE",
"308 730 CURVE SMOOTH",
"115 730 LINE",
"115 0 LINE"
);
},
{
closed = 1;
nodes = (
"615 0 LINE",
"188 340 LINE",
"156 340 LINE",
"583 0 LINE"
);
}
);
width = 661;
}
);
leftKerningGroup = H;
leftMetricsKey = "=H";
rightKerningGroup = R;
rightMetricsKey = "=H*.4";
unicode = 0052;
},
{
color = 10;
glyphname = S;
lastChange = "2021-01-27 09:34:15 +0000";
layers = (
{
anchors = (
{
name = bottom;
position = "{327, 0}";
},
{
name = cedi;
position = "{269, 0}";
},
{
name = top;
position = "{327, 730}";
}
);
background = {
paths = (
{
closed = 0;
nodes = (
"85 57 LINE",
"153 20 OFFCURVE",
"240 0 OFFCURVE",
"324 0 CURVE SMOOTH",
"478 0 OFFCURVE",
"570 68 OFFCURVE",
"570 183 CURVE SMOOTH",
"570 445 OFFCURVE",
"91 313 OFFCURVE",
"91 561 CURVE SMOOTH",
"91 667 OFFCURVE",
"178 730 OFFCURVE",
"324 730 CURVE SMOOTH",
"408 730 OFFCURVE",
"505 709 OFFCURVE",
"557 681 CURVE"
);
}
);
};
layerId = "D65C9A1E-0FCA-4B2D-8EDF-9F36CA9182A1";
leftMetricsKey = "=H*.7";
paths = (
{
closed = 1;
nodes = (
"483 -10 OFFCURVE",
"580 62 OFFCURVE",
"580 183 CURVE SMOOTH",
"580 324 OFFCURVE",
"449 357 OFFCURVE",
"328 388 CURVE SMOOTH",
"209 419 OFFCURVE",
"101 446 OFFCURVE",
"101 561 CURVE SMOOTH",
"101 661 OFFCURVE",
"183 720 OFFCURVE",
"324 720 CURVE SMOOTH",
"405 720 OFFCURVE",
"501 700 OFFCURVE",
"552 672 CURVE",
"561 690 LINE",
"507 719 OFFCURVE",
"407 740 OFFCURVE",
"324 740 CURVE SMOOTH",
"172 740 OFFCURVE",
"81 673 OFFCURVE",
"80 561 CURVE SMOOTH",
"80 431 OFFCURVE",
"204 399 OFFCURVE",
"323 369 CURVE SMOOTH",
"444 338 OFFCURVE",
"559 308 OFFCURVE",
"559 183 CURVE SMOOTH",
"560 74 OFFCURVE",
"473 10 OFFCURVE",
"324 10 CURVE SMOOTH",
"239 10 OFFCURVE",
"154 30 OFFCURVE",
"89 66 CURVE",
"80 48 LINE",
"148 11 OFFCURVE",
"237 -10 OFFCURVE",
"324 -10 CURVE SMOOTH"
);
}
);
width = 660;
},
{
anchors = (
{
name = bottom;
position = "{334, 0}";
},
{
name = cedi;
position = "{265, 0}";
},
{
name = top;
position = "{334, 730}";
}
);
layerId = "9527F797-22C1-480E-A1FE-2CDBEBE1FD4C";
leftMetricsKey = "=H*.65";
paths = (
{
closed = 1;
nodes = (
"507 -10 OFFCURVE",
"612 66 OFFCURVE",
"612 197 CURVE SMOOTH",
"612 306 OFFCURVE",
"543 366 OFFCURVE",
"366 415 CURVE SMOOTH",
"220 457 OFFCURVE",
"177 486 OFFCURVE",
"177 542 CURVE SMOOTH",
"177 606 OFFCURVE",
"231 640 OFFCURVE",
"336 640 CURVE SMOOTH",
"417 640 OFFCURVE",
"501 621 OFFCURVE",
"563 589 CURVE",
"588 691 LINE",
"528 721 OFFCURVE",
"428 740 OFFCURVE",
"338 740 CURVE SMOOTH",
"163 740 OFFCURVE",
"62 668 OFFCURVE",
"62 543 CURVE SMOOTH",
"62 437 OFFCURVE",
"132 375 OFFCURVE",
"301 329 CURVE SMOOTH",
"451 288 OFFCURVE",
"497 258 OFFCURVE",
"497 198 CURVE SMOOTH",
"497 129 OFFCURVE",
"439 90 OFFCURVE",
"334 90 CURVE SMOOTH",
"252 90 OFFCURVE",
"157 114 OFFCURVE",
"90 153 CURVE",
"65 51 LINE",
"133 12 OFFCURVE",
"229 -10 OFFCURVE",
"327 -10 CURVE SMOOTH"
);
}
);
width = 674;
},
{
anchors = (
{
name = bottom;
position = "{342, 0}";
},
{
name = cedi;
position = "{261, 0}";
},
{
name = top;
position = "{342, 730}";
}
);
layerId = "9E6B41AB-2970-4C41-8B35-4DBE0D296A43";
leftMetricsKey = "=H*.6";
paths = (
{
closed = 1;
nodes = (
"532 -10 OFFCURVE",
"645 69 OFFCURVE",
"645 210 CURVE SMOOTH",
"645 320 OFFCURVE",
"577 384 OFFCURVE",
"407 434 CURVE SMOOTH",
"284 470 OFFCURVE",
"255 488 OFFCURVE",
"255 526 CURVE SMOOTH",
"255 560 OFFCURVE",
"285 575 OFFCURVE",
"350 575 CURVE SMOOTH",
"423 575 OFFCURVE",
"506 555 OFFCURVE",
"574 522 CURVE",
"616 692 LINE",
"547 722 OFFCURVE",
"448 740 OFFCURVE",
"353 740 CURVE SMOOTH",
"155 740 OFFCURVE",
"45 663 OFFCURVE",
"45 525 CURVE SMOOTH",
"45 410 OFFCURVE",
"115 342 OFFCURVE",
"279 297 CURVE SMOOTH",
"408 261 OFFCURVE",
"435 246 OFFCURVE",
"435 210 CURVE SMOOTH",
"435 175 OFFCURVE",
"402 155 OFFCURVE",
"345 155 CURVE SMOOTH",
"273 155 OFFCURVE",
"160 186 OFFCURVE",
"93 224 CURVE",
"51 54 LINE",
"116 14 OFFCURVE",
"219 -10 OFFCURVE",
"332 -10 CURVE SMOOTH"
);
}
);
width = 690;
},
{
anchors = (
{
name = bottom;
position = "{323, 0}";
},
{
name = cedi;
position = "{265, 0}";
},
{
name = top;
position = "{323, 730}";
}
);
associatedMasterId = "D65C9A1E-0FCA-4B2D-8EDF-9F36CA9182A1";
background = {
paths = (
{
closed = 0;
nodes = (
"71 57 LINE",
"142 20 OFFCURVE",
"232 0 OFFCURVE",
"320 0 CURVE SMOOTH",
"480 0 OFFCURVE",
"576 68 OFFCURVE",
"576 183 CURVE SMOOTH",
"576 445 OFFCURVE",
"77 313 OFFCURVE",
"77 561 CURVE SMOOTH",
"77 667 OFFCURVE",
"168 730 OFFCURVE",
"320 730 CURVE SMOOTH",
"407 730 OFFCURVE",
"508 709 OFFCURVE",
"562 681 CURVE"
);
}
);
};
layerId = "7169C470-F6A3-419B-8CE3-30F113AF60AE";
leftMetricsKey = "=H*.7";
name = "Dec 30 20, 19:35";
paths = (
{
closed = 1;
nodes = (
"486 -10 OFFCURVE",
"586 62 OFFCURVE",
"586 183 CURVE SMOOTH",
"586 324 OFFCURVE",
"450 357 OFFCURVE",
"324 388 CURVE SMOOTH",
"201 419 OFFCURVE",
"87 447 OFFCURVE",
"87 561 CURVE SMOOTH",
"87 661 OFFCURVE",
"173 720 OFFCURVE",
"320 720 CURVE SMOOTH",
"404 720 OFFCURVE",
"504 700 OFFCURVE",
"557 672 CURVE",
"567 690 LINE",
"510 719 OFFCURVE",
"407 740 OFFCURVE",
"320 740 CURVE SMOOTH",
"162 740 OFFCURVE",
"67 673 OFFCURVE",
"67 561 CURVE SMOOTH",
"67 431 OFFCURVE",
"196 399 OFFCURVE",
"319 369 CURVE SMOOTH",
"445 338 OFFCURVE",
"566 308 OFFCURVE",
"566 183 CURVE SMOOTH",
"566 74 OFFCURVE",
"475 10 OFFCURVE",
"320 10 CURVE SMOOTH",
"232 10 OFFCURVE",
"144 30 OFFCURVE",
"76 66 CURVE",
"66 48 LINE",
"138 11 OFFCURVE",
"229 -10 OFFCURVE",
"320 -10 CURVE SMOOTH"
);
}
);
width = 652;
},
{
anchors = (
{
name = bottom;
position = "{329, 0}";
},
{
name = cedi;
position = "{260, 0}";
},
{
name = top;
position = "{329, 730}";
}
);
associatedMasterId = "9527F797-22C1-480E-A1FE-2CDBEBE1FD4C";
layerId = "9D1F873A-193B-4E41-8E22-97BC499EDB51";
leftMetricsKey = "=H*.65";
name = "Dec 30 20, 19:36";
paths = (
{
closed = 1;
nodes = (
"505 -10 OFFCURVE",
"612 66 OFFCURVE",
"612 197 CURVE SMOOTH",
"612 306 OFFCURVE",
"542 366 OFFCURVE",
"362 415 CURVE SMOOTH",
"211 457 OFFCURVE",
"167 486 OFFCURVE",
"167 542 CURVE SMOOTH",
"167 606 OFFCURVE",
"223 640 OFFCURVE",
"331 640 CURVE SMOOTH",
"413 640 OFFCURVE",
"499 621 OFFCURVE",
"562 589 CURVE",
"588 691 LINE",
"526 721 OFFCURVE",
"425 740 OFFCURVE",
"333 740 CURVE SMOOTH",
"155 740 OFFCURVE",
"52 668 OFFCURVE",
"52 543 CURVE SMOOTH",
"52 437 OFFCURVE",
"123 375 OFFCURVE",
"295 329 CURVE SMOOTH",
"450 288 OFFCURVE",
"497 258 OFFCURVE",
"497 198 CURVE SMOOTH",
"497 129 OFFCURVE",
"437 90 OFFCURVE",
"329 90 CURVE SMOOTH",
"245 90 OFFCURVE",
"149 114 OFFCURVE",
"81 153 CURVE",
"55 51 LINE",
"124 12 OFFCURVE",
"222 -10 OFFCURVE",
"322 -10 CURVE SMOOTH"
);
}
);
width = 664;
}
);
leftKerningGroup = S;
leftMetricsKey = "=H*.6";
rightKerningGroup = S;
rightMetricsKey = "=|";
unicode = 0053;
},
{
color = 11;
glyphname = Germandbls;
lastChange = "2021-01-27 09:34:15 +0000";
layers = (
{
layerId = "D65C9A1E-0FCA-4B2D-8EDF-9F36CA9182A1";
paths = (
{
closed = 1;
nodes = (
"546 -10 OFFCURVE",
"635 58 OFFCURVE",
"635 180 CURVE SMOOTH",
"635 302 OFFCURVE",
"547 370 OFFCURVE",
"389 370 CURVE",
"389 372 LINE",
"548 565 LINE",
"548 681 OFFCURVE",
"479 740 OFFCURVE",
"343 740 CURVE SMOOTH",
"189 740 OFFCURVE",
"115 664 OFFCURVE",
"115 505 CURVE SMOOTH",
"115 0 LINE",
"135 0 LINE",
"135 505 LINE SMOOTH",
"135 653 OFFCURVE",
"200 720 OFFCURVE",
"343 720 CURVE SMOOTH",
"465 720 OFFCURVE",
"525 672 OFFCURVE",
"528 572 CURVE",
"369 379 LINE",
"369 350 LINE",
"389 350 LINE SMOOTH",
"536 350 OFFCURVE",
"615 290 OFFCURVE",
"615 180 CURVE SMOOTH",
"615 70 OFFCURVE",
"535 10 OFFCURVE",
"386 10 CURVE SMOOTH",
"342 10 OFFCURVE",
"304 15 OFFCURVE",
"267 26 CURVE",
"261 7 LINE",
"302 -5 OFFCURVE",
"343 -10 OFFCURVE",
"386 -10 CURVE SMOOTH"
);
}
);
width = 667;
},
{
layerId = "9527F797-22C1-480E-A1FE-2CDBEBE1FD4C";
paths = (
{
closed = 1;
nodes = (
"583 -10 OFFCURVE",
"670 63 OFFCURVE",
"670 195 CURVE SMOOTH",
"670 307 OFFCURVE",
"607 373 OFFCURVE",
"489 383 CURVE",
"489 385 LINE",
"597 533 LINE",
"597 670 OFFCURVE",
"515 740 OFFCURVE",
"352 740 CURVE SMOOTH",
"179 740 OFFCURVE",
"95 662 OFFCURVE",
"95 503 CURVE SMOOTH",
"95 0 LINE",
"205 0 LINE",
"205 503 LINE SMOOTH",
"205 602 OFFCURVE",
"246 640 OFFCURVE",
"352 640 CURVE SMOOTH",
"439 640 OFFCURVE",
"485 613 OFFCURVE",
"487 561 CURVE",
"370 400 LINE",
"370 300 LINE",
"380 300 LINE SMOOTH",
"502 300 OFFCURVE",
"558 267 OFFCURVE",
"558 195 CURVE SMOOTH",
"558 128 OFFCURVE",
"505 90 OFFCURVE",
"411 90 CURVE SMOOTH",
"377 90 OFFCURVE",
"348 95 OFFCURVE",
"308 111 CURVE",
"293 11 LINE",
"336 -3 OFFCURVE",
"379 -10 OFFCURVE",
"426 -10 CURVE SMOOTH"
);
}
);
width = 700;
},
{
layerId = "9E6B41AB-2970-4C41-8B35-4DBE0D296A43";
paths = (
{
closed = 1;
nodes = (
"620 -10 OFFCURVE",
"705 68 OFFCURVE",
"705 210 CURVE SMOOTH",
"705 313 OFFCURVE",
"655 376 OFFCURVE",
"558 395 CURVE",
"558 397 LINE",
"645 500 LINE",
"645 660 OFFCURVE",
"550 740 OFFCURVE",
"360 740 CURVE SMOOTH",
"170 740 OFFCURVE",
"75 660 OFFCURVE",
"75 500 CURVE",
"75 0 LINE",
"275 0 LINE",
"275 500 LINE",
"275 550 OFFCURVE",
"299 570 OFFCURVE",
"360 570 CURVE SMOOTH",
"421 570 OFFCURVE",
"445 550 OFFCURVE",
"445 500 CURVE",
"370 400 LINE",
"370 280 LINE",
"370 280 LINE",
"471 280 OFFCURVE",
"500 267 OFFCURVE",
"500 220 CURVE SMOOTH",
"500 180 OFFCURVE",
"479 160 OFFCURVE",
"435 160 CURVE SMOOTH",
"411 160 OFFCURVE",
"384 166 OFFCURVE",
"350 180 CURVE",
"325 15 LINE",
"367 -1 OFFCURVE",
"415 -10 OFFCURVE",
"465 -10 CURVE SMOOTH"
);
}
);
width = 732;
}
);
leftKerningGroup = H;
leftMetricsKey = "=B";
rightKerningGroup = B;
rightMetricsKey = "=B*.7";
unicode = 1E9E;
},
{
color = 11;
glyphname = Schwa;
lastChange = "2021-01-27 09:34:15 +0000";
layers = (
{
background = {
paths = (
{
closed = 1;
nodes = (
"511 -10 OFFCURVE",
"609 14 OFFCURVE",
"685 54 CURVE",
"676 72 LINE",
"601 32 OFFCURVE",
"506 10 OFFCURVE",
"415 10 CURVE SMOOTH",
"195 10 OFFCURVE",
"75 134 OFFCURVE",
"75 365 CURVE",
"75 365 LINE",
"75 591 OFFCURVE",
"189 720 OFFCURVE",
"385 720 CURVE SMOOTH",
"581 720 OFFCURVE",
"695 591 OFFCURVE",
"695 365 CURVE",
"710 382 LINE",
"65 382 LINE",
"65 362 LINE",
"715 362 LINE",
"715 364 OFFCURVE",
"715 364 OFFCURVE",
"715 365 CURVE SMOOTH",
"715 601 OFFCURVE",
"593 740 OFFCURVE",
"385 740 CURVE SMOOTH",
"177 740 OFFCURVE",
"54 601 OFFCURVE",
"54 365 CURVE SMOOTH",
"54 124 OFFCURVE",
"183 -10 OFFCURVE",
"415 -10 CURVE SMOOTH"
);
}
);
};
layerId = "D65C9A1E-0FCA-4B2D-8EDF-9F36CA9182A1";
paths = (
{
closed = 1;
nodes = (
"259 740 OFFCURVE",
"161 716 OFFCURVE",
"85 676 CURVE",
"94 658 LINE",
"169 698 OFFCURVE",
"264 720 OFFCURVE",
"355 720 CURVE SMOOTH",
"575 720 OFFCURVE",
"695 596 OFFCURVE",
"695 365 CURVE",
"695 365 LINE",
"695 139 OFFCURVE",
"581 10 OFFCURVE",
"385 10 CURVE SMOOTH",
"189 10 OFFCURVE",
"75 139 OFFCURVE",
"75 365 CURVE",
"59 348 LINE",
"705 348 LINE",
"705 368 LINE",
"54 368 LINE",
"54 366 OFFCURVE",
"54 366 OFFCURVE",
"54 365 CURVE SMOOTH",
"54 129 OFFCURVE",
"177 -10 OFFCURVE",
"385 -10 CURVE SMOOTH",
"593 -10 OFFCURVE",
"715 129 OFFCURVE",
"715 365 CURVE SMOOTH",
"715 606 OFFCURVE",
"587 740 OFFCURVE",
"355 740 CURVE SMOOTH"
);
}
);
width = 772;
},
{
background = {
paths = (
{
closed = 1;
nodes = (
"521 -10 OFFCURVE",
"615 10 OFFCURVE",
"684 42 CURVE",
"662 137 LINE",
"589 107 OFFCURVE",
"506 90 OFFCURVE",
"423 90 CURVE SMOOTH",
"242 90 OFFCURVE",
"155 171 OFFCURVE",
"155 334 CURVE",
"155 376 LINE",
"155 550 OFFCURVE",
"235 640 OFFCURVE",
"385 640 CURVE SMOOTH",
"535 640 OFFCURVE",
"615 550 OFFCURVE",
"615 376 CURVE",
"656 416 LINE",
"123 416 LINE",
"123 317 LINE",
"722 317 LINE",
"724 327 OFFCURVE",
"725 353 OFFCURVE",
"725 372 CURVE SMOOTH",
"725 604 OFFCURVE",
"600 740 OFFCURVE",
"388 740 CURVE SMOOTH",
"173 740 OFFCURVE",
"45 600 OFFCURVE",
"45 365 CURVE SMOOTH",
"45 124 OFFCURVE",
"182 -10 OFFCURVE",
"430 -10 CURVE SMOOTH"
);
}
);
};
layerId = "9527F797-22C1-480E-A1FE-2CDBEBE1FD4C";
paths = (
{
closed = 1;
nodes = (
"249 740 OFFCURVE",
"155 720 OFFCURVE",
"86 688 CURVE",
"111 588 LINE",
"185 622 OFFCURVE",
"267 640 OFFCURVE",
"347 640 CURVE SMOOTH",
"528 640 OFFCURVE",
"615 559 OFFCURVE",
"615 396 CURVE",
"615 354 LINE",
"615 180 OFFCURVE",
"535 90 OFFCURVE",
"385 90 CURVE SMOOTH",
"235 90 OFFCURVE",
"155 180 OFFCURVE",
"155 354 CURVE",
"114 314 LINE",
"647 314 LINE",
"647 413 LINE",
"48 413 LINE",
"46 403 OFFCURVE",
"45 377 OFFCURVE",
"45 358 CURVE SMOOTH",
"45 126 OFFCURVE",
"170 -10 OFFCURVE",
"382 -10 CURVE SMOOTH",
"597 -10 OFFCURVE",
"725 130 OFFCURVE",
"725 365 CURVE SMOOTH",
"725 606 OFFCURVE",
"588 740 OFFCURVE",
"340 740 CURVE SMOOTH"
);
}
);
width = 772;
},
{
background = {
paths = (
{
closed = 1;
nodes = (
"533 -10 OFFCURVE",
"623 5 OFFCURVE",
"684 29 CURVE",
"650 194 LINE",
"579 171 OFFCURVE",
"508 160 OFFCURVE",
"433 160 CURVE SMOOTH",
"291 160 OFFCURVE",
"236 199 OFFCURVE",
"236 300 CURVE SMOOTH",
"236 387 LINE SMOOTH",
"236 515 OFFCURVE",
"282 570 OFFCURVE",
"386 570 CURVE SMOOTH",
"490 570 OFFCURVE",
"536 515 OFFCURVE",
"536 387 CURVE",
"603 440 LINE",
"182 440 LINE",
"182 282 LINE",
"731 282 LINE",
"734 297 OFFCURVE",
"736 346 OFFCURVE",
"736 379 CURVE SMOOTH",
"736 607 OFFCURVE",
"609 740 OFFCURVE",
"393 740 CURVE SMOOTH",
"171 740 OFFCURVE",
"36 599 OFFCURVE",
"36 365 CURVE SMOOTH",
"36 124 OFFCURVE",
"183 -10 OFFCURVE",
"446 -10 CURVE SMOOTH"
);
}
);
};
layerId = "9E6B41AB-2970-4C41-8B35-4DBE0D296A43";
paths = (
{
closed = 1;
nodes = (
"239 740 OFFCURVE",
"149 725 OFFCURVE",
"88 701 CURVE",
"123 536 LINE",
"194 559 OFFCURVE",
"264 570 OFFCURVE",
"339 570 CURVE SMOOTH",
"481 570 OFFCURVE",
"536 531 OFFCURVE",
"536 430 CURVE SMOOTH",
"536 343 LINE SMOOTH",
"536 215 OFFCURVE",
"490 160 OFFCURVE",
"386 160 CURVE SMOOTH",
"282 160 OFFCURVE",
"236 215 OFFCURVE",
"236 343 CURVE",
"169 290 LINE",
"590 290 LINE",
"590 448 LINE",
"41 448 LINE",
"38 433 OFFCURVE",
"36 384 OFFCURVE",
"36 351 CURVE SMOOTH",
"36 123 OFFCURVE",
"163 -10 OFFCURVE",
"379 -10 CURVE SMOOTH",
"601 -10 OFFCURVE",
"736 131 OFFCURVE",
"736 365 CURVE SMOOTH",
"736 606 OFFCURVE",
"589 740 OFFCURVE",
"326 740 CURVE SMOOTH"
);
}
);
width = 774;
}
);
leftKerningGroup = O;
leftMetricsKey = "=O*.95";
rightKerningGroup = O;
rightMetricsKey = "=O";
unicode = 018F;
},
{
color = 10;
glyphname = T;
lastChange = "2021-01-27 09:34:15 +0000";
layers = (
{
anchors = (
{
name = bottom;
position = "{334, 0}";
},
{
name = cedi;
position = "{324, 0}";
},
{
name = center;
position = "{334, 365}";
},
{
name = top;
position = "{334, 730}";
}
);
layerId = "D65C9A1E-0FCA-4B2D-8EDF-9F36CA9182A1";
leftMetricsKey = "=H*.3";
paths = (
{
closed = 1;
nodes = (
"344 0 LINE",
"344 710 LINE",
"634 710 LINE",
"634 730 LINE",
"34 730 LINE",
"34 710 LINE",
"324 710 LINE",
"324 0 LINE"
);
}
);
width = 668;
},
{
anchors = (
{
name = bottom;
position = "{338, 0}";
},
{
name = cedi;
position = "{281, 0}";
},
{
name = center;
position = "{338, 365}";
},
{
name = top;
position = "{338, 730}";
}
);
layerId = "9527F797-22C1-480E-A1FE-2CDBEBE1FD4C";
leftMetricsKey = "=H*.35";
paths = (
{
closed = 1;
nodes = (
"395 0 LINE",
"395 630 LINE",
"643 630 LINE",
"643 730 LINE",
"33 730 LINE",
"33 630 LINE",
"281 630 LINE",
"281 0 LINE"
);
}
);
width = 676;
},
{
anchors = (
{
name = bottom;
position = "{340, 0}";
},
{
name = cedi;
position = "{237, 0}";
},
{
name = center;
position = "{340, 365}";
},
{
name = top;
position = "{340, 730}";
}
);
layerId = "9E6B41AB-2970-4C41-8B35-4DBE0D296A43";
leftMetricsKey = "=H*.4";
paths = (
{
closed = 1;
nodes = (
"443 0 LINE",
"443 560 LINE",
"650 560 LINE",
"650 730 LINE",
"30 730 LINE",
"30 560 LINE",
"237 560 LINE",
"237 0 LINE"
);
}
);
width = 680;
}
);
leftKerningGroup = T;
leftMetricsKey = "=H*0.4";
rightKerningGroup = T;
rightMetricsKey = "=|";
unicode = 0054;
},
{
color = 11;
glyphname = Tbar;
lastChange = "2021-01-27 09:34:15 +0000";
layers = (
{
components = (
{
name = T;
transform = "{1, 0, 0, 1, 34, 0}";
}
);
layerId = "D65C9A1E-0FCA-4B2D-8EDF-9F36CA9182A1";
paths = (
{
closed = 1;
nodes = (
"572 305 LINE",
"572 325 LINE",
"152 325 LINE",
"152 305 LINE"
);
}
);
width = 736;
},
{
components = (
{
alignment = -1;
name = T;
transform = "{1, 0, 0, 1, 33, 0}";
}
);
layerId = "9527F797-22C1-480E-A1FE-2CDBEBE1FD4C";
paths = (
{
closed = 1;
nodes = (
"596 270 LINE",
"596 360 LINE",
"136 360 LINE",
"136 270 LINE"
);
}
);
width = 742;
},
{
components = (
{
name = T;
transform = "{1, 0, 0, 1, 30, 0}";
}
);
layerId = "9E6B41AB-2970-4C41-8B35-4DBE0D296A43";
paths = (
{
closed = 1;
nodes = (
"616 245 LINE",
"616 385 LINE",
"116 385 LINE",
"116 245 LINE"
);
}
);
width = 740;
}
);
leftKerningGroup = W;
leftMetricsKey = "=T*2";
rightKerningGroup = W;
rightMetricsKey = "=|";
unicode = 0166;
},
{
color = 10;
glyphname = U;
lastChange = "2021-01-27 09:34:15 +0000";
layers = (
{
anchors = (
{
name = bottom;
position = "{373, 0}";
},
{
name = ogonek;
position = "{486, 10}";
},
{
name = top;
position = "{373, 730}";
},
{
name = top_ring;
position = "{373, 700}";
},
{
name = topright;
position = "{643, 690}";
}
);
layerId = "D65C9A1E-0FCA-4B2D-8EDF-9F36CA9182A1";
paths = (
{
closed = 1;
nodes = (
"549 -10 OFFCURVE",
"644 77 OFFCURVE",
"643 240 CURVE SMOOTH",
"643 730 LINE",
"623 730 LINE",
"624 240 LINE SMOOTH",
"624 88 OFFCURVE",
"540 10 OFFCURVE",
"374 10 CURVE SMOOTH",
"208 10 OFFCURVE",
"124 88 OFFCURVE",
"123 240 CURVE SMOOTH",
"123 730 LINE",
"103 730 LINE",
"103 240 LINE SMOOTH",
"104 77 OFFCURVE",
"198 -10 OFFCURVE",
"373 -10 CURVE SMOOTH"
);
}
);
width = 746;
},
{
anchors = (
{
name = bottom;
position = "{376, 0}";
},
{
name = ogonek;
position = "{498, 10}";
},
{
name = top;
position = "{376, 730}";
},
{
name = top_ring;
position = "{376, 710}";
},
{
name = topright;
position = "{651, 690}";
}
);
layerId = "9527F797-22C1-480E-A1FE-2CDBEBE1FD4C";
paths = (
{
closed = 1;
nodes = (
"566 -10 OFFCURVE",
"666 80 OFFCURVE",
"666 250 CURVE SMOOTH",
"666 730 LINE",
"556 730 LINE",
"556 270 LINE SMOOTH",
"556 145 OFFCURVE",
"501 90 OFFCURVE",
"376 90 CURVE SMOOTH",
"251 90 OFFCURVE",
"196 145 OFFCURVE",
"196 270 CURVE SMOOTH",
"196 730 LINE",
"86 730 LINE",
"86 250 LINE SMOOTH",
"86 80 OFFCURVE",
"186 -10 OFFCURVE",
"376 -10 CURVE SMOOTH"
);
}
);
width = 752;
},
{
anchors = (
{
name = bottom;
position = "{378, 0}";
},
{
name = ogonek;
position = "{508, 10}";
},
{
name = top;
position = "{378, 730}";
},
{
name = top_ring;
position = "{378, 720}";
},
{
name = topright;
position = "{658, 690}";
}
);
layerId = "9E6B41AB-2970-4C41-8B35-4DBE0D296A43";
paths = (
{
closed = 1;
nodes = (
"581 -10 OFFCURVE",
"688 82 OFFCURVE",
"688 260 CURVE SMOOTH",
"688 730 LINE",
"488 730 LINE",
"488 300 LINE SMOOTH",
"488 193 OFFCURVE",
"461 160 OFFCURVE",
"378 160 CURVE SMOOTH",
"294 160 OFFCURVE",
"268 193 OFFCURVE",
"268 300 CURVE SMOOTH",
"268 730 LINE",
"68 730 LINE",
"68 260 LINE SMOOTH",
"68 82 OFFCURVE",
"173 -10 OFFCURVE",
"378 -10 CURVE SMOOTH"
);
}
);
width = 756;
}
);
leftKerningGroup = U;
leftMetricsKey = "=H*.9";
rightKerningGroup = U;
rightMetricsKey = "=|";
unicode = 0055;
},
{
color = 10;
glyphname = V;
lastChange = "2021-01-27 09:34:15 +0000";
layers = (
{
layerId = "D65C9A1E-0FCA-4B2D-8EDF-9F36CA9182A1";
paths = (
{
closed = 1;
nodes = (
"358 0 LINE",
"663 730 LINE",
"641 730 LINE",
"344 18 LINE",
"342 18 LINE",
"45 730 LINE",
"23 730 LINE",
"328 0 LINE"
);
}
);
width = 686;
},
{
layerId = "9527F797-22C1-480E-A1FE-2CDBEBE1FD4C";
paths = (
{
closed = 1;
nodes = (
"421 0 LINE",
"684 730 LINE",
"563 730 LINE",
"350 110 LINE",
"348 110 LINE",
"135 730 LINE",
"14 730 LINE",
"277 0 LINE"
);
}
);
width = 698;
},
{
layerId = "9E6B41AB-2970-4C41-8B35-4DBE0D296A43";
paths = (
{
closed = 1;
nodes = (
"487 0 LINE",
"707 730 LINE",
"487 730 LINE",
"358 200 LINE",
"356 200 LINE",
"227 730 LINE",
"7 730 LINE",
"227 0 LINE"
);
}
);
width = 714;
}
);
leftKerningGroup = V;
leftMetricsKey = "=A";
rightKerningGroup = V;
rightMetricsKey = "=|";
unicode = 0056;
},
{
color = 10;
glyphname = W;
lastChange = "2021-01-27 09:34:16 +0000";
layers = (
{
anchors = (
{
name = bottom;
position = "{452, 0}";
},
{
name = top;
position = "{452, 730}";
}
);
layerId = "D65C9A1E-0FCA-4B2D-8EDF-9F36CA9182A1";
leftMetricsKey = "=V*1.6";
paths = (
{
closed = 1;
nodes = (
"258 0 LINE",
"451 650 LINE",
"453 650 LINE",
"646 0 LINE",
"678 0 LINE",
"867 730 LINE",
"846 730 LINE",
"663 20 LINE",
"661 20 LINE",
"468 670 LINE",
"436 670 LINE",
"243 20 LINE",
"241 20 LINE",
"58 730 LINE",
"37 730 LINE",
"226 0 LINE"
);
}
);
width = 904;
},
{
anchors = (
{
name = bottom;
position = "{470, 0}";
},
{
name = top;
position = "{470, 730}";
}
);
layerId = "9527F797-22C1-480E-A1FE-2CDBEBE1FD4C";
leftMetricsKey = "=V*2.3";
paths = (
{
closed = 1;
nodes = (
"338 0 LINE",
"469 525 LINE",
"471 525 LINE",
"602 0 LINE",
"738 0 LINE",
"908 730 LINE",
"795 730 LINE",
"669 145 LINE",
"667 145 LINE",
"538 670 LINE",
"402 670 LINE",
"273 145 LINE",
"271 145 LINE",
"145 730 LINE",
"32 730 LINE",
"202 0 LINE"
);
}
);
width = 940;
},
{
anchors = (
{
name = bottom;
position = "{488, 0}";
},
{
name = top;
position = "{488, 730}";
}
);
layerId = "9E6B41AB-2970-4C41-8B35-4DBE0D296A43";
leftMetricsKey = "=V*4";
paths = (
{
closed = 1;
nodes = (
"418 0 LINE",
"487 460 LINE",
"489 460 LINE",
"558 0 LINE",
"798 0 LINE",
"948 730 LINE",
"743 730 LINE",
"674 210 LINE",
"672 210 LINE",
"608 670 LINE",
"368 670 LINE",
"304 210 LINE",
"302 210 LINE",
"233 730 LINE",
"28 730 LINE",
"178 0 LINE"
);
}
);
width = 976;
}
);
leftKerningGroup = W;
leftMetricsKey = "=V*3";
rightKerningGroup = W;
rightMetricsKey = "=|";
unicode = 0057;
},
{
color = 10;
glyphname = X;
lastChange = "2021-01-27 09:34:15 +0000";
layers = (
{
layerId = "D65C9A1E-0FCA-4B2D-8EDF-9F36CA9182A1";
paths = (
{
closed = 1;
nodes = (
"102 0 LINE",
"366 351 LINE",
"368 351 LINE",
"632 0 LINE",
"657 0 LINE",
"379 369 LINE",
"651 730 LINE",
"626 730 LINE",
"368 387 LINE",
"366 387 LINE",
"108 730 LINE",
"83 730 LINE",
"355 369 LINE",
"77 0 LINE"
);
}
);
width = 734;
},
{
layerId = "9527F797-22C1-480E-A1FE-2CDBEBE1FD4C";
paths = (
{
closed = 1;
nodes = (
"178 0 LINE",
"362 304 LINE",
"364 304 LINE",
"548 0 LINE",
"673 0 LINE",
"444 367 LINE",
"670 730 LINE",
"545 730 LINE",
"364 431 LINE",
"362 431 LINE",
"181 730 LINE",
"56 730 LINE",
"282 367 LINE",
"53 0 LINE"
);
}
);
width = 726;
},
{
layerId = "9E6B41AB-2970-4C41-8B35-4DBE0D296A43";
paths = (
{
closed = 1;
nodes = (
"258 0 LINE",
"362 255 LINE",
"364 255 LINE",
"468 0 LINE",
"693 0 LINE",
"513 365 LINE",
"693 730 LINE",
"468 730 LINE",
"364 475 LINE",
"362 475 LINE",
"258 730 LINE",
"33 730 LINE",
"213 365 LINE",
"33 0 LINE"
);
}
);
width = 726;
}
);
leftKerningGroup = X;
leftMetricsKey = "=|K*2.2";
rightKerningGroup = X;
rightMetricsKey = "=|";
unicode = 0058;
},
{
color = 10;
glyphname = Y;
lastChange = "2021-01-27 09:34:16 +0000";
layers = (
{
anchors = (
{
name = bottom;
position = "{334, 0}";
},
{
name = top;
position = "{334, 730}";
},
{
name = topleft;
position = "{42, 730}";
}
);
layerId = "D65C9A1E-0FCA-4B2D-8EDF-9F36CA9182A1";
paths = (
{
closed = 1;
nodes = (
"344 0 LINE",
"344 297 LINE",
"654 730 LINE",
"629 730 LINE",
"335 318 LINE",
"333 318 LINE",
"39 730 LINE",
"14 730 LINE",
"324 297 LINE",
"324 0 LINE"
);
}
);
width = 668;
},
{
anchors = (
{
name = bottom;
position = "{343, 0}";
},
{
name = top;
position = "{343, 730}";
},
{
name = topleft;
position = "{30, 730}";
}
);
layerId = "9527F797-22C1-480E-A1FE-2CDBEBE1FD4C";
paths = (
{
closed = 1;
nodes = (
"400 0 LINE",
"400 274 LINE",
"678 730 LINE",
"552 730 LINE",
"344 373 LINE",
"342 373 LINE",
"134 730 LINE",
"8 730 LINE",
"286 274 LINE",
"286 0 LINE"
);
}
);
width = 686;
},
{
anchors = (
{
name = bottom;
position = "{354, 0}";
},
{
name = top;
position = "{354, 730}";
},
{
name = topleft;
position = "{20, 730}";
}
);
layerId = "9E6B41AB-2970-4C41-8B35-4DBE0D296A43";
paths = (
{
closed = 1;
nodes = (
"459 0 LINE",
"459 250 LINE",
"704 730 LINE",
"484 730 LINE",
"355 420 LINE",
"353 420 LINE",
"224 730 LINE",
"4 730 LINE",
"249 250 LINE",
"249 0 LINE"
);
}
);
width = 708;
}
);
leftKerningGroup = Y;
leftMetricsKey = "=V*.6";
rightKerningGroup = Y;
rightMetricsKey = "=|";
unicode = 0059;
},
{
color = 10;
glyphname = Z;
lastChange = "2021-01-27 09:34:15 +0000";
layers = (
{
anchors = (
{
name = bottom;
position = "{342, 0}";
},
{
name = center;
position = "{342, 365}";
},
{
name = top;
position = "{342, 730}";
}
);
layerId = "D65C9A1E-0FCA-4B2D-8EDF-9F36CA9182A1";
paths = (
{
closed = 1;
nodes = (
"592 0 LINE",
"592 20 LINE",
"117 20 LINE",
"117 22 LINE",
"592 710 LINE",
"592 730 LINE",
"92 730 LINE",
"92 710 LINE",
"567 710 LINE",
"567 708 LINE",
"92 20 LINE",
"92 0 LINE"
);
}
);
width = 684;
},
{
anchors = (
{
name = bottom;
position = "{336, 0}";
},
{
name = center;
position = "{336, 365}";
},
{
name = top;
position = "{336, 730}";
}
);
layerId = "9527F797-22C1-480E-A1FE-2CDBEBE1FD4C";
paths = (
{
closed = 1;
nodes = (
"596 0 LINE",
"596 100 LINE",
"211 100 LINE",
"211 102 LINE",
"596 630 LINE",
"596 730 LINE",
"76 730 LINE",
"76 630 LINE",
"461 630 LINE",
"461 628 LINE",
"76 100 LINE",
"76 0 LINE"
);
}
);
width = 672;
},
{
anchors = (
{
name = bottom;
position = "{330, 0}";
},
{
name = center;
position = "{330, 365}";
},
{
name = top;
position = "{330, 730}";
}
);
layerId = "9E6B41AB-2970-4C41-8B35-4DBE0D296A43";
paths = (
{
closed = 1;
nodes = (
"600 0 LINE",
"600 165 LINE",
"295 165 LINE",
"295 167 LINE",
"600 565 LINE",
"600 730 LINE",
"60 730 LINE",
"60 565 LINE",
"365 565 LINE",
"365 563 LINE",
"60 165 LINE",
"60 0 LINE"
);
}
);
width = 660;
}
);
leftKerningGroup = Z;
leftMetricsKey = "=H*.8";
rightKerningGroup = Z;
rightMetricsKey = "=|";
unicode = 005A;
},
{
color = 9;
glyphname = B.001;
lastChange = "2021-01-27 09:34:15 +0000";
layers = (
{
layerId = "9527F797-22C1-480E-A1FE-2CDBEBE1FD4C";
rightMetricsKey = "=|*.45";
paths = (
{
closed = 1;
nodes = (
"355 0 LINE SMOOTH",
"563 0 OFFCURVE",
"665 67 OFFCURVE",
"665 205 CURVE SMOOTH",
"665 308 OFFCURVE",
"608 370 OFFCURVE",
"498 387 CURVE",
"498 389 LINE",
"585 407 OFFCURVE",
"635 466 OFFCURVE",
"635 553 CURVE SMOOTH",
"635 672 OFFCURVE",
"542 730 OFFCURVE",
"350 730 CURVE SMOOTH",
"95 730 LINE",
"95 0 LINE"
);
},
{
closed = 1;
nodes = (
"205 632 LINE",
"355 632 LINE SMOOTH",
"475 632 OFFCURVE",
"525 603 OFFCURVE",
"525 534 CURVE SMOOTH",
"525 463 OFFCURVE",
"472 430 OFFCURVE",
"355 430 CURVE SMOOTH",
"150 430 LINE",
"150 335 LINE",
"355 335 LINE SMOOTH",
"491 335 OFFCURVE",
"553 298 OFFCURVE",
"553 216 CURVE SMOOTH",
"553 134 OFFCURVE",
"492 98 OFFCURVE",
"355 98 CURVE SMOOTH",
"205 98 LINE"
);
}
);
width = 708;
},
{
layerId = "9E6B41AB-2970-4C41-8B35-4DBE0D296A43";
rightMetricsKey = "=|*.5";
paths = (
{
closed = 1;
nodes = (
"355 0 LINE SMOOTH",
"563 0 OFFCURVE",
"675 73 OFFCURVE",
"675 210 CURVE SMOOTH",
"675 310 OFFCURVE",
"616 370 OFFCURVE",
"505 384 CURVE",
"505 386 LINE",
"599 400 OFFCURVE",
"655 461 OFFCURVE",
"655 550 CURVE SMOOTH",
"655 668 OFFCURVE",
"548 730 OFFCURVE",
"345 730 CURVE SMOOTH",
"75 730 LINE",
"75 0 LINE"
);
},
{
closed = 1;
nodes = (
"275 575 LINE",
"355 575 LINE SMOOTH",
"428 575 OFFCURVE",
"455 558 OFFCURVE",
"455 512 CURVE SMOOTH",
"455 466 OFFCURVE",
"429 450 OFFCURVE",
"355 450 CURVE SMOOTH",
"175 450 LINE",
"175 300 LINE",
"355 300 LINE SMOOTH",
"435 300 OFFCURVE",
"470 278 OFFCURVE",
"470 228 CURVE SMOOTH",
"470 178 OFFCURVE",
"434 155 OFFCURVE",
"355 155 CURVE SMOOTH",
"275 155 LINE"
);
}
);
width = 713;
},
{
layerId = "D65C9A1E-0FCA-4B2D-8EDF-9F36CA9182A1";
rightMetricsKey = "=|*.4";
paths = (
{
closed = 1;
nodes = (
"355 0 LINE SMOOTH",
"559 0 OFFCURVE",
"655 63 OFFCURVE",
"655 200 CURVE SMOOTH",
"655 308 OFFCURVE",
"596 369 OFFCURVE",
"471 390 CURVE",
"471 392 LINE",
"567 414 OFFCURVE",
"615 467 OFFCURVE",
"615 555 CURVE SMOOTH",
"615 673 OFFCURVE",
"528 730 OFFCURVE",
"355 730 CURVE SMOOTH",
"115 730 LINE",
"115 0 LINE"
);
},
{
closed = 1;
nodes = (
"135 710 LINE",
"355 710 LINE SMOOTH",
"518 710 OFFCURVE",
"595 660 OFFCURVE",
"595 555 CURVE SMOOTH",
"595 450 OFFCURVE",
"518 400 OFFCURVE",
"355 400 CURVE SMOOTH",
"125 400 LINE",
"125 380 LINE",
"355 380 LINE SMOOTH",
"548 380 OFFCURVE",
"635 324 OFFCURVE",
"635 200 CURVE SMOOTH",
"635 76 OFFCURVE",
"548 20 OFFCURVE",
"355 20 CURVE SMOOTH",
"135 20 LINE"
);
}
);
width = 701;
}
);
leftKerningGroup = H;
leftMetricsKey = "=H";
rightKerningGroup = B;
rightMetricsKey = "=|*.5";
},
{
color = 9;
glyphname = E.001;
lastChange = "2021-01-27 09:34:15 +0000";
layers = (
{
anchors = (
{
name = bottom;
position = "{361, 0}";
},
{
name = ogonek;
position = "{595, 0}";
},
{
name = top;
position = "{361, 730}";
},
{
name = topleft;
position = "{23, 730}";
}
);
layerId = "D65C9A1E-0FCA-4B2D-8EDF-9F36CA9182A1";
rightMetricsKey = "=H*.75";
paths = (
{
closed = 1;
nodes = (
"595 0 LINE",
"595 20 LINE",
"135 20 LINE",
"135 380 LINE",
"575 380 LINE",
"575 400 LINE",
"135 400 LINE",
"135 710 LINE",
"595 710 LINE",
"595 730 LINE",
"115 730 LINE",
"115 0 LINE"
);
}
);
width = 681;
},
{
anchors = (
{
name = bottom;
position = "{353, 0}";
},
{
name = ogonek;
position = "{605, 0}";
},
{
name = top;
position = "{353, 730}";
},
{
name = topleft;
position = "{29, 730}";
}
);
layerId = "9527F797-22C1-480E-A1FE-2CDBEBE1FD4C";
rightMetricsKey = "=H*.8";
paths = (
{
closed = 1;
nodes = (
"605 0 LINE",
"605 98 LINE",
"205 98 LINE",
"205 334 LINE",
"585 334 LINE",
"585 430 LINE",
"205 430 LINE",
"205 632 LINE",
"605 632 LINE",
"605 730 LINE",
"95 730 LINE",
"95 0 LINE"
);
}
);
width = 681;
},
{
anchors = (
{
name = bottom;
position = "{345, 0}";
},
{
name = ogonek;
position = "{615, 0}";
},
{
name = top;
position = "{345, 730}";
},
{
name = topleft;
position = "{30, 730}";
}
);
layerId = "9E6B41AB-2970-4C41-8B35-4DBE0D296A43";
rightMetricsKey = "=H*.85";
paths = (
{
closed = 1;
nodes = (
"615 0 LINE",
"615 160 LINE",
"275 160 LINE",
"275 298 LINE",
"595 298 LINE",
"595 452 LINE",
"275 452 LINE",
"275 570 LINE",
"615 570 LINE",
"615 730 LINE",
"75 730 LINE",
"75 0 LINE"
);
}
);
width = 679;
}
);
leftKerningGroup = H;
leftMetricsKey = "=H";
rightKerningGroup = E;
rightMetricsKey = "=H*.85";
},
{
color = 9;
glyphname = F.001;
lastChange = "2021-01-27 09:34:15 +0000";
layers = (
{
layerId = "D65C9A1E-0FCA-4B2D-8EDF-9F36CA9182A1";
rightMetricsKey = "=H*.55";
paths = (
{
closed = 1;
nodes = (
"135 0 LINE",
"135 355 LINE",
"575 355 LINE",
"575 375 LINE",
"135 375 LINE",
"135 710 LINE",
"595 710 LINE",
"595 730 LINE",
"115 730 LINE",
"115 0 LINE"
);
}
);
width = 658;
},
{
layerId = "9527F797-22C1-480E-A1FE-2CDBEBE1FD4C";
rightMetricsKey = "=H*.65";
paths = (
{
closed = 1;
nodes = (
"205 0 LINE",
"205 309 LINE",
"585 309 LINE",
"585 407 LINE",
"205 407 LINE",
"205 630 LINE",
"605 630 LINE",
"605 730 LINE",
"95 730 LINE",
"95 0 LINE"
);
}
);
width = 667;
},
{
layerId = "9E6B41AB-2970-4C41-8B35-4DBE0D296A43";
rightMetricsKey = "=H*.75";
paths = (
{
closed = 1;
nodes = (
"275 0 LINE",
"275 270 LINE",
"595 270 LINE",
"595 430 LINE",
"275 430 LINE",
"275 565 LINE",
"615 565 LINE",
"615 730 LINE",
"75 730 LINE",
"75 0 LINE"
);
}
);
width = 671;
}
);
leftKerningGroup = H;
leftMetricsKey = "=H";
rightKerningGroup = F;
rightMetricsKey = "=H*.75";
},
{
color = 9;
glyphname = H.001;
lastChange = "2021-01-27 09:32:57 +0000";
layers = (
{
anchors = (
{
name = bottom;
position = "{380, 0}";
},
{
name = center;
position = "{380, 365}";
},
{
name = top;
position = "{380, 730}";
},
{
name = topleft;
position = "{30, 730}";
}
);
layerId = "D65C9A1E-0FCA-4B2D-8EDF-9F36CA9182A1";
paths = (
{
closed = 1;
nodes = (
"655 0 LINE",
"655 730 LINE",
"635 730 LINE",
"635 0 LINE"
);
},
{
closed = 1;
nodes = (
"125 0 LINE",
"125 730 LINE",
"105 730 LINE",
"105 0 LINE"
);
},
{
closed = 1;
nodes = (
"645 380 LINE",
"645 400 LINE",
"115 400 LINE",
"115 380 LINE"
);
}
);
width = 760;
},
{
anchors = (
{
name = bottom;
position = "{380, 0}";
},
{
name = center;
position = "{380, 365}";
},
{
name = top;
position = "{380, 730}";
},
{
name = topleft;
position = "{25, 730}";
}
);
layerId = "9527F797-22C1-480E-A1FE-2CDBEBE1FD4C";
paths = (
{
closed = 1;
nodes = (
"675 0 LINE",
"675 730 LINE",
"565 730 LINE",
"565 0 LINE"
);
},
{
closed = 1;
nodes = (
"195 0 LINE",
"195 730 LINE",
"85 730 LINE",
"85 0 LINE"
);
},
{
closed = 1;
nodes = (
"620 332 LINE",
"620 432 LINE",
"140 432 LINE",
"140 332 LINE"
);
}
);
width = 760;
},
{
anchors = (
{
name = bottom;
position = "{380, 0}";
},
{
name = center;
position = "{380, 365}";
},
{
name = top;
position = "{380, 730}";
},
{
name = topleft;
position = "{20, 730}";
}
);
layerId = "9E6B41AB-2970-4C41-8B35-4DBE0D296A43";
paths = (
{
closed = 1;
nodes = (
"695 0 LINE",
"695 730 LINE",
"495 730 LINE",
"495 0 LINE"
);
},
{
closed = 1;
nodes = (
"265 0 LINE",
"265 730 LINE",
"65 730 LINE",
"65 0 LINE"
);
},
{
closed = 1;
nodes = (
"595 290 LINE",
"595 460 LINE",
"165 460 LINE",
"165 290 LINE"
);
}
);
width = 760;
}
);
leftKerningGroup = H;
rightKerningGroup = H;
rightMetricsKey = "=|";
},
{
color = 9;
glyphname = J.001;
lastChange = "2021-01-27 09:34:15 +0000";
layers = (
{
anchors = (
{
name = bottom;
position = "{303, 0}";
},
{
name = top;
position = "{303, 730}";
}
);
layerId = "D65C9A1E-0FCA-4B2D-8EDF-9F36CA9182A1";
leftMetricsKey = "=H*.15";
paths = (
{
closed = 1;
nodes = (
"429 -10 OFFCURVE",
"517 85 OFFCURVE",
"517 280 CURVE SMOOTH",
"517 730 LINE",
"497 730 LINE",
"497 280 LINE SMOOTH",
"497 96 OFFCURVE",
"418 10 OFFCURVE",
"249 10 CURVE SMOOTH",
"165 10 OFFCURVE",
"85 31 OFFCURVE",
"28 67 CURVE",
"17 50 LINE",
"77 12 OFFCURVE",
"162 -10 OFFCURVE",
"249 -10 CURVE SMOOTH"
);
}
);
width = 620;
},
{
anchors = (
{
name = bottom;
position = "{298, 0}";
},
{
name = top;
position = "{298, 730}";
}
);
layerId = "9527F797-22C1-480E-A1FE-2CDBEBE1FD4C";
leftMetricsKey = "=H*.1";
paths = (
{
closed = 1;
nodes = (
"438 -10 OFFCURVE",
"530 83 OFFCURVE",
"530 280 CURVE SMOOTH",
"530 730 LINE",
"417 730 LINE",
"417 280 LINE SMOOTH",
"417 152 OFFCURVE",
"358 90 OFFCURVE",
"238 90 CURVE SMOOTH",
"174 90 OFFCURVE",
"100 108 OFFCURVE",
"30 140 CURVE",
"10 40 LINE",
"78 7 OFFCURVE",
"160 -10 OFFCURVE",
"244 -10 CURVE SMOOTH"
);
}
);
width = 616;
},
{
anchors = (
{
name = bottom;
position = "{295, 0}";
},
{
name = top;
position = "{295, 730}";
}
);
layerId = "9E6B41AB-2970-4C41-8B35-4DBE0D296A43";
leftMetricsKey = "=H*.05";
paths = (
{
closed = 1;
nodes = (
"452 -10 OFFCURVE",
"544 78 OFFCURVE",
"544 280 CURVE SMOOTH",
"544 730 LINE",
"339 730 LINE",
"339 280 LINE SMOOTH",
"339 203 OFFCURVE",
"302 165 OFFCURVE",
"228 165 CURVE SMOOTH",
"185 165 OFFCURVE",
"112 178 OFFCURVE",
"34 199 CURVE",
"4 29 LINE",
"76 4 OFFCURVE",
"159 -10 OFFCURVE",
"241 -10 CURVE SMOOTH"
);
}
);
width = 612;
}
);
leftKerningGroup = J;
leftMetricsKey = "=H*.05";
rightKerningGroup = U;
rightMetricsKey = "=U";
},
{
color = 9;
glyphname = L.001;
lastChange = "2021-01-27 09:34:15 +0000";
layers = (
{
anchors = (
{
name = bottom;
position = "{332, 0}";
},
{
name = center;
position = "{332, 375}";
},
{
name = pdcenter;
position = "{535, 375}";
},
{
name = top;
position = "{332, 730}";
},
{
name = topright;
position = "{603, 730}";
}
);
layerId = "D65C9A1E-0FCA-4B2D-8EDF-9F36CA9182A1";
rightMetricsKey = "=H*.5";
paths = (
{
closed = 1;
nodes = (
"595 0 LINE",
"595 20 LINE",
"135 20 LINE",
"135 730 LINE",
"115 730 LINE",
"115 0 LINE"
);
}
);
width = 653;
},
{
anchors = (
{
name = bottom;
position = "{328, 0}";
},
{
name = center;
position = "{328, 375}";
},
{
name = pdcenter;
position = "{575, 375}";
},
{
name = top;
position = "{328, 730}";
},
{
name = topright;
position = "{621, 730}";
}
);
layerId = "9527F797-22C1-480E-A1FE-2CDBEBE1FD4C";
rightMetricsKey = "=H*.45";
paths = (
{
closed = 1;
nodes = (
"605 0 LINE",
"605 100 LINE",
"208 100 LINE",
"208 730 LINE",
"95 730 LINE",
"95 0 LINE"
);
}
);
width = 648;
},
{
anchors = (
{
name = bottom;
position = "{326, 0}";
},
{
name = center;
position = "{326, 375}";
},
{
name = pdcenter;
position = "{615, 375}";
},
{
name = top;
position = "{326, 730}";
},
{
name = topright;
position = "{621, 730}";
}
);
layerId = "9E6B41AB-2970-4C41-8B35-4DBE0D296A43";
rightMetricsKey = "=H*.4";
paths = (
{
closed = 1;
nodes = (
"615 0 LINE",
"615 170 LINE",
"280 170 LINE",
"280 730 LINE",
"75 730 LINE",
"75 0 LINE"
);
}
);
width = 645;
}
);
leftKerningGroup = H;
leftMetricsKey = "=H";
rightKerningGroup = L;
rightMetricsKey = "=H*.4";
},
{
color = 9;
glyphname = P.001;
lastChange = "2021-01-27 09:34:15 +0000";
layers = (
{
layerId = "D65C9A1E-0FCA-4B2D-8EDF-9F36CA9182A1";
rightMetricsKey = "=H*.3";
paths = (
{
closed = 1;
nodes = (
"135 0 LINE",
"135 710 LINE",
"292 710 LINE SMOOTH",
"520 710 OFFCURVE",
"615 650 OFFCURVE",
"615 510 CURVE SMOOTH",
"615 370 OFFCURVE",
"520 310 OFFCURVE",
"292 310 CURVE SMOOTH",
"125 310 LINE",
"125 290 LINE",
"292 290 LINE SMOOTH",
"531 290 OFFCURVE",
"635 357 OFFCURVE",
"635 510 CURVE SMOOTH",
"635 663 OFFCURVE",
"531 730 OFFCURVE",
"292 730 CURVE SMOOTH",
"115 730 LINE",
"115 0 LINE"
);
}
);
width = 670;
},
{
layerId = "9527F797-22C1-480E-A1FE-2CDBEBE1FD4C";
rightMetricsKey = "=H*.35";
paths = (
{
closed = 1;
nodes = (
"205 0 LINE",
"205 630 LINE",
"307 630 LINE SMOOTH",
"472 630 OFFCURVE",
"543 587 OFFCURVE",
"543 487 CURVE SMOOTH",
"543 387 OFFCURVE",
"472 344 OFFCURVE",
"307 344 CURVE SMOOTH",
"150 344 LINE",
"150 244 LINE",
"320 244 LINE SMOOTH",
"546 244 OFFCURVE",
"655 323 OFFCURVE",
"655 487 CURVE SMOOTH",
"655 653 OFFCURVE",
"543 730 OFFCURVE",
"305 730 CURVE SMOOTH",
"95 730 LINE",
"95 0 LINE"
);
}
);
width = 688;
},
{
layerId = "9E6B41AB-2970-4C41-8B35-4DBE0D296A43";
rightMetricsKey = "=H*.4";
paths = (
{
closed = 1;
nodes = (
"275 0 LINE",
"275 570 LINE",
"322 570 LINE SMOOTH",
"424 570 OFFCURVE",
"470 537 OFFCURVE",
"470 465 CURVE SMOOTH",
"470 393 OFFCURVE",
"424 360 OFFCURVE",
"322 360 CURVE SMOOTH",
"175 360 LINE",
"175 200 LINE",
"348 200 LINE SMOOTH",
"560 200 OFFCURVE",
"675 293 OFFCURVE",
"675 465 CURVE SMOOTH",
"675 641 OFFCURVE",
"555 730 OFFCURVE",
"317 730 CURVE SMOOTH",
"75 730 LINE",
"75 0 LINE"
);
}
);
width = 705;
}
);
leftKerningGroup = H;
leftMetricsKey = "=H";
rightKerningGroup = P;
rightMetricsKey = "=H*.4";
},
{
color = 9;
glyphname = R.001;
lastChange = "2021-01-27 09:34:15 +0000";
layers = (
{
anchors = (
{
name = bottom;
position = "{350, 0}";
},
{
name = top;
position = "{350, 730}";
}
);
layerId = "9527F797-22C1-480E-A1FE-2CDBEBE1FD4C";
paths = (
{
closed = 1;
nodes = (
"205 0 LINE",
"205 630 LINE",
"326 630 LINE SMOOTH",
"478 630 OFFCURVE",
"543 592 OFFCURVE",
"543 504 CURVE SMOOTH",
"543 416 OFFCURVE",
"478 378 OFFCURVE",
"326 378 CURVE SMOOTH",
"150 378 LINE",
"150 282 LINE",
"342 282 LINE SMOOTH",
"552 282 OFFCURVE",
"655 356 OFFCURVE",
"655 508 CURVE SMOOTH",
"655 661 OFFCURVE",
"551 730 OFFCURVE",
"321 730 CURVE SMOOTH",
"95 730 LINE",
"95 0 LINE"
);
},
{
closed = 1;
nodes = (
"675 0 LINE",
"380 330 LINE",
"242 330 LINE",
"535 0 LINE"
);
}
);
width = 713;
},
{
anchors = (
{
name = bottom;
position = "{350, 0}";
},
{
name = top;
position = "{350, 730}";
}
);
associatedMasterId = "9527F797-22C1-480E-A1FE-2CDBEBE1FD4C";
layerId = "7FAAC43C-2BE6-4DB8-A2A6-2B62B2F8933B";
name = "Medium [500]";
paths = (
{
closed = 1;
nodes = (
"205 0 LINE",
"205 630 LINE",
"326 630 LINE SMOOTH",
"478 630 OFFCURVE",
"543 592 OFFCURVE",
"543 504 CURVE SMOOTH",
"543 416 OFFCURVE",
"478 378 OFFCURVE",
"326 378 CURVE SMOOTH",
"150 378 LINE",
"150 282 LINE",
"342 282 LINE SMOOTH",
"552 282 OFFCURVE",
"655 356 OFFCURVE",
"655 508 CURVE SMOOTH",
"655 661 OFFCURVE",
"551 730 OFFCURVE",
"321 730 CURVE SMOOTH",
"95 730 LINE",
"95 0 LINE"
);
},
{
closed = 1;
nodes = (
"675 0 LINE",
"303 330 LINE",
"153 330 LINE",
"523 0 LINE"
);
}
);
width = 713;
},
{
anchors = (
{
name = bottom;
position = "{350, 0}";
},
{
name = top;
position = "{350, 730}";
}
);
layerId = "9E6B41AB-2970-4C41-8B35-4DBE0D296A43";
paths = (
{
closed = 1;
nodes = (
"275 0 LINE",
"275 570 LINE",
"334 570 LINE SMOOTH",
"427 570 OFFCURVE",
"470 542 OFFCURVE",
"470 480 CURVE SMOOTH",
"470 418 OFFCURVE",
"427 390 OFFCURVE",
"334 390 CURVE SMOOTH",
"175 390 LINE",
"175 244 LINE",
"365 244 LINE SMOOTH",
"566 244 OFFCURVE",
"675 330 OFFCURVE",
"675 490 CURVE SMOOTH",
"675 652 OFFCURVE",
"561 730 OFFCURVE",
"324 730 CURVE SMOOTH",
"75 730 LINE",
"75 0 LINE"
);
},
{
closed = 1;
nodes = (
"695 0 LINE",
"491 317 LINE",
"273 317 LINE",
"475 0 LINE"
);
}
);
width = 725;
},
{
anchors = (
{
name = bottom;
position = "{350, 0}";
},
{
name = top;
position = "{350, 730}";
}
);
associatedMasterId = "9E6B41AB-2970-4C41-8B35-4DBE0D296A43";
layerId = "A0CD4DB6-9549-4527-815B-AA5EA254ECA0";
name = "Black [500]";
paths = (
{
closed = 1;
nodes = (
"275 0 LINE",
"275 570 LINE",
"334 570 LINE SMOOTH",
"427 570 OFFCURVE",
"470 542 OFFCURVE",
"470 480 CURVE SMOOTH",
"470 418 OFFCURVE",
"427 390 OFFCURVE",
"334 390 CURVE SMOOTH",
"175 390 LINE",
"175 244 LINE",
"365 244 LINE SMOOTH",
"566 244 OFFCURVE",
"675 330 OFFCURVE",
"675 490 CURVE SMOOTH",
"675 652 OFFCURVE",
"561 730 OFFCURVE",
"324 730 CURVE SMOOTH",
"75 730 LINE",
"75 0 LINE"
);
},
{
closed = 1;
nodes = (
"695 0 LINE",
"436 317 LINE",
"218 317 LINE",
"475 0 LINE"
);
}
);
width = 725;
},
{
anchors = (
{
name = bottom;
position = "{350, 0}";
},
{
name = top;
position = "{350, 730}";
}
);
associatedMasterId = "D65C9A1E-0FCA-4B2D-8EDF-9F36CA9182A1";
layerId = "9D907E83-DDF0-4699-AFF8-E452C4DC2A5B";
name = "Thin [500]";
paths = (
{
closed = 1;
nodes = (
"135 0 LINE",
"135 710 LINE",
"318 710 LINE SMOOTH",
"529 710 OFFCURVE",
"615 655 OFFCURVE",
"615 525 CURVE SMOOTH",
"615 395 OFFCURVE",
"529 340 OFFCURVE",
"318 340 CURVE SMOOTH",
"125 340 LINE",
"125 320 LINE",
"318 320 LINE SMOOTH",
"539 320 OFFCURVE",
"635 382 OFFCURVE",
"635 525 CURVE SMOOTH",
"635 668 OFFCURVE",
"539 730 OFFCURVE",
"318 730 CURVE SMOOTH",
"115 730 LINE",
"115 0 LINE"
);
},
{
closed = 1;
nodes = (
"655 0 LINE",
"268 331 LINE",
"238 331 LINE",
"624 0 LINE"
);
}
);
width = 701;
},
{
anchors = (
{
name = bottom;
position = "{350, 0}";
},
{
name = top;
position = "{350, 730}";
}
);
layerId = "D65C9A1E-0FCA-4B2D-8EDF-9F36CA9182A1";
paths = (
{
closed = 1;
nodes = (
"135 0 LINE",
"135 710 LINE",
"318 710 LINE SMOOTH",
"529 710 OFFCURVE",
"615 655 OFFCURVE",
"615 525 CURVE SMOOTH",
"615 395 OFFCURVE",
"529 340 OFFCURVE",
"318 340 CURVE SMOOTH",
"125 340 LINE",
"125 320 LINE",
"318 320 LINE SMOOTH",
"539 320 OFFCURVE",
"635 382 OFFCURVE",
"635 525 CURVE SMOOTH",
"635 668 OFFCURVE",
"539 730 OFFCURVE",
"318 730 CURVE SMOOTH",
"115 730 LINE",
"115 0 LINE"
);
},
{
closed = 1;
nodes = (
"655 0 LINE",
"268 331 LINE",
"238 331 LINE",
"624 0 LINE"
);
}
);
width = 701;
}
);
leftKerningGroup = H;
leftMetricsKey = "=H";
rightKerningGroup = R;
rightMetricsKey = "=H*.4";
},
{
color = 9;
glyphname = S.001;
lastChange = "2021-01-27 09:34:15 +0000";
layers = (
{
anchors = (
{
name = bottom;
position = "{337, 0}";
},
{
name = cedi;
position = "{279, 0}";
},
{
name = top;
position = "{337, 730}";
}
);
background = {
paths = (
{
closed = 0;
nodes = (
"85 57 LINE",
"156 20 OFFCURVE",
"246 0 OFFCURVE",
"334 0 CURVE SMOOTH",
"494 0 OFFCURVE",
"590 68 OFFCURVE",
"590 183 CURVE SMOOTH",
"590 445 OFFCURVE",
"91 313 OFFCURVE",
"91 561 CURVE SMOOTH",
"91 667 OFFCURVE",
"182 730 OFFCURVE",
"334 730 CURVE SMOOTH",
"421 730 OFFCURVE",
"522 709 OFFCURVE",
"576 681 CURVE"
);
}
);
};
layerId = "D65C9A1E-0FCA-4B2D-8EDF-9F36CA9182A1";
leftMetricsKey = "=H*.7";
paths = (
{
closed = 1;
nodes = (
"500 -10 OFFCURVE",
"600 62 OFFCURVE",
"600 183 CURVE SMOOTH",
"600 324 OFFCURVE",
"464 357 OFFCURVE",
"338 388 CURVE SMOOTH",
"215 419 OFFCURVE",
"101 447 OFFCURVE",
"101 561 CURVE SMOOTH",
"101 661 OFFCURVE",
"187 720 OFFCURVE",
"334 720 CURVE SMOOTH",
"418 720 OFFCURVE",
"518 700 OFFCURVE",
"571 672 CURVE",
"581 690 LINE",
"524 719 OFFCURVE",
"421 740 OFFCURVE",
"334 740 CURVE SMOOTH",
"176 740 OFFCURVE",
"81 673 OFFCURVE",
"81 561 CURVE SMOOTH",
"81 431 OFFCURVE",
"210 399 OFFCURVE",
"333 369 CURVE SMOOTH",
"459 338 OFFCURVE",
"580 308 OFFCURVE",
"580 183 CURVE SMOOTH",
"580 74 OFFCURVE",
"489 10 OFFCURVE",
"334 10 CURVE SMOOTH",
"246 10 OFFCURVE",
"158 30 OFFCURVE",
"90 66 CURVE",
"80 48 LINE",
"152 11 OFFCURVE",
"243 -10 OFFCURVE",
"334 -10 CURVE SMOOTH"
);
}
);
width = 680;
},
{
anchors = (
{
name = bottom;
position = "{339, 0}";
},
{
name = cedi;
position = "{270, 0}";
},
{
name = top;
position = "{339, 730}";
}
);
layerId = "9527F797-22C1-480E-A1FE-2CDBEBE1FD4C";
leftMetricsKey = "=H*.65";
paths = (
{
closed = 1;
nodes = (
"515 -10 OFFCURVE",
"622 66 OFFCURVE",
"622 197 CURVE SMOOTH",
"622 306 OFFCURVE",
"552 366 OFFCURVE",
"372 415 CURVE SMOOTH",
"221 457 OFFCURVE",
"177 486 OFFCURVE",
"177 542 CURVE SMOOTH",
"177 606 OFFCURVE",
"233 640 OFFCURVE",
"341 640 CURVE SMOOTH",
"423 640 OFFCURVE",
"509 621 OFFCURVE",
"572 589 CURVE",
"598 691 LINE",
"536 721 OFFCURVE",
"435 740 OFFCURVE",
"343 740 CURVE SMOOTH",
"165 740 OFFCURVE",
"62 668 OFFCURVE",
"62 543 CURVE SMOOTH",
"62 437 OFFCURVE",
"133 375 OFFCURVE",
"305 329 CURVE SMOOTH",
"460 288 OFFCURVE",
"507 258 OFFCURVE",
"507 198 CURVE SMOOTH",
"507 129 OFFCURVE",
"447 90 OFFCURVE",
"339 90 CURVE SMOOTH",
"255 90 OFFCURVE",
"159 114 OFFCURVE",
"91 153 CURVE",
"65 51 LINE",
"134 12 OFFCURVE",
"232 -10 OFFCURVE",
"332 -10 CURVE SMOOTH"
);
}
);
width = 684;
},
{
anchors = (
{
name = bottom;
position = "{342, 0}";
},
{
name = cedi;
position = "{261, 0}";
},
{
name = top;
position = "{342, 730}";
}
);
layerId = "9E6B41AB-2970-4C41-8B35-4DBE0D296A43";
leftMetricsKey = "=H*.6";
paths = (
{
closed = 1;
nodes = (
"532 -10 OFFCURVE",
"645 69 OFFCURVE",
"645 210 CURVE SMOOTH",
"645 320 OFFCURVE",
"577 384 OFFCURVE",
"407 434 CURVE SMOOTH",
"284 470 OFFCURVE",
"255 488 OFFCURVE",
"255 526 CURVE SMOOTH",
"255 560 OFFCURVE",
"285 575 OFFCURVE",
"350 575 CURVE SMOOTH",
"423 575 OFFCURVE",
"506 555 OFFCURVE",
"574 522 CURVE",
"616 692 LINE",
"547 722 OFFCURVE",
"448 740 OFFCURVE",
"353 740 CURVE SMOOTH",
"155 740 OFFCURVE",
"45 663 OFFCURVE",
"45 525 CURVE SMOOTH",
"45 410 OFFCURVE",
"115 342 OFFCURVE",
"279 297 CURVE SMOOTH",
"408 261 OFFCURVE",
"435 246 OFFCURVE",
"435 210 CURVE SMOOTH",
"435 175 OFFCURVE",
"402 155 OFFCURVE",
"345 155 CURVE SMOOTH",
"273 155 OFFCURVE",
"160 186 OFFCURVE",
"93 224 CURVE",
"51 54 LINE",
"116 14 OFFCURVE",
"219 -10 OFFCURVE",
"332 -10 CURVE SMOOTH"
);
}
);
width = 690;
}
);
leftKerningGroup = S;
leftMetricsKey = "=H*.6";
rightKerningGroup = S;
rightMetricsKey = "=|";
},
{
color = 9;
glyphname = U.001;
lastChange = "2021-01-27 09:34:15 +0000";
layers = (
{
anchors = (
{
name = bottom;
position = "{373, 0}";
},
{
name = ogonek;
position = "{486, 10}";
},
{
name = top;
position = "{373, 730}";
},
{
name = top_ring;
position = "{373, 700}";
},
{
name = topright;
position = "{643, 690}";
}
);
layerId = "D65C9A1E-0FCA-4B2D-8EDF-9F36CA9182A1";
paths = (
{
closed = 1;
nodes = (
"552 -10 OFFCURVE",
"643 85 OFFCURVE",
"643 270 CURVE SMOOTH",
"643 730 LINE",
"623 730 LINE",
"623 270 LINE SMOOTH",
"623 96 OFFCURVE",
"540 10 OFFCURVE",
"373 10 CURVE SMOOTH",
"206 10 OFFCURVE",
"123 96 OFFCURVE",
"123 270 CURVE SMOOTH",
"123 730 LINE",
"103 730 LINE",
"103 270 LINE SMOOTH",
"103 85 OFFCURVE",
"194 -10 OFFCURVE",
"373 -10 CURVE SMOOTH"
);
}
);
width = 746;
},
{
anchors = (
{
name = bottom;
position = "{375, 0}";
},
{
name = ogonek;
position = "{497, 10}";
},
{
name = top;
position = "{375, 730}";
},
{
name = top_ring;
position = "{375, 710}";
},
{
name = topright;
position = "{651, 690}";
}
);
layerId = "9527F797-22C1-480E-A1FE-2CDBEBE1FD4C";
paths = (
{
closed = 1;
nodes = (
"565 -10 OFFCURVE",
"665 87 OFFCURVE",
"665 270 CURVE SMOOTH",
"665 730 LINE",
"555 730 LINE",
"555 283 LINE SMOOTH",
"555 149 OFFCURVE",
"500 90 OFFCURVE",
"375 90 CURVE SMOOTH",
"250 90 OFFCURVE",
"195 149 OFFCURVE",
"195 283 CURVE SMOOTH",
"195 730 LINE",
"85 730 LINE",
"85 270 LINE SMOOTH",
"85 87 OFFCURVE",
"185 -10 OFFCURVE",
"375 -10 CURVE SMOOTH"
);
}
);
width = 750;
},
{
anchors = (
{
name = bottom;
position = "{378, 0}";
},
{
name = ogonek;
position = "{508, 10}";
},
{
name = top;
position = "{378, 730}";
},
{
name = top_ring;
position = "{378, 720}";
},
{
name = topright;
position = "{658, 690}";
}
);
layerId = "9E6B41AB-2970-4C41-8B35-4DBE0D296A43";
paths = (
{
closed = 1;
nodes = (
"579 -10 OFFCURVE",
"688 88 OFFCURVE",
"688 270 CURVE SMOOTH",
"688 730 LINE",
"488 730 LINE",
"488 295 LINE SMOOTH",
"488 194 OFFCURVE",
"460 160 OFFCURVE",
"378 160 CURVE SMOOTH",
"296 160 OFFCURVE",
"268 194 OFFCURVE",
"268 295 CURVE SMOOTH",
"268 730 LINE",
"68 730 LINE",
"68 270 LINE SMOOTH",
"68 88 OFFCURVE",
"176 -10 OFFCURVE",
"378 -10 CURVE SMOOTH"
);
}
);
width = 756;
}
);
leftKerningGroup = U;
leftMetricsKey = "=H*.9";
rightKerningGroup = U;
rightMetricsKey = "=|";
},
{
color = 9;
glyphname = J.002;
lastChange = "2021-02-11 09:26:55 +0000";
layers = (
{
anchors = (
{
name = bottom;
position = "{292, 0}";
},
{
name = top;
position = "{292, 730}";
}
);
background = {
anchors = (
{
name = bottom;
position = "{293, 0}";
},
{
name = top;
position = "{293, 730}";
}
);
};
layerId = "9527F797-22C1-480E-A1FE-2CDBEBE1FD4C";
leftMetricsKey = "=H*.1";
paths = (
{
closed = 1;
nodes = (
"423 -10 OFFCURVE",
"519 79 OFFCURVE",
"519 250 CURVE SMOOTH",
"519 730 LINE",
"406 730 LINE",
"406 275 LINE SMOOTH",
"406 147 OFFCURVE",
"353 90 OFFCURVE",
"234 90 CURVE SMOOTH",
"162 90 OFFCURVE",
"95 111 OFFCURVE",
"31 155 CURVE",
"9 50 LINE",
"86 8 OFFCURVE",
"156 -10 OFFCURVE",
"239 -10 CURVE SMOOTH"
);
}
);
width = 605;
},
{
anchors = (
{
name = bottom;
position = "{295, 0}";
},
{
name = top;
position = "{295, 730}";
}
);
layerId = "9E6B41AB-2970-4C41-8B35-4DBE0D296A43";
leftMetricsKey = "=H*.05";
paths = (
{
closed = 1;
nodes = (
"436 -10 OFFCURVE",
"544 86 OFFCURVE",
"544 260 CURVE SMOOTH",
"544 730 LINE",
"339 730 LINE",
"339 310 LINE SMOOTH",
"339 207 OFFCURVE",
"308 165 OFFCURVE",
"231 165 CURVE SMOOTH",
"177 165 OFFCURVE",
"102 186 OFFCURVE",
"34 219 CURVE",
"4 39 LINE",
"87 5 OFFCURVE",
"161 -10 OFFCURVE",
"241 -10 CURVE SMOOTH"
);
}
);
width = 612;
},
{
anchors = (
{
name = bottom;
position = "{294, 0}";
},
{
name = top;
position = "{294, 730}";
}
);
layerId = "D65C9A1E-0FCA-4B2D-8EDF-9F36CA9182A1";
leftMetricsKey = "=H*.15";
paths = (
{
closed = 1;
nodes = (
"409 -10 OFFCURVE",
"497 76 OFFCURVE",
"497 240 CURVE SMOOTH",
"497 730 LINE",
"477 730 LINE",
"477 240 LINE SMOOTH",
"477 87 OFFCURVE",
"398 10 OFFCURVE",
"240 10 CURVE SMOOTH",
"157 10 OFFCURVE",
"89 31 OFFCURVE",
"29 76 CURVE",
"17 60 LINE",
"80 13 OFFCURVE",
"153 -10 OFFCURVE",
"240 -10 CURVE SMOOTH"
);
}
);
width = 600;
}
);
leftKerningGroup = J;
leftMetricsKey = "=H*.05";
rightKerningGroup = U;
rightMetricsKey = "=U";
},
{
color = 9;
glyphname = P.002;
lastChange = "2021-01-27 09:34:15 +0000";
layers = (
{
layerId = "D65C9A1E-0FCA-4B2D-8EDF-9F36CA9182A1";
rightMetricsKey = "=H*.3";
paths = (
{
closed = 1;
nodes = (
"135 0 LINE",
"135 710 LINE",
"332 710 LINE SMOOTH",
"532 710 OFFCURVE",
"615 651 OFFCURVE",
"615 510 CURVE SMOOTH",
"615 369 OFFCURVE",
"532 310 OFFCURVE",
"332 310 CURVE SMOOTH",
"125 310 LINE",
"125 290 LINE",
"332 290 LINE SMOOTH",
"543 290 OFFCURVE",
"635 357 OFFCURVE",
"635 510 CURVE SMOOTH",
"635 663 OFFCURVE",
"543 730 OFFCURVE",
"332 730 CURVE SMOOTH",
"115 730 LINE",
"115 0 LINE"
);
}
);
width = 670;
},
{
layerId = "9527F797-22C1-480E-A1FE-2CDBEBE1FD4C";
rightMetricsKey = "=H*.35";
paths = (
{
closed = 1;
nodes = (
"205 0 LINE",
"205 630 LINE",
"337 630 LINE SMOOTH",
"481 630 OFFCURVE",
"543 587 OFFCURVE",
"543 487 CURVE SMOOTH",
"543 387 OFFCURVE",
"481 344 OFFCURVE",
"337 344 CURVE SMOOTH",
"150 344 LINE",
"150 244 LINE",
"350 244 LINE SMOOTH",
"555 244 OFFCURVE",
"655 324 OFFCURVE",
"655 487 CURVE SMOOTH",
"655 652 OFFCURVE",
"552 730 OFFCURVE",
"335 730 CURVE SMOOTH",
"95 730 LINE",
"95 0 LINE"
);
}
);
width = 688;
},
{
layerId = "9E6B41AB-2970-4C41-8B35-4DBE0D296A43";
rightMetricsKey = "=H*.4";
paths = (
{
closed = 1;
nodes = (
"275 0 LINE",
"275 570 LINE",
"342 570 LINE SMOOTH",
"430 570 OFFCURVE",
"470 537 OFFCURVE",
"470 465 CURVE SMOOTH",
"470 393 OFFCURVE",
"430 360 OFFCURVE",
"342 360 CURVE SMOOTH",
"175 360 LINE",
"175 200 LINE",
"368 200 LINE SMOOTH",
"567 200 OFFCURVE",
"675 293 OFFCURVE",
"675 465 CURVE SMOOTH",
"675 641 OFFCURVE",
"562 730 OFFCURVE",
"337 730 CURVE SMOOTH",
"75 730 LINE",
"75 0 LINE"
);
}
);
width = 705;
}
);
leftKerningGroup = H;
leftMetricsKey = "=H";
rightKerningGroup = P;
rightMetricsKey = "=H*.4";
},
{
color = 9;
glyphname = R.002;
lastChange = "2021-01-27 09:34:15 +0000";
layers = (
{
anchors = (
{
name = bottom;
position = "{350, 0}";
},
{
name = top;
position = "{350, 730}";
}
);
layerId = "D65C9A1E-0FCA-4B2D-8EDF-9F36CA9182A1";
paths = (
{
closed = 1;
nodes = (
"135 0 LINE",
"135 710 LINE",
"318 710 LINE SMOOTH",
"530 710 OFFCURVE",
"615 657 OFFCURVE",
"615 530 CURVE SMOOTH",
"615 403 OFFCURVE",
"530 350 OFFCURVE",
"318 350 CURVE SMOOTH",
"125 350 LINE",
"125 330 LINE",
"318 330 LINE SMOOTH",
"540 330 OFFCURVE",
"635 390 OFFCURVE",
"635 530 CURVE SMOOTH",
"635 670 OFFCURVE",
"540 730 OFFCURVE",
"318 730 CURVE SMOOTH",
"115 730 LINE",
"115 0 LINE"
);
},
{
closed = 1;
nodes = (
"655 0 LINE",
"158 340 LINE",
"122 340 LINE",
"619 0 LINE"
);
}
);
width = 701;
},
{
anchors = (
{
name = bottom;
position = "{350, 0}";
},
{
name = top;
position = "{350, 730}";
}
);
layerId = "9E6B41AB-2970-4C41-8B35-4DBE0D296A43";
paths = (
{
closed = 1;
nodes = (
"275 0 LINE",
"275 570 LINE",
"334 570 LINE SMOOTH",
"428 570 OFFCURVE",
"470 544 OFFCURVE",
"470 485 CURVE SMOOTH",
"470 426 OFFCURVE",
"428 400 OFFCURVE",
"334 400 CURVE SMOOTH",
"175 400 LINE",
"175 254 LINE",
"365 254 LINE SMOOTH",
"566 254 OFFCURVE",
"675 339 OFFCURVE",
"675 495 CURVE SMOOTH",
"675 654 OFFCURVE",
"561 730 OFFCURVE",
"324 730 CURVE SMOOTH",
"75 730 LINE",
"75 0 LINE"
);
},
{
closed = 1;
nodes = (
"695 0 LINE",
"438 327 LINE",
"220 327 LINE",
"475 0 LINE"
);
}
);
width = 725;
},
{
anchors = (
{
name = bottom;
position = "{350, 0}";
},
{
name = top;
position = "{350, 730}";
}
);
layerId = "9527F797-22C1-480E-A1FE-2CDBEBE1FD4C";
paths = (
{
closed = 1;
nodes = (
"205 0 LINE",
"205 630 LINE",
"326 630 LINE SMOOTH",
"478 630 OFFCURVE",
"543 594 OFFCURVE",
"543 509 CURVE SMOOTH",
"543 424 OFFCURVE",
"478 388 OFFCURVE",
"326 388 CURVE SMOOTH",
"150 388 LINE",
"150 292 LINE",
"342 292 LINE SMOOTH",
"552 292 OFFCURVE",
"655 365 OFFCURVE",
"655 513 CURVE SMOOTH",
"655 662 OFFCURVE",
"551 730 OFFCURVE",
"321 730 CURVE SMOOTH",
"95 730 LINE",
"95 0 LINE"
);
},
{
closed = 1;
nodes = (
"675 0 LINE",
"305 340 LINE",
"155 340 LINE",
"523 0 LINE"
);
}
);
width = 713;
}
);
leftKerningGroup = H;
leftMetricsKey = "=H";
rightKerningGroup = R;
rightMetricsKey = "=H*.4";
},
{
color = 9;
glyphname = R.003;
lastChange = "2021-01-27 09:34:15 +0000";
layers = (
{
anchors = (
{
name = bottom;
position = "{350, 0}";
},
{
name = top;
position = "{350, 730}";
}
);
layerId = "D65C9A1E-0FCA-4B2D-8EDF-9F36CA9182A1";
paths = (
{
closed = 1;
nodes = (
"135 0 LINE",
"135 710 LINE",
"318 710 LINE SMOOTH",
"530 710 OFFCURVE",
"615 657 OFFCURVE",
"615 530 CURVE SMOOTH",
"615 403 OFFCURVE",
"530 350 OFFCURVE",
"318 350 CURVE SMOOTH",
"125 350 LINE",
"125 330 LINE",
"318 330 LINE SMOOTH",
"540 330 OFFCURVE",
"635 390 OFFCURVE",
"635 530 CURVE SMOOTH",
"635 670 OFFCURVE",
"540 730 OFFCURVE",
"318 730 CURVE SMOOTH",
"115 730 LINE",
"115 0 LINE"
);
},
{
closed = 1;
nodes = (
"655 0 LINE",
"208 340 LINE",
"175 340 LINE",
"622 0 LINE"
);
}
);
width = 701;
},
{
anchors = (
{
name = bottom;
position = "{350, 0}";
},
{
name = top;
position = "{350, 730}";
}
);
layerId = "9E6B41AB-2970-4C41-8B35-4DBE0D296A43";
paths = (
{
closed = 1;
nodes = (
"275 0 LINE",
"275 570 LINE",
"334 570 LINE SMOOTH",
"428 570 OFFCURVE",
"470 544 OFFCURVE",
"470 485 CURVE SMOOTH",
"470 426 OFFCURVE",
"428 400 OFFCURVE",
"334 400 CURVE SMOOTH",
"175 400 LINE",
"175 254 LINE",
"365 254 LINE SMOOTH",
"566 254 OFFCURVE",
"675 339 OFFCURVE",
"675 495 CURVE SMOOTH",
"675 654 OFFCURVE",
"561 730 OFFCURVE",
"324 730 CURVE SMOOTH",
"75 730 LINE",
"75 0 LINE"
);
},
{
closed = 1;
nodes = (
"695 0 LINE",
"438 327 LINE",
"220 327 LINE",
"475 0 LINE"
);
}
);
width = 725;
},
{
anchors = (
{
name = bottom;
position = "{350, 0}";
},
{
name = top;
position = "{350, 730}";
}
);
layerId = "9527F797-22C1-480E-A1FE-2CDBEBE1FD4C";
paths = (
{
closed = 1;
nodes = (
"205 0 LINE",
"205 630 LINE",
"326 630 LINE SMOOTH",
"478 630 OFFCURVE",
"543 594 OFFCURVE",
"543 509 CURVE SMOOTH",
"543 424 OFFCURVE",
"478 388 OFFCURVE",
"326 388 CURVE SMOOTH",
"150 388 LINE",
"150 292 LINE",
"342 292 LINE SMOOTH",
"552 292 OFFCURVE",
"655 365 OFFCURVE",
"655 513 CURVE SMOOTH",
"655 662 OFFCURVE",
"551 730 OFFCURVE",
"321 730 CURVE SMOOTH",
"95 730 LINE",
"95 0 LINE"
);
},
{
closed = 1;
nodes = (
"675 0 LINE",
"335 340 LINE",
"191 340 LINE",
"529 0 LINE"
);
}
);
width = 713;
}
);
leftKerningGroup = H;
leftMetricsKey = "=H";
rightKerningGroup = R;
rightMetricsKey = "=H*.4";
},
{
color = 9;
glyphname = R.004;
lastChange = "2021-01-27 09:34:15 +0000";
layers = (
{
anchors = (
{
name = bottom;
position = "{350, 0}";
},
{
name = top;
position = "{350, 730}";
}
);
layerId = "D65C9A1E-0FCA-4B2D-8EDF-9F36CA9182A1";
paths = (
{
closed = 1;
nodes = (
"135 0 LINE",
"135 710 LINE",
"348 710 LINE SMOOTH",
"538 710 OFFCURVE",
"615 657 OFFCURVE",
"615 530 CURVE SMOOTH",
"615 403 OFFCURVE",
"538 350 OFFCURVE",
"348 350 CURVE SMOOTH",
"125 350 LINE",
"125 330 LINE",
"348 330 LINE SMOOTH",
"549 330 OFFCURVE",
"635 390 OFFCURVE",
"635 530 CURVE SMOOTH",
"635 670 OFFCURVE",
"549 730 OFFCURVE",
"348 730 CURVE SMOOTH",
"115 730 LINE",
"115 0 LINE"
);
},
{
closed = 1;
nodes = (
"655 0 LINE",
"208 340 LINE",
"175 340 LINE",
"622 0 LINE"
);
}
);
width = 701;
},
{
anchors = (
{
name = bottom;
position = "{350, 0}";
},
{
name = top;
position = "{350, 730}";
}
);
layerId = "9E6B41AB-2970-4C41-8B35-4DBE0D296A43";
paths = (
{
closed = 1;
nodes = (
"275 0 LINE",
"275 570 LINE",
"364 570 LINE SMOOTH",
"437 570 OFFCURVE",
"470 544 OFFCURVE",
"470 485 CURVE SMOOTH",
"470 426 OFFCURVE",
"437 400 OFFCURVE",
"364 400 CURVE SMOOTH",
"175 400 LINE",
"175 254 LINE",
"395 254 LINE SMOOTH",
"577 254 OFFCURVE",
"675 339 OFFCURVE",
"675 495 CURVE SMOOTH",
"675 654 OFFCURVE",
"571 730 OFFCURVE",
"354 730 CURVE SMOOTH",
"75 730 LINE",
"75 0 LINE"
);
},
{
closed = 1;
nodes = (
"695 0 LINE",
"438 327 LINE",
"220 327 LINE",
"475 0 LINE"
);
}
);
width = 725;
},
{
anchors = (
{
name = bottom;
position = "{350, 0}";
},
{
name = top;
position = "{350, 730}";
}
);
layerId = "9527F797-22C1-480E-A1FE-2CDBEBE1FD4C";
paths = (
{
closed = 1;
nodes = (
"205 0 LINE",
"205 630 LINE",
"356 630 LINE SMOOTH",
"488 630 OFFCURVE",
"543 594 OFFCURVE",
"543 509 CURVE SMOOTH",
"543 424 OFFCURVE",
"488 388 OFFCURVE",
"356 388 CURVE SMOOTH",
"150 388 LINE",
"150 292 LINE",
"372 292 LINE SMOOTH",
"562 292 OFFCURVE",
"655 364 OFFCURVE",
"655 513 CURVE SMOOTH",
"655 662 OFFCURVE",
"560 730 OFFCURVE",
"351 730 CURVE SMOOTH",
"95 730 LINE",
"95 0 LINE"
);
},
{
closed = 1;
nodes = (
"675 0 LINE",
"335 340 LINE",
"191 340 LINE",
"529 0 LINE"
);
}
);
width = 713;
}
);
leftKerningGroup = H;
leftMetricsKey = "=H";
rightKerningGroup = R;
rightMetricsKey = "=H*.4";
},
{
color = 10;
glyphname = a;
lastChange = "2021-01-27 09:34:16 +0000";
layers = (
{
anchors = (
{
name = bottom;
position = "{252, 0}";
},
{
name = ogonek;
position = "{456, 0}";
},
{
name = top;
position = "{252, 520}";
}
);
layerId = "D65C9A1E-0FCA-4B2D-8EDF-9F36CA9182A1";
paths = (
{
closed = 1;
nodes = (
"310 -10 OFFCURVE",
"394 35 OFFCURVE",
"431 104 CURVE",
"432 104 LINE",
"432 0 LINE",
"452 0 LINE",
"452 325 LINE SMOOTH",
"452 477 OFFCURVE",
"405 530 OFFCURVE",
"269 530 CURVE SMOOTH",
"193 530 OFFCURVE",
"121 513 OFFCURVE",
"55 480 CURVE",
"64 462 LINE",
"128 494 OFFCURVE",
"196 510 OFFCURVE",
"269 510 CURVE SMOOTH",
"393 510 OFFCURVE",
"432 466 OFFCURVE",
"432 325 CURVE",
"336 325 LINE SMOOTH",
"145 325 OFFCURVE",
"42 262 OFFCURVE",
"42 145 CURVE SMOOTH",
"42 50 OFFCURVE",
"110 -10 OFFCURVE",
"218 -10 CURVE SMOOTH"
);
},
{
closed = 1;
nodes = (
"120 10 OFFCURVE",
"62 62 OFFCURVE",
"62 145 CURVE SMOOTH",
"62 249 OFFCURVE",
"156 305 OFFCURVE",
"336 305 CURVE SMOOTH",
"432 305 LINE",
"432 190 LINE SMOOTH",
"432 89 OFFCURVE",
"338 10 OFFCURVE",
"218 10 CURVE SMOOTH"
);
}
);
width = 535;
},
{
anchors = (
{
name = bottom;
position = "{269, 0}";
},
{
name = ogonek;
position = "{496, 0}";
},
{
name = top;
position = "{269, 520}";
}
);
background = {
anchors = (
{
name = bottom;
position = "{267, 0}";
},
{
name = ogonek;
position = "{494, 0}";
},
{
name = top;
position = "{267, 520}";
}
);
paths = (
{
closed = 1;
nodes = (
"284 -10 OFFCURVE",
"353 17 OFFCURVE",
"388 60 CURVE",
"390 60 LINE",
"391 0 LINE",
"494 0 LINE",
"494 338 LINE SMOOTH",
"494 480 OFFCURVE",
"439 530 OFFCURVE",
"286 530 CURVE SMOOTH",
"200 530 OFFCURVE",
"114 515 OFFCURVE",
"43 486 CURVE",
"58 396 LINE",
"125 425 OFFCURVE",
"202 440 OFFCURVE",
"272 440 CURVE SMOOTH",
"361 440 OFFCURVE",
"386 417 OFFCURVE",
"386 338 CURVE",
"309 338 LINE SMOOTH",
"131 338 OFFCURVE",
"29 269 OFFCURVE",
"29 148 CURVE SMOOTH",
"29 50 OFFCURVE",
"97 -10 OFFCURVE",
"209 -10 CURVE SMOOTH"
);
},
{
closed = 1;
nodes = (
"173 78 OFFCURVE",
"137 108 OFFCURVE",
"137 158 CURVE SMOOTH",
"137 223 OFFCURVE",
"199 256 OFFCURVE",
"324 256 CURVE SMOOTH",
"386 256 LINE",
"386 188 LINE SMOOTH",
"386 132 OFFCURVE",
"311 78 OFFCURVE",
"232 78 CURVE SMOOTH"
);
}
);
};
layerId = "9527F797-22C1-480E-A1FE-2CDBEBE1FD4C";
paths = (
{
closed = 1;
nodes = (
"274 -10 OFFCURVE",
"352 19 OFFCURVE",
"388 60 CURVE",
"390 60 LINE",
"391 0 LINE",
"494 0 LINE",
"494 328 LINE SMOOTH",
"494 478 OFFCURVE",
"441 530 OFFCURVE",
"288 530 CURVE SMOOTH",
"203 530 OFFCURVE",
"116 514 OFFCURVE",
"48 486 CURVE",
"62 397 LINE",
"127 425 OFFCURVE",
"203 440 OFFCURVE",
"274 440 CURVE SMOOTH",
"360 440 OFFCURVE",
"386 417 OFFCURVE",
"386 338 CURVE",
"311 338 LINE SMOOTH",
"134 338 OFFCURVE",
"34 269 OFFCURVE",
"34 148 CURVE SMOOTH",
"34 51 OFFCURVE",
"98 -10 OFFCURVE",
"202 -10 CURVE SMOOTH"
);
},
{
closed = 1;
nodes = (
"177 78 OFFCURVE",
"142 108 OFFCURVE",
"142 158 CURVE SMOOTH",
"142 223 OFFCURVE",
"203 256 OFFCURVE",
"326 256 CURVE SMOOTH",
"386 256 LINE",
"386 188 LINE SMOOTH",
"386 127 OFFCURVE",
"321 78 OFFCURVE",
"240 78 CURVE SMOOTH"
);
}
);
width = 562;
},
{
anchors = (
{
name = bottom;
position = "{288, 0}";
},
{
name = ogonek;
position = "{537, 0}";
},
{
name = top;
position = "{288, 520}";
}
);
layerId = "9E6B41AB-2970-4C41-8B35-4DBE0D296A43";
paths = (
{
closed = 1;
nodes = (
"249 -10 OFFCURVE",
"308 16 OFFCURVE",
"347 60 CURVE",
"349 60 LINE",
"351 0 LINE",
"537 0 LINE",
"537 330 LINE SMOOTH",
"537 476 OFFCURVE",
"475 530 OFFCURVE",
"308 530 CURVE SMOOTH",
"214 530 OFFCURVE",
"116 516 OFFCURVE",
"42 491 CURVE",
"62 351 LINE",
"129 375 OFFCURVE",
"214 390 OFFCURVE",
"281 390 CURVE SMOOTH",
"331 390 OFFCURVE",
"341 380 OFFCURVE",
"341 330 CURVE",
"287 330 LINE SMOOTH",
"121 330 OFFCURVE",
"27 265 OFFCURVE",
"27 150 CURVE SMOOTH",
"27 53 OFFCURVE",
"90 -10 OFFCURVE",
"187 -10 CURVE SMOOTH"
);
},
{
closed = 1;
nodes = (
"224 125 OFFCURVE",
"203 141 OFFCURVE",
"203 170 CURVE SMOOTH",
"203 208 OFFCURVE",
"238 225 OFFCURVE",
"317 225 CURVE SMOOTH",
"341 225 LINE",
"341 185 LINE SMOOTH",
"341 148 OFFCURVE",
"310 125 OFFCURVE",
"263 125 CURVE SMOOTH"
);
}
);
width = 591;
},
{
anchors = (
{
name = bottom;
position = "{258, 0}";
},
{
name = ogonek;
position = "{470, 0}";
},
{
name = top;
position = "{258, 520}";
}
);
associatedMasterId = "D65C9A1E-0FCA-4B2D-8EDF-9F36CA9182A1";
layerId = "37E9DD48-F59F-412B-917A-B9493104890B";
name = "Light {232";
paths = (
{
closed = 1;
nodes = (
"301 -10 OFFCURVE",
"380 26 OFFCURVE",
"420 82 CURVE",
"422 82 LINE",
"422 0 LINE",
"470 0 LINE",
"470 329 LINE SMOOTH",
"470 478 OFFCURVE",
"419 530 OFFCURVE",
"276 530 CURVE SMOOTH",
"195 530 OFFCURVE",
"117 514 OFFCURVE",
"48 482 CURVE",
"59 440 LINE",
"125 471 OFFCURVE",
"198 487 OFFCURVE",
"271 487 CURVE SMOOTH",
"385 487 OFFCURVE",
"421 450 OFFCURVE",
"421 329 CURVE",
"329 329 LINE SMOOTH",
"139 329 OFFCURVE",
"35 264 OFFCURVE",
"35 146 CURVE SMOOTH",
"35 50 OFFCURVE",
"104 -10 OFFCURVE",
"215 -10 CURVE SMOOTH"
);
},
{
closed = 1;
nodes = (
"136 32 OFFCURVE",
"84 77 OFFCURVE",
"84 149 CURVE SMOOTH",
"84 240 OFFCURVE",
"169 289 OFFCURVE",
"334 289 CURVE SMOOTH",
"421 289 LINE",
"421 189 LINE SMOOTH",
"421 103 OFFCURVE",
"331 32 OFFCURVE",
"222 32 CURVE SMOOTH"
);
}
);
width = 540;
}
);
leftKerningGroup = a;
leftMetricsKey = "=h*.4";
rightKerningGroup = h;
rightMetricsKey = "=h";
unicode = 0061;
},
{
color = 11;
glyphname = ae;
lastChange = "2021-01-27 09:34:16 +0000";
layers = (
{
anchors = (
{
name = bottom;
position = "{466, 0}";
},
{
name = top;
position = "{466, 520}";
}
);
layerId = "D65C9A1E-0FCA-4B2D-8EDF-9F36CA9182A1";
paths = (
{
closed = 1;
nodes = (
"749 -10 OFFCURVE",
"807 4 OFFCURVE",
"852 30 CURVE",
"842 47 LINE",
"800 23 OFFCURVE",
"746 10 OFFCURVE",
"688 10 CURVE SMOOTH",
"541 10 OFFCURVE",
"462 96 OFFCURVE",
"462 260 CURVE",
"462 260 LINE",
"462 419 OFFCURVE",
"537 510 OFFCURVE",
"667 510 CURVE SMOOTH",
"794 510 OFFCURVE",
"862 424 OFFCURVE",
"862 260 CURVE",
"872 278 LINE",
"452 278 LINE",
"452 258 LINE",
"882 258 LINE",
"882 259 OFFCURVE",
"882 259 OFFCURVE",
"882 260 CURVE SMOOTH",
"882 434 OFFCURVE",
"806 530 OFFCURVE",
"667 530 CURVE SMOOTH",
"526 530 OFFCURVE",
"442 430 OFFCURVE",
"442 260 CURVE SMOOTH",
"442 86 OFFCURVE",
"529 -10 OFFCURVE",
"688 -10 CURVE SMOOTH"
);
},
{
closed = 1;
nodes = (
"122 10 OFFCURVE",
"62 62 OFFCURVE",
"62 145 CURVE SMOOTH",
"62 249 OFFCURVE",
"158 305 OFFCURVE",
"343 305 CURVE SMOOTH",
"442 305 LINE",
"442 210 LINE SMOOTH",
"442 95 OFFCURVE",
"348 10 OFFCURVE",
"222 10 CURVE SMOOTH"
);
},
{
closed = 1;
nodes = (
"359 -10 OFFCURVE",
"462 84 OFFCURVE",
"462 210 CURVE SMOOTH",
"462 330 LINE SMOOTH",
"462 477 OFFCURVE",
"413 530 OFFCURVE",
"275 530 CURVE SMOOTH",
"197 530 OFFCURVE",
"123 513 OFFCURVE",
"55 480 CURVE",
"64 462 LINE",
"129 494 OFFCURVE",
"200 510 OFFCURVE",
"275 510 CURVE SMOOTH",
"401 510 OFFCURVE",
"442 465 OFFCURVE",
"442 325 CURVE",
"343 325 LINE SMOOTH",
"148 325 OFFCURVE",
"42 262 OFFCURVE",
"42 145 CURVE SMOOTH",
"42 50 OFFCURVE",
"112 -10 OFFCURVE",
"222 -10 CURVE SMOOTH"
);
}
);
width = 931;
},
{
anchors = (
{
name = bottom;
position = "{457, 0}";
},
{
name = top;
position = "{457, 520}";
}
);
layerId = "9527F797-22C1-480E-A1FE-2CDBEBE1FD4C";
paths = (
{
closed = 1;
nodes = (
"731 -10 OFFCURVE",
"792 2 OFFCURVE",
"839 24 CURVE",
"824 114 LINE",
"781 93 OFFCURVE",
"719 80 OFFCURVE",
"663 80 CURVE SMOOTH",
"550 80 OFFCURVE",
"495 133 OFFCURVE",
"495 240 CURVE",
"495 270 LINE",
"495 383 OFFCURVE",
"544 442 OFFCURVE",
"636 442 CURVE SMOOTH",
"727 442 OFFCURVE",
"773 385 OFFCURVE",
"773 270 CURVE",
"789 300 LINE",
"449 300 LINE",
"449 215 LINE",
"872 215 LINE",
"873 223 OFFCURVE",
"874 248 OFFCURVE",
"874 265 CURVE SMOOTH",
"874 434 OFFCURVE",
"788 530 OFFCURVE",
"636 530 CURVE SMOOTH",
"482 530 OFFCURVE",
"389 429 OFFCURVE",
"389 260 CURVE SMOOTH",
"389 86 OFFCURVE",
"487 -10 OFFCURVE",
"667 -10 CURVE SMOOTH"
);
},
{
closed = 1;
nodes = (
"177 78 OFFCURVE",
"142 107 OFFCURVE",
"142 158 CURVE SMOOTH",
"142 224 OFFCURVE",
"203 256 OFFCURVE",
"327 256 CURVE SMOOTH",
"389 256 LINE",
"389 203 LINE SMOOTH",
"389 131 OFFCURVE",
"326 78 OFFCURVE",
"240 78 CURVE SMOOTH"
);
},
{
closed = 1;
nodes = (
"385 -10 OFFCURVE",
"494 90 OFFCURVE",
"494 250 CURVE SMOOTH",
"494 325 LINE SMOOTH",
"494 475 OFFCURVE",
"439 530 OFFCURVE",
"289 530 CURVE SMOOTH",
"204 530 OFFCURVE",
"119 515 OFFCURVE",
"48 486 CURVE",
"63 397 LINE",
"126 424 OFFCURVE",
"205 440 OFFCURVE",
"275 440 CURVE SMOOTH",
"361 440 OFFCURVE",
"389 415 OFFCURVE",
"389 338 CURVE",
"312 338 LINE SMOOTH",
"129 338 OFFCURVE",
"34 273 OFFCURVE",
"34 148 CURVE SMOOTH",
"34 47 OFFCURVE",
"98 -10 OFFCURVE",
"212 -10 CURVE SMOOTH"
);
}
);
width = 915;
},
{
anchors = (
{
name = bottom;
position = "{451, 0}";
},
{
name = top;
position = "{451, 520}";
}
);
layerId = "9E6B41AB-2970-4C41-8B35-4DBE0D296A43";
paths = (
{
closed = 1;
nodes = (
"711 -10 OFFCURVE",
"781 1 OFFCURVE",
"826 18 CURVE",
"806 158 LINE",
"762 142 OFFCURVE",
"692 130 OFFCURVE",
"638 130 CURVE SMOOTH",
"560 130 OFFCURVE",
"528 156 OFFCURVE",
"528 220 CURVE SMOOTH",
"528 280 LINE SMOOTH",
"528 367 OFFCURVE",
"552 405 OFFCURVE",
"606 405 CURVE SMOOTH",
"660 405 OFFCURVE",
"684 367 OFFCURVE",
"684 280 CURVE",
"707 315 LINE",
"446 315 LINE",
"446 200 LINE",
"862 200 LINE",
"864 211 OFFCURVE",
"866 246 OFFCURVE",
"866 270 CURVE SMOOTH",
"866 434 OFFCURVE",
"770 530 OFFCURVE",
"606 530 CURVE SMOOTH",
"438 530 OFFCURVE",
"336 428 OFFCURVE",
"336 260 CURVE SMOOTH",
"336 86 OFFCURVE",
"446 -10 OFFCURVE",
"646 -10 CURVE SMOOTH"
);
},
{
closed = 1;
nodes = (
"222 125 OFFCURVE",
"203 141 OFFCURVE",
"203 170 CURVE SMOOTH",
"203 208 OFFCURVE",
"236 225 OFFCURVE",
"312 225 CURVE SMOOTH",
"336 225 LINE",
"336 195 LINE SMOOTH",
"336 153 OFFCURVE",
"305 125 OFFCURVE",
"258 125 CURVE SMOOTH"
);
},
{
closed = 1;
nodes = (
"429 -10 OFFCURVE",
"528 101 OFFCURVE",
"528 310 CURVE SMOOTH",
"528 320 LINE SMOOTH",
"528 473 OFFCURVE",
"467 530 OFFCURVE",
"303 530 CURVE SMOOTH",
"211 530 OFFCURVE",
"115 516 OFFCURVE",
"42 491 CURVE",
"62 351 LINE",
"128 375 OFFCURVE",
"211 390 OFFCURVE",
"276 390 CURVE SMOOTH",
"326 390 OFFCURVE",
"336 380 OFFCURVE",
"336 330 CURVE",
"282 330 LINE SMOOTH",
"119 330 OFFCURVE",
"27 265 OFFCURVE",
"27 150 CURVE SMOOTH",
"27 48 OFFCURVE",
"105 -10 OFFCURVE",
"242 -10 CURVE SMOOTH"
);
}
);
width = 898;
}
);
leftKerningGroup = a;
leftMetricsKey = "=a";
rightKerningGroup = o;
rightMetricsKey = "=e";
unicode = 00E6;
},
{
color = 10;
glyphname = b;
lastChange = "2021-02-11 09:12:47 +0000";
layers = (
{
layerId = "D65C9A1E-0FCA-4B2D-8EDF-9F36CA9182A1";
paths = (
{
closed = 1;
nodes = (
"463 -10 OFFCURVE",
"544 90 OFFCURVE",
"544 260 CURVE SMOOTH",
"544 430 OFFCURVE",
"463 530 OFFCURVE",
"325 530 CURVE SMOOTH",
"234 530 OFFCURVE",
"160 486 OFFCURVE",
"126 412 CURVE",
"124 412 LINE",
"124 730 LINE",
"104 730 LINE",
"104 0 LINE",
"124 0 LINE",
"124 108 LINE",
"126 108 LINE",
"160 34 OFFCURVE",
"234 -10 OFFCURVE",
"325 -10 CURVE SMOOTH"
);
},
{
closed = 1;
nodes = (
"207 10 OFFCURVE",
"124 88 OFFCURVE",
"124 200 CURVE SMOOTH",
"124 320 LINE SMOOTH",
"124 432 OFFCURVE",
"207 510 OFFCURVE",
"325 510 CURVE SMOOTH",
"451 510 OFFCURVE",
"524 420 OFFCURVE",
"524 260 CURVE SMOOTH",
"524 100 OFFCURVE",
"451 10 OFFCURVE",
"325 10 CURVE SMOOTH"
);
}
);
width = 596;
},
{
layerId = "9E6B41AB-2970-4C41-8B35-4DBE0D296A43";
paths = (
{
closed = 1;
nodes = (
"553 -10 OFFCURVE",
"627 85 OFFCURVE",
"627 260 CURVE SMOOTH",
"627 435 OFFCURVE",
"553 530 OFFCURVE",
"418 530 CURVE SMOOTH",
"356 530 OFFCURVE",
"313 510 OFFCURVE",
"265 460 CURVE",
"263 460 LINE",
"263 730 LINE",
"67 730 LINE",
"67 0 LINE",
"253 0 LINE",
"255 60 LINE",
"257 60 LINE",
"306 11 OFFCURVE",
"354 -10 OFFCURVE",
"418 -10 CURVE SMOOTH"
);
},
{
closed = 1;
nodes = (
"297 140 OFFCURVE",
"263 172 OFFCURVE",
"263 220 CURVE SMOOTH",
"263 300 LINE SMOOTH",
"263 348 OFFCURVE",
"297 380 OFFCURVE",
"347 380 CURVE SMOOTH",
"404 380 OFFCURVE",
"435 338 OFFCURVE",
"435 260 CURVE SMOOTH",
"435 182 OFFCURVE",
"404 140 OFFCURVE",
"347 140 CURVE SMOOTH"
);
}
);
width = 661;
},
{
associatedMasterId = "D65C9A1E-0FCA-4B2D-8EDF-9F36CA9182A1";
layerId = "4577C09C-2268-4FDD-969E-4BC558CAFA0A";
name = "Light {232}";
paths = (
{
closed = 1;
nodes = (
"475 -10 OFFCURVE",
"557 90 OFFCURVE",
"557 260 CURVE SMOOTH",
"557 430 OFFCURVE",
"475 530 OFFCURVE",
"337 530 CURVE SMOOTH",
"256 530 OFFCURVE",
"182 495 OFFCURVE",
"148 441 CURVE",
"146 441 LINE",
"146 730 LINE",
"97 730 LINE",
"97 0 LINE",
"144 0 LINE",
"144 79 LINE",
"146 79 LINE",
"181 25 OFFCURVE",
"256 -10 OFFCURVE",
"337 -10 CURVE SMOOTH"
);
},
{
closed = 1;
nodes = (
"222 33 OFFCURVE",
"146 104 OFFCURVE",
"146 204 CURVE SMOOTH",
"146 316 LINE SMOOTH",
"146 416 OFFCURVE",
"222 487 OFFCURVE",
"328 487 CURVE SMOOTH",
"442 487 OFFCURVE",
"508 405 OFFCURVE",
"508 260 CURVE SMOOTH",
"508 115 OFFCURVE",
"442 33 OFFCURVE",
"328 33 CURVE SMOOTH"
);
}
);
width = 606;
},
{
layerId = "9527F797-22C1-480E-A1FE-2CDBEBE1FD4C";
paths = (
{
closed = 1;
nodes = (
"502 -10 OFFCURVE",
"585 91 OFFCURVE",
"585 260 CURVE SMOOTH",
"585 429 OFFCURVE",
"502 530 OFFCURVE",
"363 530 CURVE SMOOTH",
"293 530 OFFCURVE",
"232 504 OFFCURVE",
"195 458 CURVE",
"193 458 LINE",
"193 730 LINE",
"85 730 LINE",
"85 0 LINE",
"188 0 LINE",
"189 62 LINE",
"191 62 LINE",
"229 16 OFFCURVE",
"292 -10 OFFCURVE",
"363 -10 CURVE SMOOTH"
);
},
{
closed = 1;
nodes = (
"255 80 OFFCURVE",
"193 136 OFFCURVE",
"193 211 CURVE SMOOTH",
"193 309 LINE SMOOTH",
"193 384 OFFCURVE",
"255 440 OFFCURVE",
"338 440 CURVE SMOOTH",
"428 440 OFFCURVE",
"479 375 OFFCURVE",
"479 260 CURVE SMOOTH",
"479 145 OFFCURVE",
"428 80 OFFCURVE",
"338 80 CURVE SMOOTH"
);
}
);
width = 628;
}
);
leftKerningGroup = b;
leftMetricsKey = "=h";
rightKerningGroup = o;
rightMetricsKey = "=o";
unicode = 0062;
},
{
color = 10;
glyphname = c;
lastChange = "2021-01-27 09:34:16 +0000";
layers = (
{
anchors = (
{
name = bottom;
position = "{302, 0}";
},
{
name = bottom_cd;
position = "{317, 0}";
},
{
name = top;
position = "{302, 520}";
}
);
layerId = "9E6B41AB-2970-4C41-8B35-4DBE0D296A43";
paths = (
{
closed = 1;
nodes = (
"407 -10 OFFCURVE",
"460 2 OFFCURVE",
"514 30 CURVE",
"484 170 LINE",
"436 143 OFFCURVE",
"396 130 OFFCURVE",
"354 130 CURVE SMOOTH",
"276 130 OFFCURVE",
"234 175 OFFCURVE",
"234 260 CURVE SMOOTH",
"234 345 OFFCURVE",
"276 390 OFFCURVE",
"354 390 CURVE SMOOTH",
"396 390 OFFCURVE",
"436 377 OFFCURVE",
"484 350 CURVE",
"514 490 LINE",
"460 518 OFFCURVE",
"407 530 OFFCURVE",
"339 530 CURVE SMOOTH",
"144 530 OFFCURVE",
"34 433 OFFCURVE",
"34 260 CURVE SMOOTH",
"34 87 OFFCURVE",
"144 -10 OFFCURVE",
"339 -10 CURVE SMOOTH"
);
}
);
width = 568;
},
{
anchors = (
{
name = bottom;
position = "{291, 0}";
},
{
name = bottom_cd;
position = "{301, 0}";
},
{
name = top;
position = "{291, 520}";
}
);
layerId = "9527F797-22C1-480E-A1FE-2CDBEBE1FD4C";
paths = (
{
closed = 1;
nodes = (
"383 -10 OFFCURVE",
"433 1 OFFCURVE",
"483 27 CURVE",
"464 114 LINE",
"418 90 OFFCURVE",
"375 80 OFFCURVE",
"331 80 CURVE SMOOTH",
"218 80 OFFCURVE",
"153 146 OFFCURVE",
"153 260 CURVE SMOOTH",
"153 374 OFFCURVE",
"218 440 OFFCURVE",
"331 440 CURVE SMOOTH",
"375 440 OFFCURVE",
"418 430 OFFCURVE",
"464 406 CURVE",
"483 493 LINE",
"433 519 OFFCURVE",
"383 530 OFFCURVE",
"324 530 CURVE SMOOTH",
"147 530 OFFCURVE",
"43 430 OFFCURVE",
"43 260 CURVE SMOOTH",
"43 90 OFFCURVE",
"147 -10 OFFCURVE",
"324 -10 CURVE SMOOTH"
);
}
);
width = 551;
},
{
anchors = (
{
name = bottom;
position = "{279, 0}";
},
{
name = bottom_cd;
position = "{284, 0}";
},
{
name = top;
position = "{279, 520}";
}
);
layerId = "D65C9A1E-0FCA-4B2D-8EDF-9F36CA9182A1";
paths = (
{
closed = 1;
nodes = (
"359 -10 OFFCURVE",
"405 1 OFFCURVE",
"452 25 CURVE",
"443 43 LINE",
"399 20 OFFCURVE",
"356 10 OFFCURVE",
"308 10 CURVE SMOOTH",
"161 10 OFFCURVE",
"72 105 OFFCURVE",
"72 260 CURVE SMOOTH",
"72 415 OFFCURVE",
"161 510 OFFCURVE",
"308 510 CURVE SMOOTH",
"356 510 OFFCURVE",
"399 500 OFFCURVE",
"443 477 CURVE",
"452 495 LINE",
"405 519 OFFCURVE",
"359 530 OFFCURVE",
"308 530 CURVE SMOOTH",
"150 530 OFFCURVE",
"52 426 OFFCURVE",
"52 260 CURVE SMOOTH",
"52 94 OFFCURVE",
"150 -10 OFFCURVE",
"308 -10 CURVE SMOOTH"
);
}
);
width = 535;
}
);
leftKerningGroup = o;
leftMetricsKey = "=o";
rightKerningGroup = c;
rightMetricsKey = "=h";
unicode = 0063;
},
{
color = 11;
glyphname = eth;
lastChange = "2021-01-27 09:35:37 +0000";
layers = (
{
layerId = "D65C9A1E-0FCA-4B2D-8EDF-9F36CA9182A1";
rightMetricsKey = "=d*.3";
paths = (
{
closed = 1;
nodes = (
"432 -10 OFFCURVE",
"522 84 OFFCURVE",
"522 235 CURVE SMOOTH",
"522 445 OFFCURVE",
"343 735 OFFCURVE",
"179 790 CURVE",
"172 772 LINE",
"288 733 OFFCURVE",
"416 566 OFFCURVE",
"473 399 CURVE",
"471 398 LINE",
"430 451 OFFCURVE",
"367 480 OFFCURVE",
"287 480 CURVE SMOOTH",
"142 480 OFFCURVE",
"52 386 OFFCURVE",
"52 235 CURVE SMOOTH",
"52 84 OFFCURVE",
"142 -10 OFFCURVE",
"287 -10 CURVE SMOOTH"
);
},
{
closed = 1;
nodes = (
"153 10 OFFCURVE",
"72 95 OFFCURVE",
"72 235 CURVE SMOOTH",
"72 375 OFFCURVE",
"153 460 OFFCURVE",
"287 460 CURVE SMOOTH",
"421 460 OFFCURVE",
"502 375 OFFCURVE",
"502 235 CURVE SMOOTH",
"502 95 OFFCURVE",
"421 10 OFFCURVE",
"287 10 CURVE SMOOTH"
);
},
{
closed = 1;
nodes = (
"553 697 LINE",
"545 715 LINE",
"105 540 LINE",
"113 522 LINE"
);
}
);
width = 584;
},
{
layerId = "9527F797-22C1-480E-A1FE-2CDBEBE1FD4C";
rightMetricsKey = "=d*.5";
paths = (
{
closed = 1;
nodes = (
"462 -10 OFFCURVE",
"553 88 OFFCURVE",
"553 263 CURVE SMOOTH",
"553 544 OFFCURVE",
"388 758 OFFCURVE",
"148 790 CURVE",
"128 700 LINE",
"266 681 OFFCURVE",
"379 579 OFFCURVE",
"422 435 CURVE",
"420 434 LINE",
"387 465 OFFCURVE",
"342 480 OFFCURVE",
"283 480 CURVE SMOOTH",
"134 480 OFFCURVE",
"43 391 OFFCURVE",
"43 243 CURVE SMOOTH",
"43 84 OFFCURVE",
"138 -10 OFFCURVE",
"298 -10 CURVE SMOOTH"
);
},
{
closed = 1;
nodes = (
"205 80 OFFCURVE",
"151 140 OFFCURVE",
"151 243 CURVE SMOOTH",
"151 341 OFFCURVE",
"200 390 OFFCURVE",
"298 390 CURVE SMOOTH",
"396 390 OFFCURVE",
"445 341 OFFCURVE",
"445 243 CURVE SMOOTH",
"445 140 OFFCURVE",
"391 80 OFFCURVE",
"298 80 CURVE SMOOTH"
);
},
{
closed = 1;
nodes = (
"563 665 LINE",
"527 749 LINE",
"87 574 LINE",
"123 490 LINE"
);
}
);
width = 606;
},
{
layerId = "9E6B41AB-2970-4C41-8B35-4DBE0D296A43";
rightMetricsKey = "=d*.7";
paths = (
{
closed = 1;
nodes = (
"495 -10 OFFCURVE",
"584 84 OFFCURVE",
"584 280 CURVE SMOOTH",
"584 601 OFFCURVE",
"426 776 OFFCURVE",
"124 790 CURVE",
"84 660 LINE",
"248 652 OFFCURVE",
"365 575 OFFCURVE",
"371 471 CURVE",
"369 470 LINE",
"345 476 OFFCURVE",
"313 480 OFFCURVE",
"279 480 CURVE SMOOTH",
"123 480 OFFCURVE",
"34 397 OFFCURVE",
"34 250 CURVE SMOOTH",
"34 89 OFFCURVE",
"138 -10 OFFCURVE",
"309 -10 CURVE SMOOTH"
);
},
{
closed = 1;
nodes = (
"253 125 OFFCURVE",
"228 163 OFFCURVE",
"228 250 CURVE SMOOTH",
"228 337 OFFCURVE",
"253 375 OFFCURVE",
"309 375 CURVE SMOOTH",
"365 375 OFFCURVE",
"390 337 OFFCURVE",
"390 250 CURVE SMOOTH",
"390 163 OFFCURVE",
"365 125 OFFCURVE",
"309 125 CURVE SMOOTH"
);
},
{
closed = 1;
nodes = (
"569 643 LINE",
"514 773 LINE",
"74 598 LINE",
"129 468 LINE"
);
}
);
width = 631;
},
{
associatedMasterId = "D65C9A1E-0FCA-4B2D-8EDF-9F36CA9182A1";
layerId = "7EB7DD1D-0E67-4B53-AED1-36A39ED50BF4";
rightMetricsKey = "=d*.3";
name = "Light {232}";
paths = (
{
closed = 1;
nodes = (
"442 -10 OFFCURVE",
"532 85 OFFCURVE",
"532 244 CURVE SMOOTH",
"532 478 OFFCURVE",
"358 743 OFFCURVE",
"168 790 CURVE",
"153 749 LINE",
"275 720 OFFCURVE",
"398 578 OFFCURVE",
"453 423 CURVE",
"451 422 LINE",
"412 459 OFFCURVE",
"356 480 OFFCURVE",
"285 480 CURVE SMOOTH",
"139 480 OFFCURVE",
"49 388 OFFCURVE",
"49 238 CURVE SMOOTH",
"49 84 OFFCURVE",
"140 -10 OFFCURVE",
"290 -10 CURVE SMOOTH"
);
},
{
closed = 1;
nodes = (
"170 33 OFFCURVE",
"98 110 OFFCURVE",
"98 238 CURVE SMOOTH",
"98 364 OFFCURVE",
"168 437 OFFCURVE",
"290 437 CURVE SMOOTH",
"412 437 OFFCURVE",
"483 364 OFFCURVE",
"483 238 CURVE SMOOTH",
"483 110 OFFCURVE",
"411 33 OFFCURVE",
"290 33 CURVE SMOOTH"
);
},
{
closed = 1;
nodes = (
"556 686 LINE",
"539 726 LINE",
"99 551 LINE",
"116 511 LINE"
);
}
);
width = 585;
}
);
leftKerningGroup = o;
leftMetricsKey = "=o";
rightKerningGroup = o;
rightMetricsKey = "=d*.6";
unicode = 00F0;
},
{
color = 11;
glyphname = dcroat;
lastChange = "2021-01-27 09:35:37 +0000";
layers = (
{
components = (
{
name = d;
}
);
layerId = "D65C9A1E-0FCA-4B2D-8EDF-9F36CA9182A1";
paths = (
{
closed = 1;
nodes = (
"587 605 LINE",
"587 625 LINE",
"167 625 LINE",
"167 605 LINE"
);
}
);
width = 624;
},
{
components = (
{
alignment = -1;
name = d;
}
);
layerId = "9527F797-22C1-480E-A1FE-2CDBEBE1FD4C";
paths = (
{
closed = 1;
nodes = (
"633 570 LINE",
"633 660 LINE",
"213 660 LINE",
"213 570 LINE"
);
}
);
width = 665;
},
{
components = (
{
name = d;
}
);
layerId = "9E6B41AB-2970-4C41-8B35-4DBE0D296A43";
paths = (
{
closed = 1;
nodes = (
"679 545 LINE",
"679 685 LINE",
"259 685 LINE",
"259 545 LINE"
);
}
);
width = 707;
}
);
leftKerningGroup = o;
leftMetricsKey = "=d";
rightKerningGroup = W;
rightMetricsKey = "=W";
unicode = 0111;
},
{
color = 10;
glyphname = e;
lastChange = "2021-01-27 09:34:16 +0000";
layers = (
{
anchors = (
{
name = bottom;
position = "{291, 0}";
},
{
name = ogonek;
position = "{506, 24}";
},
{
name = top;
position = "{291, 520}";
}
);
layerId = "9527F797-22C1-480E-A1FE-2CDBEBE1FD4C";
paths = (
{
closed = 1;
nodes = (
"389 -10 OFFCURVE",
"457 3 OFFCURVE",
"508 24 CURVE",
"494 111 LINE",
"445 92 OFFCURVE",
"376 80 OFFCURVE",
"320 80 CURVE SMOOTH",
"205 80 OFFCURVE",
"149 132 OFFCURVE",
"149 240 CURVE",
"149 270 LINE",
"149 382 OFFCURVE",
"200 442 OFFCURVE",
"296 442 CURVE SMOOTH",
"387 442 OFFCURVE",
"432 387 OFFCURVE",
"432 274 CURVE",
"449 300 LINE",
"103 300 LINE",
"103 215 LINE",
"531 215 LINE",
"532 227 OFFCURVE",
"533 251 OFFCURVE",
"533 269 CURVE SMOOTH",
"533 436 OFFCURVE",
"448 530 OFFCURVE",
"296 530 CURVE SMOOTH",
"138 530 OFFCURVE",
"43 428 OFFCURVE",
"43 260 CURVE SMOOTH",
"43 87 OFFCURVE",
"144 -10 OFFCURVE",
"324 -10 CURVE SMOOTH"
);
}
);
width = 574;
},
{
anchors = (
{
name = bottom;
position = "{304, 0}";
},
{
name = ogonek;
position = "{534, 18}";
},
{
name = top;
position = "{304, 520}";
}
);
layerId = "9E6B41AB-2970-4C41-8B35-4DBE0D296A43";
paths = (
{
closed = 1;
nodes = (
"413 -10 OFFCURVE",
"487 1 OFFCURVE",
"534 18 CURVE",
"514 158 LINE",
"467 142 OFFCURVE",
"393 130 OFFCURVE",
"336 130 CURVE SMOOTH",
"258 130 OFFCURVE",
"226 156 OFFCURVE",
"226 220 CURVE SMOOTH",
"226 280 LINE SMOOTH",
"226 367 OFFCURVE",
"250 405 OFFCURVE",
"304 405 CURVE SMOOTH",
"358 405 OFFCURVE",
"382 367 OFFCURVE",
"382 280 CURVE",
"405 315 LINE",
"144 315 LINE",
"144 200 LINE",
"560 200 LINE",
"562 211 OFFCURVE",
"564 246 OFFCURVE",
"564 270 CURVE SMOOTH",
"564 434 OFFCURVE",
"468 530 OFFCURVE",
"304 530 CURVE SMOOTH",
"136 530 OFFCURVE",
"34 428 OFFCURVE",
"34 260 CURVE SMOOTH",
"34 86 OFFCURVE",
"144 -10 OFFCURVE",
"344 -10 CURVE SMOOTH"
);
}
);
width = 596;
},
{
anchors = (
{
name = bottom;
position = "{278, 0}";
},
{
name = ogonek;
position = "{477, 30}";
},
{
name = top;
position = "{278, 520}";
}
);
layerId = "D65C9A1E-0FCA-4B2D-8EDF-9F36CA9182A1";
paths = (
{
closed = 1;
nodes = (
"366 -10 OFFCURVE",
"430 4 OFFCURVE",
"482 30 CURVE",
"473 48 LINE",
"424 24 OFFCURVE",
"364 10 OFFCURVE",
"304 10 CURVE SMOOTH",
"154 10 OFFCURVE",
"72 97 OFFCURVE",
"72 260 CURVE",
"72 260 LINE",
"72 418 OFFCURVE",
"152 510 OFFCURVE",
"287 510 CURVE SMOOTH",
"415 510 OFFCURVE",
"482 428 OFFCURVE",
"482 268 CURVE",
"492 278 LINE",
"62 278 LINE",
"62 258 LINE",
"502 258 LINE",
"502 263 OFFCURVE",
"502 263 OFFCURVE",
"502 268 CURVE SMOOTH",
"502 438 OFFCURVE",
"427 530 OFFCURVE",
"287 530 CURVE SMOOTH",
"140 530 OFFCURVE",
"52 428 OFFCURVE",
"52 260 CURVE SMOOTH",
"52 87 OFFCURVE",
"142 -10 OFFCURVE",
"304 -10 CURVE SMOOTH"
);
}
);
width = 551;
}
);
leftKerningGroup = o;
leftMetricsKey = "=o";
rightKerningGroup = o;
rightMetricsKey = "=o*.95";
unicode = 0065;
},
{
color = 10;
glyphname = f;
lastChange = "2021-01-27 09:35:02 +0000";
layers = (
{
layerId = "9527F797-22C1-480E-A1FE-2CDBEBE1FD4C";
paths = (
{
closed = 1;
nodes = (
"273 0 LINE",
"273 430 LINE",
"443 430 LINE",
"443 520 LINE",
"273 520 LINE",
"273 577 LINE SMOOTH",
"273 650 OFFCURVE",
"297 677 OFFCURVE",
"362 677 CURVE SMOOTH",
"386 677 OFFCURVE",
"409 673 OFFCURVE",
"433 665 CURVE",
"446 755 LINE",
"418 764 OFFCURVE",
"382 770 OFFCURVE",
"345 770 CURVE SMOOTH",
"225 770 OFFCURVE",
"164 708 OFFCURVE",
"164 585 CURVE SMOOTH",
"164 520 LINE",
"26 520 LINE",
"26 430 LINE",
"164 430 LINE",
"164 0 LINE"
);
}
);
width = 472;
},
{
layerId = "9E6B41AB-2970-4C41-8B35-4DBE0D296A43";
paths = (
{
closed = 1;
nodes = (
"329 0 LINE",
"329 380 LINE",
"465 380 LINE",
"465 520 LINE",
"329 520 LINE",
"329 550 LINE SMOOTH",
"329 605 OFFCURVE",
"342 620 OFFCURVE",
"384 620 CURVE SMOOTH",
"403 620 OFFCURVE",
"425 617 OFFCURVE",
"450 610 CURVE",
"470 755 LINE",
"431 765 OFFCURVE",
"385 770 OFFCURVE",
"349 770 CURVE SMOOTH",
"207 770 OFFCURVE",
"131 693 OFFCURVE",
"131 550 CURVE SMOOTH",
"131 520 LINE",
"20 520 LINE",
"20 380 LINE",
"131 380 LINE",
"131 0 LINE"
);
}
);
width = 490;
},
{
layerId = "D65C9A1E-0FCA-4B2D-8EDF-9F36CA9182A1";
paths = (
{
closed = 1;
nodes = (
"215 0 LINE",
"215 500 LINE",
"419 500 LINE",
"419 520 LINE",
"215 520 LINE",
"215 620 LINE SMOOTH",
"215 711 OFFCURVE",
"252 750 OFFCURVE",
"339 750 CURVE SMOOTH",
"366 750 OFFCURVE",
"387 746 OFFCURVE",
"414 736 CURVE",
"421 755 LINE",
"391 766 OFFCURVE",
"367 770 OFFCURVE",
"339 770 CURVE SMOOTH",
"241 770 OFFCURVE",
"195 722 OFFCURVE",
"195 620 CURVE SMOOTH",
"195 520 LINE",
"31 520 LINE",
"31 500 LINE",
"195 500 LINE",
"195 0 LINE"
);
}
);
width = 452;
}
);
leftKerningGroup = f;
leftMetricsKey = "=h*.3";
rightKerningGroup = f;
rightMetricsKey = "=d*.3";
unicode = 0066;
},
{
color = 10;
glyphname = g;
lastChange = "2021-02-11 09:19:37 +0000";
layers = (
{
anchors = (
{
name = bottom;
position = "{294, -140}";
},
{
name = top;
position = "{294, 520}";
}
);
layerId = "D65C9A1E-0FCA-4B2D-8EDF-9F36CA9182A1";
paths = (
{
closed = 1;
nodes = (
"422 -220 OFFCURVE",
"492 -142 OFFCURVE",
"492 40 CURVE SMOOTH",
"492 520 LINE",
"472 520 LINE",
"472 416 LINE",
"470 416 LINE",
"435 489 OFFCURVE",
"363 530 OFFCURVE",
"272 530 CURVE SMOOTH",
"134 530 OFFCURVE",
"52 435 OFFCURVE",
"52 275 CURVE SMOOTH",
"52 115 OFFCURVE",
"134 20 OFFCURVE",
"272 20 CURVE SMOOTH",
"363 20 OFFCURVE",
"435 61 OFFCURVE",
"470 134 CURVE",
"472 134 LINE",
"472 40 LINE SMOOTH",
"472 -131 OFFCURVE",
"411 -200 OFFCURVE",
"260 -200 CURVE SMOOTH",
"189 -200 OFFCURVE",
"129 -185 OFFCURVE",
"80 -155 CURVE",
"70 -172 LINE",
"122 -204 OFFCURVE",
"186 -220 OFFCURVE",
"260 -220 CURVE SMOOTH"
);
},
{
closed = 1;
nodes = (
"146 40 OFFCURVE",
"72 125 OFFCURVE",
"72 275 CURVE SMOOTH",
"72 425 OFFCURVE",
"146 510 OFFCURVE",
"272 510 CURVE SMOOTH",
"390 510 OFFCURVE",
"472 436 OFFCURVE",
"472 331 CURVE SMOOTH",
"472 219 LINE SMOOTH",
"472 114 OFFCURVE",
"390 40 OFFCURVE",
"272 40 CURVE SMOOTH"
);
}
);
width = 596;
},
{
anchors = (
{
name = bottom;
position = "{311, -140}";
},
{
name = top;
position = "{311, 520}";
}
);
layerId = "9527F797-22C1-480E-A1FE-2CDBEBE1FD4C";
paths = (
{
closed = 1;
nodes = (
"459 -220 OFFCURVE",
"543 -133 OFFCURVE",
"543 55 CURVE SMOOTH",
"543 520 LINE",
"440 520 LINE",
"439 462 LINE",
"437 462 LINE",
"399 505 OFFCURVE",
"336 530 OFFCURVE",
"265 530 CURVE SMOOTH",
"126 530 OFFCURVE",
"43 435 OFFCURVE",
"43 275 CURVE SMOOTH",
"43 115 OFFCURVE",
"126 20 OFFCURVE",
"265 20 CURVE SMOOTH",
"334 20 OFFCURVE",
"395 44 OFFCURVE",
"433 88 CURVE",
"435 88 LINE",
"435 55 LINE SMOOTH",
"435 -77 OFFCURVE",
"387 -130 OFFCURVE",
"266 -130 CURVE SMOOTH",
"199 -130 OFFCURVE",
"131 -114 OFFCURVE",
"83 -86 CURVE",
"68 -174 LINE",
"117 -203 OFFCURVE",
"194 -220 OFFCURVE",
"276 -220 CURVE SMOOTH"
);
},
{
closed = 1;
nodes = (
"200 110 OFFCURVE",
"149 170 OFFCURVE",
"149 275 CURVE SMOOTH",
"149 380 OFFCURVE",
"200 440 OFFCURVE",
"290 440 CURVE SMOOTH",
"373 440 OFFCURVE",
"435 391 OFFCURVE",
"435 325 CURVE SMOOTH",
"435 225 LINE SMOOTH",
"435 159 OFFCURVE",
"373 110 OFFCURVE",
"290 110 CURVE SMOOTH"
);
}
);
width = 628;
},
{
anchors = (
{
name = bottom;
position = "{329, -140}";
},
{
name = top;
position = "{329, 520}";
}
);
layerId = "9E6B41AB-2970-4C41-8B35-4DBE0D296A43";
paths = (
{
closed = 1;
nodes = (
"493 -220 OFFCURVE",
"594 -123 OFFCURVE",
"594 70 CURVE SMOOTH",
"594 520 LINE",
"408 520 LINE",
"406 464 LINE",
"404 464 LINE",
"355 510 OFFCURVE",
"306 530 OFFCURVE",
"243 530 CURVE SMOOTH",
"108 530 OFFCURVE",
"34 440 OFFCURVE",
"34 275 CURVE SMOOTH",
"34 110 OFFCURVE",
"108 20 OFFCURVE",
"243 20 CURVE SMOOTH",
"305 20 OFFCURVE",
"347 38 OFFCURVE",
"396 86 CURVE",
"398 86 LINE",
"398 70 LINE",
"398 -39 OFFCURVE",
"364 -80 OFFCURVE",
"273 -80 CURVE SMOOTH",
"213 -80 OFFCURVE",
"136 -62 OFFCURVE",
"86 -36 CURVE",
"66 -176 LINE",
"116 -203 OFFCURVE",
"204 -220 OFFCURVE",
"292 -220 CURVE SMOOTH"
);
},
{
closed = 1;
nodes = (
"258 170 OFFCURVE",
"226 208 OFFCURVE",
"226 275 CURVE SMOOTH",
"226 342 OFFCURVE",
"258 380 OFFCURVE",
"314 380 CURVE SMOOTH",
"363 380 OFFCURVE",
"398 351 OFFCURVE",
"398 310 CURVE SMOOTH",
"398 240 LINE SMOOTH",
"398 199 OFFCURVE",
"363 170 OFFCURVE",
"314 170 CURVE SMOOTH"
);
}
);
width = 661;
},
{
anchors = (
{
name = bottom;
position = "{300, -140}";
},
{
name = top;
position = "{300, 520}";
}
);
associatedMasterId = "D65C9A1E-0FCA-4B2D-8EDF-9F36CA9182A1";
layerId = "2CB2E316-DF26-4020-8926-4C268D4E13F3";
name = "Light {232}";
paths = (
{
closed = 1;
nodes = (
"434 -220 OFFCURVE",
"509 -139 OFFCURVE",
"509 45 CURVE SMOOTH",
"509 520 LINE",
"461 520 LINE",
"461 445 LINE",
"459 445 LINE",
"424 497 OFFCURVE",
"352 530 OFFCURVE",
"270 530 CURVE SMOOTH",
"131 530 OFFCURVE",
"49 435 OFFCURVE",
"49 275 CURVE SMOOTH",
"49 115 OFFCURVE",
"131 20 OFFCURVE",
"270 20 CURVE SMOOTH",
"352 20 OFFCURVE",
"425 53 OFFCURVE",
"458 105 CURVE",
"460 105 LINE",
"460 45 LINE SMOOTH",
"460 -113 OFFCURVE",
"403 -177 OFFCURVE",
"262 -177 CURVE SMOOTH",
"192 -177 OFFCURVE",
"130 -162 OFFCURVE",
"81 -132 CURVE",
"69 -173 LINE",
"120 -204 OFFCURVE",
"189 -220 OFFCURVE",
"265 -220 CURVE SMOOTH"
);
},
{
closed = 1;
nodes = (
"164 63 OFFCURVE",
"97 140 OFFCURVE",
"97 275 CURVE SMOOTH",
"97 410 OFFCURVE",
"164 487 OFFCURVE",
"278 487 CURVE SMOOTH",
"384 487 OFFCURVE",
"460 421 OFFCURVE",
"460 329 CURVE SMOOTH",
"460 221 LINE SMOOTH",
"460 129 OFFCURVE",
"384 63 OFFCURVE",
"278 63 CURVE SMOOTH"
);
}
);
width = 606;
}
);
leftKerningGroup = o;
leftMetricsKey = "=d";
rightKerningGroup = g;
rightMetricsKey = "=u";
unicode = 0067;
},
{
color = 10;
glyphname = h;
lastChange = "2021-01-27 09:34:15 +0000";
layers = (
{
anchors = (
{
name = bottom;
position = "{299, 0}";
},
{
name = center;
position = "{299, 430}";
},
{
name = top;
position = "{299, 730}";
}
);
layerId = "D65C9A1E-0FCA-4B2D-8EDF-9F36CA9182A1";
paths = (
{
closed = 1;
nodes = (
"124 0 LINE",
"124 320 LINE SMOOTH",
"124 432 OFFCURVE",
"210 510 OFFCURVE",
"334 510 CURVE SMOOTH",
"443 510 OFFCURVE",
"494 449 OFFCURVE",
"494 320 CURVE SMOOTH",
"494 0 LINE",
"514 0 LINE",
"514 320 LINE SMOOTH",
"514 460 OFFCURVE",
"455 530 OFFCURVE",
"334 530 CURVE SMOOTH",
"238 530 OFFCURVE",
"162 487 OFFCURVE",
"126 412 CURVE",
"124 412 LINE",
"124 730 LINE",
"104 730 LINE",
"104 0 LINE"
);
}
);
width = 597;
},
{
anchors = (
{
name = bottom;
position = "{311, 0}";
},
{
name = center;
position = "{311, 430}";
},
{
name = top;
position = "{311, 730}";
}
);
layerId = "9527F797-22C1-480E-A1FE-2CDBEBE1FD4C";
paths = (
{
closed = 1;
nodes = (
"193 0 LINE",
"193 309 LINE SMOOTH",
"194 385 OFFCURVE",
"254 440 OFFCURVE",
"338 440 CURVE SMOOTH",
"413 440 OFFCURVE",
"448 396 OFFCURVE",
"447 300 CURVE SMOOTH",
"447 0 LINE",
"555 0 LINE",
"555 320 LINE SMOOTH",
"556 464 OFFCURVE",
"497 530 OFFCURVE",
"368 530 CURVE SMOOTH",
"293 530 OFFCURVE",
"236 506 OFFCURVE",
"195 458 CURVE",
"193 458 LINE",
"193 730 LINE",
"85 730 LINE",
"85 0 LINE"
);
}
);
width = 623;
},
{
anchors = (
{
name = bottom;
position = "{323, 0}";
},
{
name = center;
position = "{323, 430}";
},
{
name = top;
position = "{323, 730}";
}
);
layerId = "9E6B41AB-2970-4C41-8B35-4DBE0D296A43";
paths = (
{
closed = 1;
nodes = (
"263 0 LINE",
"263 300 LINE SMOOTH",
"263 341 OFFCURVE",
"296 370 OFFCURVE",
"342 370 CURVE SMOOTH",
"385 370 OFFCURVE",
"401 345 OFFCURVE",
"401 280 CURVE SMOOTH",
"401 0 LINE",
"597 0 LINE",
"597 320 LINE SMOOTH",
"597 466 OFFCURVE",
"544 530 OFFCURVE",
"422 530 CURVE SMOOTH",
"355 530 OFFCURVE",
"312 511 OFFCURVE",
"265 460 CURVE",
"263 460 LINE",
"263 730 LINE",
"67 730 LINE",
"67 0 LINE"
);
}
);
width = 651;
},
{
anchors = (
{
name = bottom;
position = "{302, 0}";
},
{
name = center;
position = "{302, 430}";
},
{
name = top;
position = "{302, 730}";
}
);
associatedMasterId = "D65C9A1E-0FCA-4B2D-8EDF-9F36CA9182A1";
layerId = "02FE662A-EEF6-4625-B8CE-6C497DD97EB0";
name = "Light {232}";
paths = (
{
closed = 1;
nodes = (
"146 0 LINE",
"146 316 LINE SMOOTH",
"146 416 OFFCURVE",
"224 487 OFFCURVE",
"335 487 CURVE SMOOTH",
"432 487 OFFCURVE",
"478 432 OFFCURVE",
"478 313 CURVE SMOOTH",
"478 0 LINE",
"527 0 LINE",
"527 320 LINE SMOOTH",
"527 463 OFFCURVE",
"470 530 OFFCURVE",
"345 530 CURVE SMOOTH",
"258 530 OFFCURVE",
"185 497 OFFCURVE",
"148 441 CURVE",
"146 441 LINE",
"146 730 LINE",
"97 730 LINE",
"97 0 LINE"
);
}
);
width = 605;
}
);
leftKerningGroup = b;
leftMetricsKey = "=H*.9";
rightKerningGroup = h;
rightMetricsKey = "=|*.8";
unicode = 0068;
},
{
color = 11;
glyphname = hbar;
lastChange = "2021-01-27 09:34:16 +0000";
layers = (
{
anchors = (
{
name = bottom;
position = "{342, 0}";
},
{
name = center;
position = "{342, 430}";
},
{
name = top;
position = "{342, 750}";
}
);
components = (
{
name = h;
transform = "{1, 0, 0, 1, 72, 0}";
}
);
layerId = "D65C9A1E-0FCA-4B2D-8EDF-9F36CA9182A1";
paths = (
{
closed = 1;
nodes = (
"457 625 LINE",
"37 625 LINE",
"37 605 LINE",
"457 605 LINE"
);
}
);
width = 669;
},
{
anchors = (
{
name = bottom;
position = "{360, 0}";
},
{
name = center;
position = "{360, 430}";
},
{
name = top;
position = "{360, 750}";
}
);
components = (
{
alignment = -1;
name = h;
transform = "{1, 0, 0, 1, 70, 0}";
}
);
layerId = "9527F797-22C1-480E-A1FE-2CDBEBE1FD4C";
paths = (
{
closed = 1;
nodes = (
"452 660 LINE",
"32 660 LINE",
"32 570 LINE",
"452 570 LINE"
);
}
);
width = 693;
},
{
anchors = (
{
name = bottom;
position = "{379, 0}";
},
{
name = center;
position = "{379, 430}";
},
{
name = top;
position = "{379, 750}";
}
);
components = (
{
name = h;
transform = "{1, 0, 0, 1, 69, 0}";
}
);
layerId = "9E6B41AB-2970-4C41-8B35-4DBE0D296A43";
paths = (
{
closed = 1;
nodes = (
"448 685 LINE",
"28 685 LINE",
"28 545 LINE",
"448 545 LINE"
);
}
);
width = 720;
}
);
leftKerningGroup = W;
leftMetricsKey = "=W";
rightKerningGroup = h;
rightMetricsKey = "=h";
unicode = 0127;
},
{
color = 10;
glyphname = i;
lastChange = "2021-01-27 09:34:16 +0000";
layers = (
{
layerId = "9527F797-22C1-480E-A1FE-2CDBEBE1FD4C";
paths = (
{
closed = 1;
nodes = (
"204 620 LINE",
"204 730 LINE",
"94 730 LINE",
"94 620 LINE"
);
},
{
closed = 1;
nodes = (
"204 0 LINE",
"204 520 LINE",
"94 520 LINE",
"94 0 LINE"
);
}
);
width = 298;
},
{
layerId = "9E6B41AB-2970-4C41-8B35-4DBE0D296A43";
paths = (
{
closed = 1;
nodes = (
"274 570 LINE",
"274 730 LINE",
"74 730 LINE",
"74 570 LINE"
);
},
{
closed = 1;
nodes = (
"274 0 LINE",
"274 500 LINE",
"74 500 LINE",
"74 0 LINE"
);
}
);
width = 348;
},
{
layerId = "D65C9A1E-0FCA-4B2D-8EDF-9F36CA9182A1";
paths = (
{
closed = 1;
nodes = (
"174 670 LINE",
"174 730 LINE",
"114 730 LINE",
"114 670 LINE"
);
},
{
closed = 1;
nodes = (
"154 0 LINE",
"154 520 LINE",
"134 520 LINE",
"134 0 LINE"
);
}
);
width = 288;
}
);
leftKerningGroup = l;
leftMetricsKey = "=l";
rightKerningGroup = l;
rightMetricsKey = "=|";
unicode = 0069;
},
{
color = 11;
glyphname = idotless;
lastChange = "2021-01-27 09:34:16 +0000";
layers = (
{
anchors = (
{
name = bottom;
position = "{124, 0}";
},
{
name = ogonek;
position = "{134, 0}";
},
{
name = top;
position = "{124, 520}";
}
);
layerId = "D65C9A1E-0FCA-4B2D-8EDF-9F36CA9182A1";
paths = (
{
closed = 1;
nodes = (
"134 0 LINE",
"134 520 LINE",
"114 520 LINE",
"114 0 LINE"
);
}
);
width = 248;
},
{
anchors = (
{
name = bottom;
position = "{149, 0}";
},
{
name = ogonek;
position = "{204, 0}";
},
{
name = top;
position = "{149, 520}";
}
);
layerId = "9527F797-22C1-480E-A1FE-2CDBEBE1FD4C";
paths = (
{
closed = 1;
nodes = (
"204 0 LINE",
"204 520 LINE",
"94 520 LINE",
"94 0 LINE"
);
}
);
width = 298;
},
{
anchors = (
{
name = bottom;
position = "{174, 0}";
},
{
name = ogonek;
position = "{274, 0}";
},
{
name = top;
position = "{174, 520}";
}
);
layerId = "9E6B41AB-2970-4C41-8B35-4DBE0D296A43";
paths = (
{
closed = 1;
nodes = (
"274 0 LINE",
"274 500 LINE",
"74 500 LINE",
"74 0 LINE"
);
}
);
width = 348;
}
);
leftKerningGroup = l;
leftMetricsKey = "=l";
rightKerningGroup = l;
rightMetricsKey = "=|";
unicode = 0131;
},
{
color = 10;
glyphname = j;
lastChange = "2021-02-06 07:20:21 +0000";
layers = (
{
layerId = "9527F797-22C1-480E-A1FE-2CDBEBE1FD4C";
leftMetricsKey = "=l-170";
paths = (
{
closed = 1;
nodes = (
"169 -199 OFFCURVE",
"234 -139 OFFCURVE",
"234 53 CURVE SMOOTH",
"234 510 LINE",
"124 510 LINE",
"124 53 LINE SMOOTH",
"124 -79 OFFCURVE",
"90 -109 OFFCURVE",
"-76 -126 CURVE",
"-60 -220 LINE"
);
},
{
closed = 1;
nodes = (
"234 620 LINE",
"234 730 LINE",
"124 730 LINE",
"124 620 LINE"
);
}
);
width = 328;
},
{
layerId = "9E6B41AB-2970-4C41-8B35-4DBE0D296A43";
leftMetricsKey = "=l-140";
paths = (
{
closed = 1;
nodes = (
"229 -200 OFFCURVE",
"304 -136 OFFCURVE",
"304 70 CURVE SMOOTH",
"304 500 LINE",
"104 500 LINE",
"104 70 LINE SMOOTH",
"104 -39 OFFCURVE",
"84 -56 OFFCURVE",
"-66 -70 CURVE",
"-36 -220 LINE"
);
},
{
closed = 1;
nodes = (
"304 570 LINE",
"304 730 LINE",
"104 730 LINE",
"104 570 LINE"
);
}
);
width = 378;
},
{
layerId = "D65C9A1E-0FCA-4B2D-8EDF-9F36CA9182A1";
leftMetricsKey = "=l-200";
paths = (
{
closed = 1;
nodes = (
"109 -198 OFFCURVE",
"164 -142 OFFCURVE",
"164 35 CURVE SMOOTH",
"164 520 LINE",
"144 520 LINE",
"144 35 LINE SMOOTH",
"144 -131 OFFCURVE",
"97 -179 OFFCURVE",
"-86 -200 CURVE",
"-84 -220 LINE"
);
},
{
closed = 1;
nodes = (
"184 670 LINE",
"184 730 LINE",
"124 730 LINE",
"124 670 LINE"
);
}
);
width = 298;
}
);
leftKerningGroup = l;
leftMetricsKey = "=-150";
rightKerningGroup = g;
rightMetricsKey = "=l";
unicode = 006A;
},
{
color = 11;
glyphname = jdotless;
lastChange = "2021-01-27 09:34:16 +0000";
layers = (
{
anchors = (
{
name = bottom;
position = "{124, -160}";
},
{
name = top;
position = "{124, 520}";
}
);
layerId = "D65C9A1E-0FCA-4B2D-8EDF-9F36CA9182A1";
paths = (
{
closed = 1;
nodes = (
"115 -220 OFFCURVE",
"169 -172 OFFCURVE",
"169 10 CURVE SMOOTH",
"169 520 LINE",
"149 520 LINE",
"149 10 LINE SMOOTH",
"149 -160 OFFCURVE",
"105 -200 OFFCURVE",
"-86 -200 CURVE",
"-86 -220 LINE"
);
}
);
width = 283;
},
{
anchors = (
{
name = bottom;
position = "{153, -160}";
},
{
name = top;
position = "{153, 520}";
}
);
layerId = "9527F797-22C1-480E-A1FE-2CDBEBE1FD4C";
paths = (
{
closed = 1;
nodes = (
"169 -220 OFFCURVE",
"237 -165 OFFCURVE",
"237 30 CURVE SMOOTH",
"237 520 LINE",
"127 520 LINE",
"127 30 LINE SMOOTH",
"127 -106 OFFCURVE",
"96 -130 OFFCURVE",
"-76 -130 CURVE",
"-71 -220 LINE"
);
}
);
width = 331;
},
{
anchors = (
{
name = bottom;
position = "{182, -160}";
},
{
name = top;
position = "{182, 520}";
}
);
layerId = "9E6B41AB-2970-4C41-8B35-4DBE0D296A43";
paths = (
{
closed = 1;
nodes = (
"221 -220 OFFCURVE",
"304 -158 OFFCURVE",
"304 50 CURVE SMOOTH",
"304 500 LINE",
"104 500 LINE",
"104 50 LINE SMOOTH",
"104 -63 OFFCURVE",
"87 -75 OFFCURVE",
"-66 -75 CURVE",
"-56 -220 LINE"
);
}
);
width = 378;
}
);
leftKerningGroup = l;
leftMetricsKey = "=j";
rightKerningGroup = g;
rightMetricsKey = "=j";
unicode = 0237;
},
{
color = 10;
glyphname = k;
lastChange = "2021-01-27 09:35:06 +0000";
layers = (
{
anchors = (
{
name = bottom;
position = "{254, 0}";
},
{
name = top;
position = "{254, 730}";
}
);
layerId = "D65C9A1E-0FCA-4B2D-8EDF-9F36CA9182A1";
rightMetricsKey = "=d*.4";
paths = (
{
closed = 1;
nodes = (
"126 0 LINE",
"126 262 LINE",
"128 262 LINE",
"490 0 LINE",
"524 0 LINE",
"151 270 LINE",
"507 520 LINE",
"473 520 LINE",
"128 278 LINE",
"126 278 LINE",
"126 730 LINE",
"104 730 LINE",
"104 0 LINE"
);
}
);
width = 566;
},
{
anchors = (
{
name = bottom;
position = "{281, 0}";
},
{
name = top;
position = "{281, 730}";
}
);
layerId = "9527F797-22C1-480E-A1FE-2CDBEBE1FD4C";
rightMetricsKey = "=d*.3";
paths = (
{
closed = 1;
nodes = (
"194 0 LINE",
"194 235 LINE",
"196 235 LINE",
"436 0 LINE",
"575 0 LINE",
"289 270 LINE",
"564 520 LINE",
"425 520 LINE",
"196 306 LINE",
"194 306 LINE",
"194 730 LINE",
"85 730 LINE",
"85 0 LINE"
);
}
);
width = 601;
},
{
anchors = (
{
name = bottom;
position = "{308, 0}";
},
{
name = top;
position = "{308, 730}";
}
);
layerId = "9E6B41AB-2970-4C41-8B35-4DBE0D296A43";
rightMetricsKey = "=d*.2";
paths = (
{
closed = 1;
nodes = (
"263 0 LINE",
"263 215 LINE",
"265 215 LINE",
"402 0 LINE",
"627 0 LINE",
"427 270 LINE",
"622 520 LINE",
"397 520 LINE",
"265 325 LINE",
"263 325 LINE",
"263 730 LINE",
"67 730 LINE",
"67 0 LINE"
);
}
);
width = 640;
}
);
leftKerningGroup = b;
leftMetricsKey = "=h";
rightKerningGroup = x;
rightMetricsKey = "=d*.2";
unicode = 006B;
},
{
color = 11;
glyphname = kgreenlandic;
lastChange = "2021-01-27 09:35:28 +0000";
layers = (
{
anchors = (
{
name = bottom;
position = "{254, 0}";
},
{
name = top;
position = "{254, 520}";
}
);
layerId = "D65C9A1E-0FCA-4B2D-8EDF-9F36CA9182A1";
paths = (
{
closed = 1;
nodes = (
"126 0 LINE",
"126 262 LINE",
"128 262 LINE",
"490 0 LINE",
"524 0 LINE",
"151 270 LINE",
"507 520 LINE",
"473 520 LINE",
"128 278 LINE",
"126 278 LINE",
"126 520 LINE",
"104 520 LINE",
"104 0 LINE"
);
}
);
width = 566;
},
{
anchors = (
{
name = bottom;
position = "{281, 0}";
},
{
name = top;
position = "{281, 520}";
}
);
layerId = "9527F797-22C1-480E-A1FE-2CDBEBE1FD4C";
paths = (
{
closed = 1;
nodes = (
"194 0 LINE",
"194 235 LINE",
"196 235 LINE",
"436 0 LINE",
"575 0 LINE",
"289 270 LINE",
"564 520 LINE",
"425 520 LINE",
"196 306 LINE",
"194 306 LINE",
"194 520 LINE",
"85 520 LINE",
"85 0 LINE"
);
}
);
width = 601;
},
{
anchors = (
{
name = bottom;
position = "{308, 0}";
},
{
name = top;
position = "{308, 520}";
}
);
layerId = "9E6B41AB-2970-4C41-8B35-4DBE0D296A43";
paths = (
{
closed = 1;
nodes = (
"263 0 LINE",
"263 215 LINE",
"265 215 LINE",
"402 0 LINE",
"627 0 LINE",
"427 270 LINE",
"622 520 LINE",
"397 520 LINE",
"265 325 LINE",
"263 325 LINE",
"263 520 LINE",
"67 520 LINE",
"67 0 LINE"
);
}
);
width = 640;
}
);
leftKerningGroup = n;
leftMetricsKey = "=k";
rightKerningGroup = x;
rightMetricsKey = "=k";
unicode = 0138;
},
{
color = 10;
glyphname = l;
lastChange = "2021-01-27 09:34:16 +0000";
layers = (
{
anchors = (
{
name = bottom;
position = "{124, 0}";
},
{
name = center;
position = "{124, 430}";
},
{
name = pdcenter;
position = "{350, 375}";
},
{
name = top;
position = "{124, 730}";
},
{
name = topright;
position = "{208, 730}";
}
);
layerId = "D65C9A1E-0FCA-4B2D-8EDF-9F36CA9182A1";
paths = (
{
closed = 1;
nodes = (
"134 0 LINE",
"134 730 LINE",
"114 730 LINE",
"114 0 LINE"
);
}
);
width = 248;
},
{
anchors = (
{
name = bottom;
position = "{149, 0}";
},
{
name = center;
position = "{149, 430}";
},
{
name = pdcenter;
position = "{445, 375}";
},
{
name = top;
position = "{149, 730}";
},
{
name = topright;
position = "{263, 730}";
}
);
layerId = "9527F797-22C1-480E-A1FE-2CDBEBE1FD4C";
paths = (
{
closed = 1;
nodes = (
"204 0 LINE",
"204 730 LINE",
"94 730 LINE",
"94 0 LINE"
);
}
);
width = 298;
},
{
anchors = (
{
name = bottom;
position = "{174, 0}";
},
{
name = center;
position = "{174, 430}";
},
{
name = pdcenter;
position = "{539, 375}";
},
{
name = top;
position = "{174, 730}";
},
{
name = topright;
position = "{319, 730}";
}
);
layerId = "9E6B41AB-2970-4C41-8B35-4DBE0D296A43";
paths = (
{
closed = 1;
nodes = (
"274 0 LINE",
"274 730 LINE",
"74 730 LINE",
"74 0 LINE"
);
}
);
width = 348;
}
);
leftKerningGroup = l;
leftMetricsKey = "=h*1.1";
rightKerningGroup = l;
rightMetricsKey = "=|";
unicode = 006C;
},
{
color = 11;
glyphname = lslash;
lastChange = "2021-01-27 09:34:17 +0000";
layers = (
{
components = (
{
name = l;
transform = "{1, 0, 0, 1, 104, 0}";
}
);
layerId = "D65C9A1E-0FCA-4B2D-8EDF-9F36CA9182A1";
leftMetricsKey = "=t*.9";
paths = (
{
closed = 1;
nodes = (
"377 431 LINE",
"369 449 LINE",
"39 299 LINE",
"47 281 LINE"
);
}
);
width = 416;
},
{
components = (
{
alignment = -1;
name = l;
transform = "{1, 0, 0, 1, 99, 0}";
}
);
layerId = "9527F797-22C1-480E-A1FE-2CDBEBE1FD4C";
leftMetricsKey = "=t*.7";
paths = (
{
closed = 1;
nodes = (
"451 407 LINE",
"415 491 LINE",
"15 323 LINE",
"51 239 LINE"
);
}
);
width = 466;
},
{
components = (
{
name = l;
transform = "{1, 0, 0, 1, 105, 0}";
}
);
layerId = "9E6B41AB-2970-4C41-8B35-4DBE0D296A43";
leftMetricsKey = "=t*.5";
paths = (
{
closed = 1;
nodes = (
"532 393 LINE",
"477 523 LINE",
"8 337 LINE",
"63 207 LINE"
);
}
);
width = 540;
}
);
leftKerningGroup = o;
leftMetricsKey = "=t*.5";
rightKerningGroup = f;
rightMetricsKey = "=|";
unicode = 0142;
},
{
color = 10;
glyphname = m;
lastChange = "2021-01-27 09:34:16 +0000";
layers = (
{
layerId = "D65C9A1E-0FCA-4B2D-8EDF-9F36CA9182A1";
paths = (
{
closed = 1;
nodes = (
"124 0 LINE",
"124 320 LINE SMOOTH",
"124 426 OFFCURVE",
"204 510 OFFCURVE",
"303 510 CURVE SMOOTH",
"386 510 OFFCURVE",
"439 451 OFFCURVE",
"439 360 CURVE SMOOTH",
"439 0 LINE",
"459 0 LINE",
"459 320 LINE SMOOTH",
"459 437 OFFCURVE",
"528 510 OFFCURVE",
"638 510 CURVE SMOOTH",
"732 510 OFFCURVE",
"774 458 OFFCURVE",
"774 340 CURVE SMOOTH",
"774 0 LINE",
"794 0 LINE",
"794 340 LINE SMOOTH",
"794 469 OFFCURVE",
"744 530 OFFCURVE",
"638 530 CURVE SMOOTH",
"552 530 OFFCURVE",
"491 490 OFFCURVE",
"456 412 CURVE",
"454 412 LINE",
"439 485 OFFCURVE",
"381 530 OFFCURVE",
"303 530 CURVE SMOOTH",
"227 530 OFFCURVE",
"162 487 OFFCURVE",
"126 412 CURVE",
"124 412 LINE",
"124 520 LINE",
"104 520 LINE",
"104 0 LINE"
);
}
);
width = 877;
},
{
layerId = "9527F797-22C1-480E-A1FE-2CDBEBE1FD4C";
paths = (
{
closed = 1;
nodes = (
"191 0 LINE",
"191 310 LINE SMOOTH",
"191 384 OFFCURVE",
"242 440 OFFCURVE",
"309 440 CURVE SMOOTH",
"365 440 OFFCURVE",
"397 401 OFFCURVE",
"397 330 CURVE SMOOTH",
"397 0 LINE",
"503 0 LINE",
"503 310 LINE SMOOTH",
"503 389 OFFCURVE",
"549 440 OFFCURVE",
"621 440 CURVE SMOOTH",
"682 440 OFFCURVE",
"709 403 OFFCURVE",
"709 320 CURVE SMOOTH",
"709 0 LINE",
"815 0 LINE",
"815 345 LINE SMOOTH",
"815 473 OFFCURVE",
"765 530 OFFCURVE",
"652 530 CURVE SMOOTH",
"581 530 OFFCURVE",
"530 507 OFFCURVE",
"491 458 CURVE",
"489 458 LINE",
"469 505 OFFCURVE",
"419 530 OFFCURVE",
"350 530 CURVE SMOOTH",
"279 530 OFFCURVE",
"226 503 OFFCURVE",
"189 458 CURVE",
"187 458 LINE",
"186 520 LINE",
"85 520 LINE",
"85 0 LINE"
);
}
);
width = 883;
},
{
layerId = "9E6B41AB-2970-4C41-8B35-4DBE0D296A43";
paths = (
{
closed = 1;
nodes = (
"259 0 LINE",
"259 300 LINE SMOOTH",
"259 341 OFFCURVE",
"282 370 OFFCURVE",
"315 370 CURVE SMOOTH",
"344 370 OFFCURVE",
"356 349 OFFCURVE",
"356 300 CURVE SMOOTH",
"356 0 LINE",
"548 0 LINE",
"548 300 LINE SMOOTH",
"548 341 OFFCURVE",
"571 370 OFFCURVE",
"604 370 CURVE SMOOTH",
"633 370 OFFCURVE",
"645 349 OFFCURVE",
"645 300 CURVE SMOOTH",
"645 0 LINE",
"837 0 LINE",
"837 350 LINE SMOOTH",
"837 476 OFFCURVE",
"792 530 OFFCURVE",
"686 530 CURVE SMOOTH",
"620 530 OFFCURVE",
"572 509 OFFCURVE",
"526 460 CURVE",
"524 460 LINE",
"501 507 OFFCURVE",
"460 530 OFFCURVE",
"397 530 CURVE SMOOTH",
"337 530 OFFCURVE",
"294 509 OFFCURVE",
"253 460 CURVE",
"251 460 LINE",
"249 520 LINE",
"67 520 LINE",
"67 0 LINE"
);
}
);
width = 891;
},
{
associatedMasterId = "D65C9A1E-0FCA-4B2D-8EDF-9F36CA9182A1";
background = {
paths = (
{
closed = 1;
nodes = (
"145 0 LINE",
"145 257 LINE SMOOTH",
"145 392 OFFCURVE",
"206 487 OFFCURVE",
"294 487 CURVE SMOOTH",
"367 487 OFFCURVE",
"411 423 OFFCURVE",
"411 317 CURVE SMOOTH",
"411 0 LINE",
"460 0 LINE",
"460 292 LINE SMOOTH",
"460 406 OFFCURVE",
"522 487 OFFCURVE",
"609 487 CURVE SMOOTH",
"680 487 OFFCURVE",
"726 433 OFFCURVE",
"726 350 CURVE SMOOTH",
"726 0 LINE",
"775 0 LINE",
"775 358 LINE SMOOTH",
"775 468 OFFCURVE",
"720 530 OFFCURVE",
"622 530 CURVE SMOOTH",
"548 530 OFFCURVE",
"484 495 OFFCURVE",
"450 435 CURVE",
"448 435 LINE",
"424 497 OFFCURVE",
"376 530 OFFCURVE",
"307 530 CURVE SMOOTH",
"237 530 OFFCURVE",
"182 497 OFFCURVE",
"146 435 CURVE",
"144 435 LINE",
"143 520 LINE",
"96 520 LINE",
"96 0 LINE"
);
}
);
};
layerId = "0CBD3FAB-BA75-4DFC-AD86-B9F788B7BCE9";
name = "Light {232}";
paths = (
{
closed = 1;
nodes = (
"145 0 LINE",
"145 316 LINE SMOOTH",
"145 400 OFFCURVE",
"211 487 OFFCURVE",
"304 487 CURVE SMOOTH",
"382 487 OFFCURVE",
"424 439 OFFCURVE",
"424 350 CURVE SMOOTH",
"424 0 LINE",
"473 0 LINE",
"473 316 LINE SMOOTH",
"473 418 OFFCURVE",
"537 487 OFFCURVE",
"632 487 CURVE SMOOTH",
"717 487 OFFCURVE",
"752 438 OFFCURVE",
"752 316 CURVE SMOOTH",
"752 0 LINE",
"800 0 LINE",
"800 325 LINE SMOOTH",
"800 469 OFFCURVE",
"755 530 OFFCURVE",
"645 530 CURVE SMOOTH",
"567 530 OFFCURVE",
"503 499 OFFCURVE",
"467 441 CURVE",
"465 441 LINE",
"448 499 OFFCURVE",
"396 530 OFFCURVE",
"318 530 CURVE SMOOTH",
"243 530 OFFCURVE",
"180 494 OFFCURVE",
"146 441 CURVE",
"144 441 LINE",
"144 520 LINE",
"97 520 LINE",
"97 0 LINE"
);
}
);
width = 878;
}
);
leftKerningGroup = n;
leftMetricsKey = "=n";
rightKerningGroup = h;
rightMetricsKey = "=n";
unicode = 006D;
},
{
color = 10;
glyphname = n;
lastChange = "2021-01-27 09:34:15 +0000";
layers = (
{
anchors = (
{
name = bottom;
position = "{305, 0}";
},
{
name = top;
position = "{305, 520}";
}
);
layerId = "D65C9A1E-0FCA-4B2D-8EDF-9F36CA9182A1";
paths = (
{
closed = 1;
nodes = (
"124 0 LINE",
"124 320 LINE SMOOTH",
"124 432 OFFCURVE",
"210 510 OFFCURVE",
"334 510 CURVE SMOOTH",
"443 510 OFFCURVE",
"494 449 OFFCURVE",
"494 320 CURVE SMOOTH",
"494 0 LINE",
"514 0 LINE",
"514 320 LINE SMOOTH",
"514 460 OFFCURVE",
"455 530 OFFCURVE",
"334 530 CURVE SMOOTH",
"239 530 OFFCURVE",
"162 487 OFFCURVE",
"126 412 CURVE",
"124 412 LINE",
"124 520 LINE",
"104 520 LINE",
"104 0 LINE"
);
}
);
width = 597;
},
{
anchors = (
{
name = bottom;
position = "{316, 0}";
},
{
name = top;
position = "{316, 520}";
}
);
layerId = "9527F797-22C1-480E-A1FE-2CDBEBE1FD4C";
paths = (
{
closed = 1;
nodes = (
"193 0 LINE",
"193 310 LINE SMOOTH",
"193 385 OFFCURVE",
"254 440 OFFCURVE",
"338 440 CURVE SMOOTH",
"413 440 OFFCURVE",
"447 396 OFFCURVE",
"447 300 CURVE SMOOTH",
"447 0 LINE",
"555 0 LINE",
"555 320 LINE SMOOTH",
"555 464 OFFCURVE",
"496 530 OFFCURVE",
"368 530 CURVE SMOOTH",
"290 530 OFFCURVE",
"232 506 OFFCURVE",
"191 458 CURVE",
"189 458 LINE",
"188 520 LINE",
"85 520 LINE",
"85 0 LINE"
);
}
);
width = 623;
},
{
anchors = (
{
name = bottom;
position = "{329, 0}";
},
{
name = top;
position = "{329, 520}";
}
);
layerId = "9E6B41AB-2970-4C41-8B35-4DBE0D296A43";
paths = (
{
closed = 1;
nodes = (
"263 0 LINE",
"263 300 LINE SMOOTH",
"263 341 OFFCURVE",
"296 370 OFFCURVE",
"342 370 CURVE SMOOTH",
"384 370 OFFCURVE",
"401 345 OFFCURVE",
"401 280 CURVE SMOOTH",
"401 0 LINE",
"597 0 LINE",
"597 320 LINE SMOOTH",
"597 466 OFFCURVE",
"543 530 OFFCURVE",
"422 530 CURVE SMOOTH",
"352 530 OFFCURVE",
"303 509 OFFCURVE",
"257 460 CURVE",
"255 460 LINE",
"253 520 LINE",
"67 520 LINE",
"67 0 LINE"
);
}
);
width = 651;
},
{
anchors = (
{
name = bottom;
position = "{309, 0}";
},
{
name = top;
position = "{309, 520}";
}
);
associatedMasterId = "D65C9A1E-0FCA-4B2D-8EDF-9F36CA9182A1";
layerId = "899DC2DC-F451-4B84-9275-F30D30733E24";
name = "Light {232}";
paths = (
{
closed = 1;
nodes = (
"146 0 LINE",
"146 316 LINE SMOOTH",
"146 416 OFFCURVE",
"224 487 OFFCURVE",
"335 487 CURVE SMOOTH",
"432 487 OFFCURVE",
"478 432 OFFCURVE",
"478 313 CURVE SMOOTH",
"478 0 LINE",
"527 0 LINE",
"527 320 LINE SMOOTH",
"527 463 OFFCURVE",
"469 530 OFFCURVE",
"345 530 CURVE SMOOTH",
"258 530 OFFCURVE",
"185 497 OFFCURVE",
"148 441 CURVE",
"146 441 LINE",
"146 520 LINE",
"97 520 LINE",
"97 0 LINE"
);
}
);
width = 605;
}
);
leftKerningGroup = n;
leftMetricsKey = "=h";
rightKerningGroup = h;
rightMetricsKey = "=h";
unicode = 006E;
},
{
color = 11;
glyphname = eng;
lastChange = "2021-01-27 09:34:15 +0000";
layers = (
{
anchors = (
{
name = bottom;
position = "{305, 0}";
},
{
name = top;
position = "{305, 520}";
}
);
background = {
components = (
{
name = n;
transform = "{1, 0, 0, 1, 19, 0}";
}
);
};
layerId = "D65C9A1E-0FCA-4B2D-8EDF-9F36CA9182A1";
paths = (
{
closed = 1;
nodes = (
"471 -211 OFFCURVE",
"514 -164 OFFCURVE",
"514 -61 CURVE SMOOTH",
"514 320 LINE SMOOTH",
"514 458 OFFCURVE",
"457 530 OFFCURVE",
"348 530 CURVE SMOOTH",
"252 530 OFFCURVE",
"165 475 OFFCURVE",
"126 388 CURVE",
"124 388 LINE",
"124 520 LINE",
"104 520 LINE",
"104 0 LINE",
"124 0 LINE",
"124 290 LINE SMOOTH",
"124 412 OFFCURVE",
"224 510 OFFCURVE",
"348 510 CURVE SMOOTH",
"446 510 OFFCURVE",
"494 448 OFFCURVE",
"494 320 CURVE SMOOTH",
"494 -61 LINE SMOOTH",
"494 -153 OFFCURVE",
"459 -191 OFFCURVE",
"374 -191 CURVE SMOOTH",
"349 -191 OFFCURVE",
"323 -186 OFFCURVE",
"301 -177 CURVE",
"295 -196 LINE",
"319 -205 OFFCURVE",
"347 -211 OFFCURVE",
"374 -211 CURVE SMOOTH"
);
}
);
width = 597;
},
{
anchors = (
{
name = bottom;
position = "{316, 0}";
},
{
name = top;
position = "{316, 520}";
}
);
background = {
components = (
{
name = n;
transform = "{1, 0, 0, 1, 13, 0}";
}
);
};
layerId = "9527F797-22C1-480E-A1FE-2CDBEBE1FD4C";
paths = (
{
closed = 1;
nodes = (
"503 -221 OFFCURVE",
"555 -163 OFFCURVE",
"555 -26 CURVE SMOOTH",
"555 320 LINE SMOOTH",
"555 462 OFFCURVE",
"500 530 OFFCURVE",
"385 530 CURVE SMOOTH",
"306 530 OFFCURVE",
"234 498 OFFCURVE",
"191 444 CURVE",
"189 444 LINE",
"188 520 LINE",
"85 520 LINE",
"85 0 LINE",
"193 0 LINE",
"193 265 LINE SMOOTH",
"193 356 OFFCURVE",
"271 440 OFFCURVE",
"355 440 CURVE SMOOTH",
"417 440 OFFCURVE",
"447 394 OFFCURVE",
"447 300 CURVE SMOOTH",
"447 -26 LINE SMOOTH",
"447 -97 OFFCURVE",
"421 -126 OFFCURVE",
"357 -126 CURVE SMOOTH",
"332 -126 OFFCURVE",
"306 -122 OFFCURVE",
"282 -114 CURVE",
"267 -205 LINE",
"304 -216 OFFCURVE",
"342 -221 OFFCURVE",
"379 -221 CURVE SMOOTH"
);
}
);
width = 623;
},
{
anchors = (
{
name = bottom;
position = "{329, 0}";
},
{
name = top;
position = "{329, 520}";
}
);
background = {
components = (
{
name = n;
transform = "{1, 0, 0, 1, 8, 0}";
}
);
};
layerId = "9E6B41AB-2970-4C41-8B35-4DBE0D296A43";
paths = (
{
closed = 1;
nodes = (
"542 -229 OFFCURVE",
"597 -169 OFFCURVE",
"597 0 CURVE SMOOTH",
"597 320 LINE SMOOTH",
"597 469 OFFCURVE",
"548 530 OFFCURVE",
"427 530 CURVE SMOOTH",
"357 530 OFFCURVE",
"306 509 OFFCURVE",
"257 460 CURVE",
"255 460 LINE",
"253 520 LINE",
"67 520 LINE",
"67 0 LINE",
"263 0 LINE",
"263 300 LINE SMOOTH",
"263 341 OFFCURVE",
"296 370 OFFCURVE",
"342 370 CURVE SMOOTH",
"384 370 OFFCURVE",
"401 345 OFFCURVE",
"401 280 CURVE SMOOTH",
"401 0 LINE SMOOTH",
"401 -54 OFFCURVE",
"388 -70 OFFCURVE",
"342 -70 CURVE SMOOTH",
"320 -70 OFFCURVE",
"287 -66 OFFCURVE",
"259 -59 CURVE",
"239 -214 LINE",
"287 -223 OFFCURVE",
"337 -229 OFFCURVE",
"385 -229 CURVE SMOOTH"
);
}
);
width = 651;
},
{
anchors = (
{
name = bottom;
position = "{308, 0}";
},
{
name = top;
position = "{308, 520}";
}
);
associatedMasterId = "D65C9A1E-0FCA-4B2D-8EDF-9F36CA9182A1";
background = {
components = (
{
name = n;
transform = "{1, 0, 0, 1, 16, 0}";
}
);
};
layerId = "79FE56B5-3AAC-4AE6-A914-FF8F134DF163";
name = "Light {232}";
paths = (
{
closed = 1;
nodes = (
"481 -214 OFFCURVE",
"527 -164 OFFCURVE",
"527 -49 CURVE SMOOTH",
"527 320 LINE SMOOTH",
"527 461 OFFCURVE",
"472 530 OFFCURVE",
"359 530 CURVE SMOOTH",
"270 530 OFFCURVE",
"186 487 OFFCURVE",
"146 421 CURVE",
"144 421 LINE",
"144 520 LINE",
"97 520 LINE",
"97 0 LINE",
"146 0 LINE",
"146 282 LINE SMOOTH",
"146 394 OFFCURVE",
"238 487 OFFCURVE",
"349 487 CURVE SMOOTH",
"435 487 OFFCURVE",
"477 430 OFFCURVE",
"477 313 CURVE SMOOTH",
"477 -49 LINE SMOOTH",
"477 -135 OFFCURVE",
"445 -170 OFFCURVE",
"368 -170 CURVE SMOOTH",
"343 -170 OFFCURVE",
"317 -165 OFFCURVE",
"294 -156 CURVE",
"285 -199 LINE",
"314 -209 OFFCURVE",
"345 -214 OFFCURVE",
"375 -214 CURVE SMOOTH"
);
}
);
width = 605;
}
);
leftKerningGroup = n;
leftMetricsKey = "=h";
rightKerningGroup = g;
rightMetricsKey = "=h";
unicode = 014B;
},
{
color = 10;
glyphname = o;
lastChange = "2021-01-27 09:34:15 +0000";
layers = (
{
anchors = (
{
name = bottom;
position = "{292, 0}";
},
{
name = center;
position = "{292, 260}";
},
{
name = ogonek;
position = "{339, 0}";
},
{
name = top;
position = "{292, 520}";
},
{
name = topright;
position = "{438, 480}";
}
);
layerId = "D65C9A1E-0FCA-4B2D-8EDF-9F36CA9182A1";
paths = (
{
closed = 1;
nodes = (
"441 -10 OFFCURVE",
"532 92 OFFCURVE",
"532 260 CURVE SMOOTH",
"532 428 OFFCURVE",
"441 530 OFFCURVE",
"292 530 CURVE SMOOTH",
"143 530 OFFCURVE",
"52 428 OFFCURVE",
"52 260 CURVE SMOOTH",
"52 92 OFFCURVE",
"143 -10 OFFCURVE",
"292 -10 CURVE SMOOTH"
);
},
{
closed = 1;
nodes = (
"154 10 OFFCURVE",
"72 103 OFFCURVE",
"72 260 CURVE SMOOTH",
"72 417 OFFCURVE",
"154 510 OFFCURVE",
"292 510 CURVE SMOOTH",
"430 510 OFFCURVE",
"512 417 OFFCURVE",
"512 260 CURVE SMOOTH",
"512 103 OFFCURVE",
"430 10 OFFCURVE",
"292 10 CURVE SMOOTH"
);
}
);
width = 584;
},
{
anchors = (
{
name = bottom;
position = "{303, 0}";
},
{
name = center;
position = "{303, 260}";
},
{
name = ogonek;
position = "{369, 0}";
},
{
name = top;
position = "{303, 520}";
},
{
name = topright;
position = "{463, 482}";
}
);
layerId = "9527F797-22C1-480E-A1FE-2CDBEBE1FD4C";
paths = (
{
closed = 1;
nodes = (
"468 -10 OFFCURVE",
"563 88 OFFCURVE",
"563 260 CURVE SMOOTH",
"563 432 OFFCURVE",
"468 530 OFFCURVE",
"303 530 CURVE SMOOTH",
"138 530 OFFCURVE",
"43 432 OFFCURVE",
"43 260 CURVE SMOOTH",
"43 88 OFFCURVE",
"138 -10 OFFCURVE",
"303 -10 CURVE SMOOTH"
);
},
{
closed = 1;
nodes = (
"205 80 OFFCURVE",
"151 143 OFFCURVE",
"151 260 CURVE SMOOTH",
"151 377 OFFCURVE",
"205 440 OFFCURVE",
"303 440 CURVE SMOOTH",
"401 440 OFFCURVE",
"455 377 OFFCURVE",
"455 260 CURVE SMOOTH",
"455 143 OFFCURVE",
"401 80 OFFCURVE",
"303 80 CURVE SMOOTH"
);
}
);
width = 606;
},
{
anchors = (
{
name = bottom;
position = "{314, 0}";
},
{
name = center;
position = "{314, 260}";
},
{
name = ogonek;
position = "{400, 0}";
},
{
name = top;
position = "{314, 520}";
},
{
name = topright;
position = "{489, 484}";
}
);
layerId = "9E6B41AB-2970-4C41-8B35-4DBE0D296A43";
paths = (
{
closed = 1;
nodes = (
"496 -10 OFFCURVE",
"594 84 OFFCURVE",
"594 260 CURVE SMOOTH",
"594 436 OFFCURVE",
"496 530 OFFCURVE",
"314 530 CURVE SMOOTH",
"132 530 OFFCURVE",
"34 436 OFFCURVE",
"34 260 CURVE SMOOTH",
"34 84 OFFCURVE",
"132 -10 OFFCURVE",
"314 -10 CURVE SMOOTH"
);
},
{
closed = 1;
nodes = (
"255 130 OFFCURVE",
"230 170 OFFCURVE",
"230 260 CURVE SMOOTH",
"230 350 OFFCURVE",
"255 390 OFFCURVE",
"314 390 CURVE SMOOTH",
"372 390 OFFCURVE",
"398 350 OFFCURVE",
"398 260 CURVE SMOOTH",
"398 170 OFFCURVE",
"372 130 OFFCURVE",
"314 130 CURVE SMOOTH"
);
}
);
width = 628;
}
);
leftKerningGroup = o;
leftMetricsKey = "=h*.5";
rightKerningGroup = o;
rightMetricsKey = "=|";
unicode = 006F;
},
{
color = 11;
glyphname = oslash;
lastChange = "2020-12-09 07:59:53 +0000";
layers = (
{
anchors = (
{
name = top;
position = "{273, 520}";
}
);
components = (
{
name = o.002;
}
);
layerId = "D65C9A1E-0FCA-4B2D-8EDF-9F36CA9182A1";
paths = (
{
closed = 1;
nodes = (
"126 46 LINE",
"126 46 LINE",
"434 462 LINE",
"434 462 LINE",
"480 524 LINE",
"464 536 LINE",
"418 474 LINE",
"418 474 LINE",
"110 58 LINE",
"110 58 LINE",
"64 -4 LINE",
"80 -16 LINE"
);
}
);
width = 546;
},
{
anchors = (
{
name = top;
position = "{289, 520}";
}
);
components = (
{
alignment = -1;
name = o.002;
}
);
layerId = "9527F797-22C1-480E-A1FE-2CDBEBE1FD4C";
paths = (
{
closed = 1;
nodes = (
"172 35 LINE",
"172 35 LINE",
"470 437 LINE",
"470 437 LINE",
"521 506 LINE",
"457 554 LINE",
"406 485 LINE",
"406 485 LINE",
"108 83 LINE",
"108 83 LINE",
"57 14 LINE",
"121 -34 LINE"
);
}
);
width = 578;
},
{
anchors = (
{
name = top;
position = "{305, 520}";
}
);
components = (
{
name = o.002;
}
);
layerId = "9E6B41AB-2970-4C41-8B35-4DBE0D296A43";
paths = (
{
closed = 1;
nodes = (
"184 14 LINE",
"176 20 LINE",
"496 452 LINE",
"504 446 LINE",
"544 500 LINE",
"464 560 LINE",
"424 506 LINE",
"432 500 LINE",
"112 68 LINE",
"104 74 LINE",
"64 20 LINE",
"144 -40 LINE"
);
}
);
width = 610;
}
);
leftKerningGroup = o;
rightKerningGroup = o;
unicode = 00F8;
},
{
color = 11;
glyphname = oe;
lastChange = "2021-01-27 09:34:16 +0000";
layers = (
{
background = {
components = (
{
name = o.002;
},
{
name = e;
transform = "{1, 0, 0, 1, 440, 0}";
}
);
};
components = (
{
name = o.002;
}
);
layerId = "D65C9A1E-0FCA-4B2D-8EDF-9F36CA9182A1";
paths = (
{
closed = 1;
nodes = (
"789 -10 OFFCURVE",
"852 4 OFFCURVE",
"903 30 CURVE",
"894 48 LINE",
"847 24 OFFCURVE",
"787 10 OFFCURVE",
"729 10 CURVE SMOOTH",
"583 10 OFFCURVE",
"503 97 OFFCURVE",
"503 260 CURVE",
"503 260 LINE",
"503 419 OFFCURVE",
"580 510 OFFCURVE",
"713 510 CURVE SMOOTH",
"837 510 OFFCURVE",
"903 427 OFFCURVE",
"903 268 CURVE",
"913 278 LINE",
"493 278 LINE",
"493 258 LINE",
"923 258 LINE",
"923 263 OFFCURVE",
"923 263 OFFCURVE",
"923 268 CURVE SMOOTH",
"923 437 OFFCURVE",
"849 530 OFFCURVE",
"713 530 CURVE SMOOTH",
"568 530 OFFCURVE",
"483 429 OFFCURVE",
"483 260 CURVE SMOOTH",
"483 87 OFFCURVE",
"571 -10 OFFCURVE",
"729 -10 CURVE SMOOTH"
);
}
);
width = 972;
},
{
background = {
components = (
{
name = o.002;
},
{
name = e;
transform = "{1, 0, 0, 1, 398, 0}";
}
);
};
components = (
{
name = o.002;
}
);
layerId = "9527F797-22C1-480E-A1FE-2CDBEBE1FD4C";
paths = (
{
closed = 1;
nodes = (
"776 -10 OFFCURVE",
"845 3 OFFCURVE",
"894 24 CURVE",
"879 113 LINE",
"832 93 OFFCURVE",
"765 80 OFFCURVE",
"708 80 CURVE SMOOTH",
"596 80 OFFCURVE",
"540 134 OFFCURVE",
"540 240 CURVE SMOOTH",
"540 270 LINE",
"540 383 OFFCURVE",
"589 442 OFFCURVE",
"681 442 CURVE SMOOTH",
"772 442 OFFCURVE",
"818 385 OFFCURVE",
"818 270 CURVE",
"834 300 LINE",
"494 300 LINE",
"494 215 LINE",
"917 215 LINE",
"918 223 OFFCURVE",
"919 248 OFFCURVE",
"919 265 CURVE SMOOTH",
"919 434 OFFCURVE",
"833 530 OFFCURVE",
"681 530 CURVE SMOOTH",
"527 530 OFFCURVE",
"434 429 OFFCURVE",
"434 260 CURVE SMOOTH",
"434 87 OFFCURVE",
"533 -10 OFFCURVE",
"712 -10 CURVE SMOOTH"
);
}
);
width = 960;
},
{
background = {
components = (
{
name = o.002;
transform = "{1, 0, 0, 1, 1, 0}";
},
{
name = e;
transform = "{1, 0, 0, 1, 355, 0}";
}
);
};
components = (
{
name = o.002;
transform = "{1, 0, 0, 1, 1, 0}";
}
);
layerId = "9E6B41AB-2970-4C41-8B35-4DBE0D296A43";
paths = (
{
closed = 1;
nodes = (
"763 -10 OFFCURVE",
"837 1 OFFCURVE",
"884 18 CURVE",
"864 158 LINE",
"817 142 OFFCURVE",
"743 130 OFFCURVE",
"686 130 CURVE SMOOTH",
"608 130 OFFCURVE",
"576 156 OFFCURVE",
"576 220 CURVE SMOOTH",
"576 280 LINE SMOOTH",
"576 367 OFFCURVE",
"600 405 OFFCURVE",
"654 405 CURVE SMOOTH",
"708 405 OFFCURVE",
"732 367 OFFCURVE",
"732 280 CURVE",
"755 315 LINE",
"494 315 LINE",
"494 200 LINE",
"910 200 LINE",
"912 211 OFFCURVE",
"914 246 OFFCURVE",
"914 270 CURVE SMOOTH",
"914 434 OFFCURVE",
"818 530 OFFCURVE",
"654 530 CURVE SMOOTH",
"486 530 OFFCURVE",
"384 428 OFFCURVE",
"384 260 CURVE SMOOTH",
"384 86 OFFCURVE",
"494 -10 OFFCURVE",
"694 -10 CURVE SMOOTH"
);
}
);
width = 946;
}
);
leftKerningGroup = o;
leftMetricsKey = "=o";
rightKerningGroup = o;
rightMetricsKey = "=e";
unicode = 0153;
},
{
color = 11;
glyphname = thorn;
lastChange = "2021-01-27 09:34:16 +0000";
layers = (
{
background = {
components = (
{
name = p;
transform = "{1, 0, 0, 1, 18, 0}";
}
);
};
layerId = "D65C9A1E-0FCA-4B2D-8EDF-9F36CA9182A1";
paths = (
{
closed = 1;
nodes = (
"124 -240 LINE",
"124 120 LINE",
"126 120 LINE",
"160 39 OFFCURVE",
"231 -10 OFFCURVE",
"324 -10 CURVE SMOOTH",
"459 -10 OFFCURVE",
"538 91 OFFCURVE",
"538 260 CURVE SMOOTH",
"538 429 OFFCURVE",
"459 530 OFFCURVE",
"324 530 CURVE SMOOTH",
"231 530 OFFCURVE",
"160 481 OFFCURVE",
"126 400 CURVE",
"124 400 LINE",
"124 760 LINE",
"104 760 LINE",
"104 -240 LINE"
);
},
{
closed = 1;
nodes = (
"202 10 OFFCURVE",
"124 100 OFFCURVE",
"124 235 CURVE SMOOTH",
"124 285 LINE SMOOTH",
"124 420 OFFCURVE",
"202 510 OFFCURVE",
"324 510 CURVE SMOOTH",
"447 510 OFFCURVE",
"518 419 OFFCURVE",
"518 260 CURVE SMOOTH",
"518 101 OFFCURVE",
"447 10 OFFCURVE",
"324 10 CURVE SMOOTH"
);
}
);
width = 590;
},
{
background = {
components = (
{
name = p;
transform = "{1, 0, 0, 1, 13, 0}";
}
);
};
layerId = "9527F797-22C1-480E-A1FE-2CDBEBE1FD4C";
paths = (
{
closed = 1;
nodes = (
"193 -240 LINE",
"193 68 LINE",
"195 68 LINE",
"236 16 OFFCURVE",
"291 -10 OFFCURVE",
"362 -10 CURVE SMOOTH",
"501 -10 OFFCURVE",
"582 89 OFFCURVE",
"582 260 CURVE SMOOTH",
"582 431 OFFCURVE",
"502 530 OFFCURVE",
"362 530 CURVE SMOOTH",
"291 530 OFFCURVE",
"236 504 OFFCURVE",
"195 452 CURVE",
"193 452 LINE",
"193 760 LINE",
"85 760 LINE",
"85 -240 LINE"
);
},
{
closed = 1;
nodes = (
"246 80 OFFCURVE",
"193 146 OFFCURVE",
"193 240 CURVE SMOOTH",
"193 280 LINE SMOOTH",
"193 374 OFFCURVE",
"246 440 OFFCURVE",
"335 440 CURVE SMOOTH",
"424 440 OFFCURVE",
"475 375 OFFCURVE",
"475 260 CURVE SMOOTH",
"475 145 OFFCURVE",
"424 80 OFFCURVE",
"335 80 CURVE SMOOTH"
);
}
);
width = 625;
},
{
background = {
components = (
{
name = p;
transform = "{1, 0, 0, 1, 9, 0}";
}
);
};
layerId = "9E6B41AB-2970-4C41-8B35-4DBE0D296A43";
paths = (
{
closed = 1;
nodes = (
"263 -240 LINE",
"263 60 LINE",
"265 60 LINE",
"310 11 OFFCURVE",
"356 -10 OFFCURVE",
"418 -10 CURVE SMOOTH",
"551 -10 OFFCURVE",
"627 88 OFFCURVE",
"627 260 CURVE SMOOTH",
"627 432 OFFCURVE",
"551 530 OFFCURVE",
"418 530 CURVE SMOOTH",
"356 530 OFFCURVE",
"310 509 OFFCURVE",
"265 460 CURVE",
"263 460 LINE",
"263 760 LINE",
"67 760 LINE",
"67 -240 LINE"
);
},
{
closed = 1;
nodes = (
"289 140 OFFCURVE",
"263 177 OFFCURVE",
"263 240 CURVE SMOOTH",
"263 280 LINE SMOOTH",
"263 343 OFFCURVE",
"289 380 OFFCURVE",
"347 380 CURVE SMOOTH",
"407 380 OFFCURVE",
"435 341 OFFCURVE",
"435 260 CURVE SMOOTH",
"435 179 OFFCURVE",
"407 140 OFFCURVE",
"347 140 CURVE SMOOTH"
);
}
);
width = 661;
},
{
associatedMasterId = "D65C9A1E-0FCA-4B2D-8EDF-9F36CA9182A1";
background = {
components = (
{
name = p;
transform = "{1, 0, 0, 1, 16, 0}";
}
);
};
layerId = "0BCAABAB-37FB-445D-B33E-60B4C38D96A8";
name = "Light {232}";
paths = (
{
closed = 1;
nodes = (
"146 -240 LINE",
"146 90 LINE",
"148 90 LINE",
"184 27 OFFCURVE",
"252 -10 OFFCURVE",
"336 -10 CURVE SMOOTH",
"474 -10 OFFCURVE",
"552 88 OFFCURVE",
"552 260 CURVE SMOOTH",
"552 432 OFFCURVE",
"474 530 OFFCURVE",
"336 530 CURVE SMOOTH",
"252 530 OFFCURVE",
"184 493 OFFCURVE",
"148 430 CURVE",
"146 430 LINE",
"146 760 LINE",
"97 760 LINE",
"97 -240 LINE"
);
},
{
closed = 1;
nodes = (
"216 33 OFFCURVE",
"146 115 OFFCURVE",
"146 237 CURVE SMOOTH",
"146 283 LINE SMOOTH",
"146 405 OFFCURVE",
"216 487 OFFCURVE",
"327 487 CURVE SMOOTH",
"438 487 OFFCURVE",
"503 404 OFFCURVE",
"503 260 CURVE SMOOTH",
"503 116 OFFCURVE",
"438 33 OFFCURVE",
"327 33 CURVE SMOOTH"
);
}
);
width = 601;
}
);
leftKerningGroup = b;
leftMetricsKey = "=b";
rightKerningGroup = o;
rightMetricsKey = "=b";
unicode = 00FE;
},
{
color = 10;
glyphname = r;
lastChange = "2021-01-27 09:34:15 +0000";
layers = (
{
anchors = (
{
name = bottom;
position = "{220, 0}";
},
{
name = top;
position = "{220, 520}";
}
);
layerId = "D65C9A1E-0FCA-4B2D-8EDF-9F36CA9182A1";
rightMetricsKey = "=|*.2";
paths = (
{
closed = 1;
nodes = (
"124 0 LINE",
"124 280 LINE SMOOTH",
"124 408 OFFCURVE",
"235 510 OFFCURVE",
"374 510 CURVE",
"374 530 LINE",
"263 530 OFFCURVE",
"164 466 OFFCURVE",
"126 370 CURVE",
"124 370 LINE",
"124 520 LINE",
"104 520 LINE",
"104 0 LINE"
);
}
);
width = 395;
},
{
anchors = (
{
name = bottom;
position = "{241, 0}";
},
{
name = top;
position = "{241, 520}";
}
);
layerId = "9527F797-22C1-480E-A1FE-2CDBEBE1FD4C";
rightMetricsKey = "=|*.25";
paths = (
{
closed = 1;
nodes = (
"194 0 LINE",
"194 250 LINE SMOOTH",
"194 353 OFFCURVE",
"297 435 OFFCURVE",
"425 435 CURVE",
"425 530 LINE",
"328 530 OFFCURVE",
"241 489 OFFCURVE",
"192 420 CURVE",
"190 420 LINE",
"189 520 LINE",
"85 520 LINE",
"85 0 LINE"
);
}
);
width = 446;
},
{
anchors = (
{
name = bottom;
position = "{240, 0}";
},
{
name = top;
position = "{240, 520}";
}
);
associatedMasterId = "D65C9A1E-0FCA-4B2D-8EDF-9F36CA9182A1";
layerId = "657C252B-5EEF-4E2C-9A2A-557819CBA416";
rightMetricsKey = "=|*.2";
name = "Light {232}";
paths = (
{
closed = 1;
nodes = (
"146 0 LINE",
"146 270 LINE SMOOTH",
"146 390 OFFCURVE",
"254 485 OFFCURVE",
"390 485 CURVE",
"390 530 LINE",
"284 530 OFFCURVE",
"188 479 OFFCURVE",
"147 402 CURVE",
"145 402 LINE",
"145 520 LINE",
"97 520 LINE",
"97 0 LINE"
);
}
);
width = 409;
},
{
anchors = (
{
name = bottom;
position = "{258, 0}";
},
{
name = top;
position = "{258, 520}";
}
);
layerId = "9E6B41AB-2970-4C41-8B35-4DBE0D296A43";
rightMetricsKey = "=|*.3";
paths = (
{
closed = 1;
nodes = (
"265 0 LINE",
"265 220 LINE SMOOTH",
"265 303 OFFCURVE",
"360 370 OFFCURVE",
"477 370 CURVE",
"477 530 LINE",
"394 530 OFFCURVE",
"319 496 OFFCURVE",
"259 430 CURVE",
"257 430 LINE",
"255 520 LINE",
"67 520 LINE",
"67 0 LINE"
);
}
);
width = 497;
},
{
anchors = (
{
name = bottom;
position = "{255, 0}";
},
{
name = top;
position = "{255, 520}";
}
);
associatedMasterId = "9E6B41AB-2970-4C41-8B35-4DBE0D296A43";
layerId = "EA41822C-E4A0-4219-B1AE-55322452DB3D";
rightMetricsKey = "=|*.3";
name = "Jan 27 21, 16:30";
paths = (
{
closed = 1;
nodes = (
"257 0 LINE",
"257 220 LINE SMOOTH",
"257 303 OFFCURVE",
"356 370 OFFCURVE",
"479 370 CURVE",
"479 530 LINE",
"392 530 OFFCURVE",
"314 496 OFFCURVE",
"251 430 CURVE",
"249 430 LINE",
"247 520 LINE",
"59 520 LINE",
"59 0 LINE"
);
}
);
width = 497;
},
{
anchors = (
{
name = bottom;
position = "{243, 0}";
},
{
name = top;
position = "{243, 520}";
}
);
associatedMasterId = "9527F797-22C1-480E-A1FE-2CDBEBE1FD4C";
layerId = "121500C9-FE07-4487-AA60-F6496DD3040D";
rightMetricsKey = "=|*.25";
name = "Jan 27 21, 16:31";
paths = (
{
closed = 1;
nodes = (
"186 0 LINE",
"186 250 LINE SMOOTH",
"186 353 OFFCURVE",
"298 435 OFFCURVE",
"437 435 CURVE",
"437 530 LINE",
"331 530 OFFCURVE",
"237 489 OFFCURVE",
"184 420 CURVE",
"182 420 LINE",
"181 520 LINE",
"77 520 LINE",
"77 0 LINE"
);
}
);
width = 456;
}
);
leftKerningGroup = n;
leftMetricsKey = "=n";
rightKerningGroup = r;
rightMetricsKey = "=|*.3";
unicode = 0072;
},
{
color = 10;
glyphname = s;
lastChange = "2021-01-27 09:34:15 +0000";
layers = (
{
anchors = (
{
name = bottom;
position = "{237, 0}";
},
{
name = cedi;
position = "{178, 0}";
},
{
name = top;
position = "{237, 520}";
}
);
background = {
paths = (
{
closed = 0;
nodes = (
"59 35 LINE",
"107 13 OFFCURVE",
"172 0 OFFCURVE",
"233 0 CURVE SMOOTH",
"348 0 OFFCURVE",
"413 47 OFFCURVE",
"413 130 CURVE SMOOTH",
"413 320 OFFCURVE",
"63 221 OFFCURVE",
"63 400 CURVE SMOOTH",
"63 476 OFFCURVE",
"125 520 OFFCURVE",
"233 520 CURVE SMOOTH",
"292 520 OFFCURVE",
"366 507 OFFCURVE",
"403 490 CURVE"
);
}
);
};
layerId = "D65C9A1E-0FCA-4B2D-8EDF-9F36CA9182A1";
paths = (
{
closed = 1;
nodes = (
"353 -10 OFFCURVE",
"422 41 OFFCURVE",
"422 130 CURVE SMOOTH",
"422 234 OFFCURVE",
"325 258 OFFCURVE",
"236 280 CURVE SMOOTH",
"150 301 OFFCURVE",
"73 320 OFFCURVE",
"73 400 CURVE SMOOTH",
"73 470 OFFCURVE",
"130 510 OFFCURVE",
"233 510 CURVE SMOOTH",
"291 510 OFFCURVE",
"363 497 OFFCURVE",
"398 481 CURVE",
"407 499 LINE",
"368 517 OFFCURVE",
"293 530 OFFCURVE",
"233 530 CURVE SMOOTH",
"119 530 OFFCURVE",
"53 482 OFFCURVE",
"52 400 CURVE SMOOTH",
"52 304 OFFCURVE",
"145 281 OFFCURVE",
"231 260 CURVE SMOOTH",
"320 239 OFFCURVE",
"403 219 OFFCURVE",
"403 130 CURVE SMOOTH",
"403 53 OFFCURVE",
"342 10 OFFCURVE",
"233 10 CURVE SMOOTH",
"172 10 OFFCURVE",
"109 23 OFFCURVE",
"63 44 CURVE",
"54 26 LINE",
"104 3 OFFCURVE",
"170 -10 OFFCURVE",
"233 -10 CURVE SMOOTH"
);
}
);
width = 474;
},
{
anchors = (
{
name = bottom;
position = "{252, 0}";
},
{
name = cedi;
position = "{190, 0}";
},
{
name = top;
position = "{252, 520}";
}
);
layerId = "9527F797-22C1-480E-A1FE-2CDBEBE1FD4C";
paths = (
{
closed = 1;
nodes = (
"387 -10 OFFCURVE",
"463 45 OFFCURVE",
"463 143 CURVE SMOOTH",
"463 229 OFFCURVE",
"403 279 OFFCURVE",
"262 311 CURVE SMOOTH",
"177 333 OFFCURVE",
"153 348 OFFCURVE",
"153 382 CURVE SMOOTH",
"153 422 OFFCURVE",
"187 440 OFFCURVE",
"263 440 CURVE SMOOTH",
"319 440 OFFCURVE",
"377 430 OFFCURVE",
"432 410 CURVE",
"447 499 LINE",
"390 518 OFFCURVE",
"314 530 OFFCURVE",
"250 530 CURVE SMOOTH",
"116 530 OFFCURVE",
"43 479 OFFCURVE",
"43 385 CURVE SMOOTH",
"43 301 OFFCURVE",
"98 255 OFFCURVE",
"240 221 CURVE SMOOTH",
"327 200 OFFCURVE",
"353 183 OFFCURVE",
"353 146 CURVE SMOOTH",
"353 101 OFFCURVE",
"317 80 OFFCURVE",
"239 80 CURVE SMOOTH",
"179 80 OFFCURVE",
"118 92 OFFCURVE",
"60 116 CURVE",
"45 27 LINE",
"102 4 OFFCURVE",
"183 -10 OFFCURVE",
"252 -10 CURVE SMOOTH"
);
}
);
width = 506;
},
{
anchors = (
{
name = bottom;
position = "{268, 0}";
},
{
name = cedi;
position = "{202, 0}";
},
{
name = top;
position = "{268, 520}";
}
);
layerId = "9E6B41AB-2970-4C41-8B35-4DBE0D296A43";
paths = (
{
closed = 1;
nodes = (
"412 -10 OFFCURVE",
"503 54 OFFCURVE",
"503 155 CURVE SMOOTH",
"503 244 OFFCURVE",
"435 299 OFFCURVE",
"288 331 CURVE SMOOTH",
"248 342 OFFCURVE",
"234 351 OFFCURVE",
"233 367 CURVE SMOOTH",
"234 384 OFFCURVE",
"248 390 OFFCURVE",
"293 390 CURVE SMOOTH",
"350 390 OFFCURVE",
"395 381 OFFCURVE",
"466 359 CURVE",
"486 499 LINE",
"413 519 OFFCURVE",
"333 530 OFFCURVE",
"266 530 CURVE SMOOTH",
"113 530 OFFCURVE",
"33 475 OFFCURVE",
"33 370 CURVE SMOOTH",
"33 277 OFFCURVE",
"91 229 OFFCURVE",
"249 191 CURVE SMOOTH",
"294 179 OFFCURVE",
"304 172 OFFCURVE",
"303 157 CURVE SMOOTH",
"304 137 OFFCURVE",
"288 130 OFFCURVE",
"244 130 CURVE SMOOTH",
"185 130 OFFCURVE",
"129 141 OFFCURVE",
"56 167 CURVE",
"36 27 LINE",
"105 2 OFFCURVE",
"183 -10 OFFCURVE",
"271 -10 CURVE SMOOTH"
);
}
);
width = 536;
}
);
leftKerningGroup = s;
leftMetricsKey = "=h*.5";
rightKerningGroup = s;
rightMetricsKey = "=|";
unicode = 0073;
},
{
color = 11;
glyphname = germandbls;
lastChange = "2021-01-27 09:34:16 +0000";
layers = (
{
layerId = "D65C9A1E-0FCA-4B2D-8EDF-9F36CA9182A1";
rightMetricsKey = "=X*.7";
paths = (
{
closed = 1;
nodes = (
"470 -10 OFFCURVE",
"544 57 OFFCURVE",
"544 160 CURVE SMOOTH",
"544 224 OFFCURVE",
"519 264 OFFCURVE",
"416 360 CURVE SMOOTH",
"374 400 OFFCURVE",
"364 411 OFFCURVE",
"364 420 CURVE SMOOTH",
"364 427 OFFCURVE",
"370 436 OFFCURVE",
"403 473 CURVE SMOOTH",
"472 548 OFFCURVE",
"494 588 OFFCURVE",
"494 640 CURVE SMOOTH",
"494 719 OFFCURVE",
"428 760 OFFCURVE",
"304 760 CURVE SMOOTH",
"156 760 OFFCURVE",
"104 706 OFFCURVE",
"104 555 CURVE SMOOTH",
"104 0 LINE",
"124 0 LINE",
"124 555 LINE SMOOTH",
"124 696 OFFCURVE",
"168 740 OFFCURVE",
"304 740 CURVE SMOOTH",
"418 740 OFFCURVE",
"474 706 OFFCURVE",
"474 640 CURVE SMOOTH",
"474 594 OFFCURVE",
"455 559 OFFCURVE",
"388 486 CURVE SMOOTH",
"358 453 OFFCURVE",
"344 436 OFFCURVE",
"344 420 CURVE SMOOTH",
"344 401 OFFCURVE",
"362 383 OFFCURVE",
"402 345 CURVE SMOOTH",
"500 252 OFFCURVE",
"524 218 OFFCURVE",
"524 160 CURVE SMOOTH",
"524 69 OFFCURVE",
"460 10 OFFCURVE",
"359 10 CURVE SMOOTH",
"317 10 OFFCURVE",
"253 20 OFFCURVE",
"202 35 CURVE",
"196 15 LINE",
"251 0 OFFCURVE",
"315 -10 OFFCURVE",
"359 -10 CURVE SMOOTH"
);
}
);
width = 598;
},
{
layerId = "9527F797-22C1-480E-A1FE-2CDBEBE1FD4C";
rightMetricsKey = "=X*.9";
paths = (
{
closed = 1;
nodes = (
"504 -10 OFFCURVE",
"577 51 OFFCURVE",
"577 153 CURVE SMOOTH",
"577 207 OFFCURVE",
"555 247 OFFCURVE",
"483 324 CURVE SMOOTH",
"437 373 OFFCURVE",
"427 386 OFFCURVE",
"427 398 CURVE SMOOTH",
"427 408 OFFCURVE",
"437 424 OFFCURVE",
"471 469 CURVE SMOOTH",
"526 541 OFFCURVE",
"542 574 OFFCURVE",
"542 615 CURVE SMOOTH",
"542 707 OFFCURVE",
"459 760 OFFCURVE",
"316 760 CURVE SMOOTH",
"156 760 OFFCURVE",
"85 692 OFFCURVE",
"85 538 CURVE SMOOTH",
"85 0 LINE",
"193 0 LINE",
"193 537 LINE SMOOTH",
"193 637 OFFCURVE",
"222 665 OFFCURVE",
"321 665 CURVE SMOOTH",
"400 665 OFFCURVE",
"436 647 OFFCURVE",
"436 609 CURVE SMOOTH",
"436 583 OFFCURVE",
"420 555 OFFCURVE",
"366 489 CURVE SMOOTH",
"327 440 OFFCURVE",
"316 420 OFFCURVE",
"316 398 CURVE SMOOTH",
"316 372 OFFCURVE",
"332 345 OFFCURVE",
"374 300 CURVE SMOOTH",
"456 214 OFFCURVE",
"471 193 OFFCURVE",
"471 164 CURVE SMOOTH",
"471 116 OFFCURVE",
"430 85 OFFCURVE",
"366 85 CURVE SMOOTH",
"337 85 OFFCURVE",
"299 92 OFFCURVE",
"263 103 CURVE",
"248 8 LINE",
"296 -4 OFFCURVE",
"345 -10 OFFCURVE",
"383 -10 CURVE SMOOTH"
);
}
);
width = 625;
},
{
layerId = "9E6B41AB-2970-4C41-8B35-4DBE0D296A43";
rightMetricsKey = "=X*1.1";
paths = (
{
closed = 1;
nodes = (
"537 -10 OFFCURVE",
"612 47 OFFCURVE",
"612 145 CURVE SMOOTH",
"612 192 OFFCURVE",
"595 232 OFFCURVE",
"552 288 CURVE SMOOTH",
"521 327 OFFCURVE",
"498 365 OFFCURVE",
"498 377 CURVE SMOOTH",
"498 386 OFFCURVE",
"510 407 OFFCURVE",
"548 465 CURVE SMOOTH",
"584 521 OFFCURVE",
"598 556 OFFCURVE",
"598 590 CURVE SMOOTH",
"598 691 OFFCURVE",
"489 760 OFFCURVE",
"328 760 CURVE SMOOTH",
"150 760 OFFCURVE",
"67 684 OFFCURVE",
"67 520 CURVE SMOOTH",
"67 0 LINE",
"263 0 LINE",
"263 513 LINE SMOOTH",
"263 586 OFFCURVE",
"275 600 OFFCURVE",
"338 600 CURVE SMOOTH",
"386 600 OFFCURVE",
"408 590 OFFCURVE",
"408 568 CURVE SMOOTH",
"408 547 OFFCURVE",
"389 510 OFFCURVE",
"360 474 CURVE SMOOTH",
"321 425 OFFCURVE",
"308 400 OFFCURVE",
"308 375 CURVE SMOOTH",
"308 351 OFFCURVE",
"320 330 OFFCURVE",
"362 274 CURVE SMOOTH",
"404 218 OFFCURVE",
"416 196 OFFCURVE",
"416 177 CURVE SMOOTH",
"416 156 OFFCURVE",
"401 145 OFFCURVE",
"373 145 CURVE SMOOTH",
"359 145 OFFCURVE",
"339 148 OFFCURVE",
"313 155 CURVE",
"303 0 LINE",
"347 -7 OFFCURVE",
"379 -10 OFFCURVE",
"408 -10 CURVE SMOOTH"
);
}
);
width = 648;
}
);
leftKerningGroup = h;
leftMetricsKey = "=b";
rightKerningGroup = X;
rightMetricsKey = "=X*1.1";
unicode = 00DF;
},
{
color = 10;
glyphname = t;
lastChange = "2021-01-27 09:34:16 +0000";
layers = (
{
anchors = (
{
name = bottom;
position = "{247, 0}";
},
{
name = cedi;
position = "{255, 0}";
},
{
name = center;
position = "{247, 260}";
},
{
name = top;
position = "{247, 520}";
},
{
name = topright;
position = "{434, 520}";
}
);
layerId = "D65C9A1E-0FCA-4B2D-8EDF-9F36CA9182A1";
leftMetricsKey = "=f*1.4";
rightMetricsKey = "=c*.6";
paths = (
{
closed = 1;
nodes = (
"359 -10 OFFCURVE",
"390 -6 OFFCURVE",
"423 5 CURVE",
"417 24 LINE",
"388 14 OFFCURVE",
"360 10 OFFCURVE",
"327 10 CURVE SMOOTH",
"235 10 OFFCURVE",
"204 43 OFFCURVE",
"204 140 CURVE SMOOTH",
"204 500 LINE",
"420 500 LINE",
"420 520 LINE",
"204 520 LINE",
"204 690 LINE",
"184 690 LINE",
"184 520 LINE",
"43 520 LINE",
"43 500 LINE",
"184 500 LINE",
"184 140 LINE SMOOTH",
"184 32 OFFCURVE",
"224 -10 OFFCURVE",
"327 -10 CURVE SMOOTH"
);
}
);
width = 473;
},
{
anchors = (
{
name = bottom;
position = "{244, 0}";
},
{
name = cedi;
position = "{228, 0}";
},
{
name = center;
position = "{244, 260}";
},
{
name = top;
position = "{244, 520}";
},
{
name = topright;
position = "{463, 520}";
}
);
layerId = "9527F797-22C1-480E-A1FE-2CDBEBE1FD4C";
rightMetricsKey = "=c*.8";
paths = (
{
closed = 1;
nodes = (
"350 -10 OFFCURVE",
"388 -5 OFFCURVE",
"431 8 CURVE",
"421 100 LINE",
"395 91 OFFCURVE",
"363 85 OFFCURVE",
"332 85 CURVE SMOOTH",
"270 85 OFFCURVE",
"250 109 OFFCURVE",
"250 180 CURVE SMOOTH",
"250 430 LINE",
"431 430 LINE",
"431 520 LINE",
"250 520 LINE",
"250 690 LINE",
"141 690 LINE",
"141 520 LINE",
"21 520 LINE",
"21 430 LINE",
"141 430 LINE",
"141 150 LINE SMOOTH",
"141 36 OFFCURVE",
"190 -10 OFFCURVE",
"310 -10 CURVE SMOOTH"
);
}
);
width = 485;
},
{
anchors = (
{
name = bottom;
position = "{256, 0}";
},
{
name = cedi;
position = "{216, 0}";
},
{
name = center;
position = "{256, 260}";
},
{
name = top;
position = "{256, 520}";
},
{
name = topright;
position = "{508, 520}";
}
);
layerId = "9E6B41AB-2970-4C41-8B35-4DBE0D296A43";
leftMetricsKey = "=f*.8";
rightMetricsKey = "=c*1";
paths = (
{
closed = 1;
nodes = (
"357 -10 OFFCURVE",
"399 -4 OFFCURVE",
"453 10 CURVE",
"438 155 LINE",
"411 146 OFFCURVE",
"376 140 OFFCURVE",
"353 140 CURVE SMOOTH",
"320 140 OFFCURVE",
"311 153 OFFCURVE",
"311 200 CURVE SMOOTH",
"311 380 LINE",
"456 380 LINE",
"456 520 LINE",
"311 520 LINE",
"311 690 LINE",
"113 690 LINE",
"113 520 LINE",
"16 520 LINE",
"16 380 LINE",
"113 380 LINE",
"113 160 LINE SMOOTH",
"113 39 OFFCURVE",
"171 -10 OFFCURVE",
"308 -10 CURVE SMOOTH"
);
}
);
width = 510;
}
);
leftKerningGroup = f;
leftMetricsKey = "=f*.8";
rightKerningGroup = c;
rightMetricsKey = "=c*1.2";
unicode = 0074;
},
{
color = 11;
glyphname = tbar;
lastChange = "2020-12-09 07:59:53 +0000";
layers = (
{
components = (
{
name = t;
}
);
layerId = "D65C9A1E-0FCA-4B2D-8EDF-9F36CA9182A1";
paths = (
{
closed = 1;
nodes = (
"375 240 LINE",
"375 260 LINE",
"35 260 LINE",
"35 240 LINE"
);
}
);
width = 421;
},
{
components = (
{
alignment = -1;
name = t;
}
);
layerId = "9527F797-22C1-480E-A1FE-2CDBEBE1FD4C";
paths = (
{
closed = 1;
nodes = (
"418 210 LINE",
"418 300 LINE",
"18 300 LINE",
"18 210 LINE"
);
}
);
width = 473;
},
{
components = (
{
name = t;
}
);
layerId = "9E6B41AB-2970-4C41-8B35-4DBE0D296A43";
paths = (
{
closed = 1;
nodes = (
"474 190 LINE",
"474 330 LINE",
"14 330 LINE",
"14 190 LINE"
);
}
);
width = 525;
}
);
leftKerningGroup = f;
rightKerningGroup = c;
unicode = 0167;
},
{
color = 10;
glyphname = u;
lastChange = "2021-01-27 09:34:15 +0000";
layers = (
{
anchors = (
{
name = bottom;
position = "{287, 0}";
},
{
name = ogonek;
position = "{483, 0}";
},
{
name = top;
position = "{287, 520}";
},
{
name = top_ring;
position = "{287, 540}";
},
{
name = topright;
position = "{483, 480}";
}
);
layerId = "D65C9A1E-0FCA-4B2D-8EDF-9F36CA9182A1";
paths = (
{
closed = 1;
nodes = (
"351 -10 OFFCURVE",
"425 33 OFFCURVE",
"461 108 CURVE",
"463 108 LINE",
"463 0 LINE",
"483 0 LINE",
"483 520 LINE",
"463 520 LINE",
"463 200 LINE SMOOTH",
"463 88 OFFCURVE",
"379 10 OFFCURVE",
"258 10 CURVE SMOOTH",
"153 10 OFFCURVE",
"103 70 OFFCURVE",
"103 200 CURVE SMOOTH",
"103 520 LINE",
"83 520 LINE",
"83 200 LINE SMOOTH",
"83 59 OFFCURVE",
"141 -10 OFFCURVE",
"258 -10 CURVE SMOOTH"
);
}
);
width = 587;
},
{
anchors = (
{
name = bottom;
position = "{302, 0}";
},
{
name = ogonek;
position = "{528, 0}";
},
{
name = top;
position = "{302, 520}";
},
{
name = top_ring;
position = "{302, 540}";
},
{
name = topright;
position = "{513, 480}";
}
);
layerId = "9527F797-22C1-480E-A1FE-2CDBEBE1FD4C";
paths = (
{
closed = 1;
nodes = (
"326 -10 OFFCURVE",
"381 14 OFFCURVE",
"422 62 CURVE",
"424 62 LINE",
"425 0 LINE",
"528 0 LINE",
"528 520 LINE",
"420 520 LINE",
"420 210 LINE SMOOTH",
"420 135 OFFCURVE",
"361 80 OFFCURVE",
"280 80 CURVE SMOOTH",
"208 80 OFFCURVE",
"176 124 OFFCURVE",
"176 220 CURVE SMOOTH",
"176 520 LINE",
"68 520 LINE",
"68 200 LINE SMOOTH",
"68 56 OFFCURVE",
"125 -10 OFFCURVE",
"250 -10 CURVE SMOOTH"
);
}
);
width = 613;
},
{
anchors = (
{
name = bottom;
position = "{317, 0}";
},
{
name = ogonek;
position = "{574, 0}";
},
{
name = top;
position = "{317, 520}";
},
{
name = top_ring;
position = "{317, 540}";
},
{
name = topright;
position = "{544, 480}";
}
);
layerId = "9E6B41AB-2970-4C41-8B35-4DBE0D296A43";
paths = (
{
closed = 1;
nodes = (
"291 -10 OFFCURVE",
"339 11 OFFCURVE",
"384 60 CURVE",
"386 60 LINE",
"388 0 LINE",
"574 0 LINE",
"574 520 LINE",
"378 520 LINE",
"378 220 LINE SMOOTH",
"378 180 OFFCURVE",
"347 150 OFFCURVE",
"304 150 CURVE SMOOTH",
"265 150 OFFCURVE",
"250 175 OFFCURVE",
"250 240 CURVE SMOOTH",
"250 520 LINE",
"54 520 LINE",
"54 200 LINE SMOOTH",
"54 54 OFFCURVE",
"106 -10 OFFCURVE",
"224 -10 CURVE SMOOTH"
);
}
);
width = 641;
},
{
anchors = (
{
name = bottom;
position = "{292, 0}";
},
{
name = ogonek;
position = "{497, 0}";
},
{
name = top;
position = "{292, 520}";
},
{
name = top_ring;
position = "{292, 540}";
},
{
name = topright;
position = "{493, 480}";
}
);
associatedMasterId = "D65C9A1E-0FCA-4B2D-8EDF-9F36CA9182A1";
layerId = "245D3822-9188-491B-8A3B-367571E408B0";
name = "Light {232}";
paths = (
{
closed = 1;
nodes = (
"340 -10 OFFCURVE",
"410 23 OFFCURVE",
"447 79 CURVE",
"449 79 LINE",
"449 0 LINE",
"498 0 LINE",
"498 520 LINE",
"449 520 LINE",
"449 204 LINE SMOOTH",
"449 104 OFFCURVE",
"373 33 OFFCURVE",
"265 33 CURVE SMOOTH",
"171 33 OFFCURVE",
"127 88 OFFCURVE",
"127 207 CURVE SMOOTH",
"127 520 LINE",
"78 520 LINE",
"78 200 LINE SMOOTH",
"78 57 OFFCURVE",
"134 -10 OFFCURVE",
"255 -10 CURVE SMOOTH"
);
}
);
width = 595;
}
);
leftKerningGroup = u;
leftMetricsKey = "=|n";
rightKerningGroup = u;
rightMetricsKey = "=|n";
unicode = 0075;
},
{
color = 10;
glyphname = v;
lastChange = "2021-01-27 09:35:20 +0000";
layers = (
{
layerId = "D65C9A1E-0FCA-4B2D-8EDF-9F36CA9182A1";
paths = (
{
closed = 1;
nodes = (
"267 0 LINE",
"487 520 LINE",
"465 520 LINE",
"253 17 LINE",
"251 17 LINE",
"39 520 LINE",
"17 520 LINE",
"237 0 LINE"
);
}
);
width = 504;
},
{
layerId = "9527F797-22C1-480E-A1FE-2CDBEBE1FD4C";
paths = (
{
closed = 1;
nodes = (
"346 0 LINE",
"530 520 LINE",
"412 520 LINE",
"271 78 LINE",
"269 78 LINE",
"128 520 LINE",
"10 520 LINE",
"194 0 LINE"
);
}
);
width = 540;
},
{
layerId = "9E6B41AB-2970-4C41-8B35-4DBE0D296A43";
paths = (
{
closed = 1;
nodes = (
"427 0 LINE",
"575 520 LINE",
"373 520 LINE",
"291 120 LINE",
"289 120 LINE",
"207 520 LINE",
"5 520 LINE",
"153 0 LINE"
);
}
);
width = 580;
}
);
leftKerningGroup = v;
leftMetricsKey = "=|k*.4";
rightKerningGroup = v;
rightMetricsKey = "=|";
unicode = 0076;
},
{
color = 10;
glyphname = w;
lastChange = "2021-01-27 09:36:09 +0000";
layers = (
{
anchors = (
{
name = bottom;
position = "{374, 0}";
},
{
name = top;
position = "{374, 520}";
}
);
layerId = "D65C9A1E-0FCA-4B2D-8EDF-9F36CA9182A1";
leftMetricsKey = "=v*2";
paths = (
{
closed = 1;
nodes = (
"224 0 LINE",
"373 499 LINE",
"375 499 LINE",
"524 0 LINE",
"554 0 LINE",
"714 520 LINE",
"693 520 LINE",
"540 21 LINE",
"538 21 LINE",
"389 520 LINE",
"359 520 LINE",
"210 21 LINE",
"208 21 LINE",
"55 520 LINE",
"34 520 LINE",
"194 0 LINE"
);
}
);
width = 748;
},
{
anchors = (
{
name = bottom;
position = "{394, 0}";
},
{
name = top;
position = "{394, 520}";
}
);
layerId = "9527F797-22C1-480E-A1FE-2CDBEBE1FD4C";
leftMetricsKey = "=v*2.4";
paths = (
{
closed = 1;
nodes = (
"304 0 LINE",
"393 405 LINE",
"395 405 LINE",
"484 0 LINE",
"624 0 LINE",
"764 520 LINE",
"646 520 LINE",
"558 105 LINE",
"556 105 LINE",
"467 520 LINE",
"321 520 LINE",
"232 105 LINE",
"230 105 LINE",
"142 520 LINE",
"24 520 LINE",
"164 0 LINE"
);
}
);
width = 788;
},
{
anchors = (
{
name = bottom;
position = "{414, 0}";
},
{
name = top;
position = "{414, 520}";
}
);
layerId = "9E6B41AB-2970-4C41-8B35-4DBE0D296A43";
leftMetricsKey = "=v*2.8";
paths = (
{
closed = 1;
nodes = (
"369 0 LINE",
"413 350 LINE",
"415 350 LINE",
"459 0 LINE",
"694 0 LINE",
"814 520 LINE",
"620 520 LINE",
"580 170 LINE",
"578 170 LINE",
"532 520 LINE",
"296 520 LINE",
"250 170 LINE",
"248 170 LINE",
"208 520 LINE",
"14 520 LINE",
"134 0 LINE"
);
}
);
width = 828;
}
);
leftKerningGroup = v;
leftMetricsKey = "=v*2.8";
rightKerningGroup = v;
rightMetricsKey = "=|";
unicode = 0077;
},
{
color = 10;
glyphname = x;
lastChange = "2021-01-27 09:35:11 +0000";
layers = (
{
layerId = "D65C9A1E-0FCA-4B2D-8EDF-9F36CA9182A1";
leftMetricsKey = "=|k";
paths = (
{
closed = 1;
nodes = (
"68 0 LINE",
"261 247 LINE",
"263 247 LINE",
"456 0 LINE",
"482 0 LINE",
"275 263 LINE",
"477 520 LINE",
"451 520 LINE",
"263 279 LINE",
"261 279 LINE",
"73 520 LINE",
"47 520 LINE",
"249 263 LINE",
"42 0 LINE"
);
}
);
width = 524;
},
{
layerId = "9527F797-22C1-480E-A1FE-2CDBEBE1FD4C";
leftMetricsKey = "=|k*1.4";
paths = (
{
closed = 1;
nodes = (
"160 0 LINE",
"280 204 LINE",
"282 204 LINE",
"402 0 LINE",
"526 0 LINE",
"355 262 LINE",
"524 520 LINE",
"400 520 LINE",
"282 320 LINE",
"280 320 LINE",
"162 520 LINE",
"38 520 LINE",
"207 262 LINE",
"36 0 LINE"
);
}
);
width = 562;
},
{
layerId = "9E6B41AB-2970-4C41-8B35-4DBE0D296A43";
leftMetricsKey = "=|k*1.8";
paths = (
{
closed = 1;
nodes = (
"225 0 LINE",
"292 160 LINE",
"294 160 LINE",
"361 0 LINE",
"563 0 LINE",
"428 260 LINE",
"563 520 LINE",
"361 520 LINE",
"294 360 LINE",
"292 360 LINE",
"225 520 LINE",
"23 520 LINE",
"158 260 LINE",
"23 0 LINE"
);
}
);
width = 586;
}
);
leftKerningGroup = x;
leftMetricsKey = "=|k*1.8";
rightKerningGroup = x;
rightMetricsKey = "=|";
unicode = 0078;
},
